<svg width="16" height="40" viewBox="0 0 16 40" fill="none" xmlns="http://www.w3.org/2000/svg">
<path fill-rule="evenodd" clip-rule="evenodd" d="M8.69669 39.7628C8.76679 39.4113 8.76124 39.3938 8.55415 39.3148C8.44962 39.2749 8.36409 39.2072 8.36409 39.1642C8.36409 39.0531 8.04708 39.0718 7.88895 39.1922C7.69007 39.3436 7.72785 39.5183 7.98398 39.632C8.10941 39.6878 8.21205 39.7724 8.21205 39.8201C8.21205 39.8934 8.43502 39.9963 8.60166 40C8.62782 40.0006 8.67054 39.8939 8.69669 39.7628ZM7.9449 38.8585C8.07034 38.7195 8.07566 38.6852 7.98094 38.6251C7.91989 38.5863 7.84425 38.5542 7.81292 38.5535C7.7816 38.5529 7.75591 38.5041 7.75591 38.4451C7.75591 38.3231 8.06213 38.3699 8.15092 38.5053C8.17996 38.5497 8.22216 38.5676 8.24466 38.5451C8.30814 38.4813 8.15024 37.9988 8.04236 37.9272C7.96832 37.8781 7.97675 37.8451 8.07901 37.7847C8.15222 37.7414 8.21205 37.6714 8.21205 37.629C8.21205 37.5867 8.18171 37.5709 8.14461 37.5939C8.01872 37.672 7.88788 37.414 7.93456 37.1797C7.96299 37.0374 7.94885 36.9511 7.89716 36.9511C7.84964 36.9511 7.82973 36.8697 7.85056 36.7605C7.8783 36.6146 7.85496 36.5699 7.75097 36.5699C7.67616 36.5699 7.59937 36.6299 7.58022 36.7033C7.54821 36.8262 7.54479 36.8258 7.53666 36.6983C7.53179 36.6222 7.56904 36.4849 7.61945 36.3933C7.66977 36.3017 7.72337 36.1416 7.73842 36.0376C7.75347 35.9335 7.79597 35.8296 7.83284 35.8068C7.87116 35.783 7.86949 35.7169 7.82912 35.6529C7.79012 35.591 7.75773 35.5782 7.75705 35.6242C7.75644 35.6703 7.65328 35.7108 7.52784 35.7144C7.37754 35.7187 7.29977 35.6837 7.29977 35.6116C7.29977 35.5516 7.35108 35.5024 7.4138 35.5024C7.47652 35.5024 7.52784 35.4472 7.52784 35.3798C7.52784 35.2982 7.56897 35.2732 7.65107 35.3047C7.75089 35.3432 7.76336 35.3194 7.71698 35.1795C7.68551 35.0845 7.66095 34.8352 7.66232 34.6255C7.66377 34.4158 7.62553 34.219 7.5774 34.1882C7.51978 34.1514 7.53263 34.1318 7.61473 34.131C7.85238 34.1288 7.85413 33.7508 7.61656 33.7462C7.50131 33.744 7.50191 33.7346 7.62287 33.6425C7.69608 33.5868 7.75591 33.5021 7.75591 33.4543C7.75591 33.4065 7.79247 33.3674 7.83725 33.3674C7.88195 33.3674 7.90757 33.2902 7.89427 33.1958C7.88089 33.1015 7.8374 33.0354 7.79772 33.049C7.75796 33.0626 7.69623 32.9946 7.66057 32.8979C7.61922 32.7858 7.62492 32.7123 7.67631 32.695C7.72063 32.6802 7.7312 32.6282 7.69988 32.5794C7.61899 32.4533 7.62157 32.1474 7.70353 32.1474C7.74123 32.1474 7.75317 32.0977 7.72991 32.0369C7.70163 31.963 7.72413 31.9405 7.7978 31.9688C7.86584 31.995 7.90795 31.9643 7.90795 31.8887C7.90795 31.8213 7.878 31.7662 7.84143 31.7662C7.75188 31.7662 7.75621 31.3938 7.84637 31.3378C7.88613 31.3132 7.86196 31.2316 7.79187 31.1539C7.67327 31.0224 7.67517 31.0167 7.82494 31.056C7.91616 31.0799 7.98398 31.0614 7.98398 31.0126C7.98398 30.9657 7.93266 30.9274 7.86994 30.9274C7.79392 30.9274 7.75591 30.8512 7.75591 30.6987C7.75591 30.5208 7.72215 30.4699 7.60386 30.4699C7.52024 30.4699 7.45181 30.4356 7.45181 30.3937C7.45181 30.3517 7.48808 30.3174 7.53232 30.3174C7.57657 30.3174 7.58812 30.2773 7.55787 30.2282C7.52138 30.1691 7.54365 30.1547 7.62385 30.1856C7.79369 30.2509 7.93684 30.0581 7.84782 29.8839C7.72215 29.638 7.75446 29.1849 7.91746 28.9078L8.07437 28.6411L7.84029 28.5071C7.71159 28.4334 7.58676 28.3225 7.56288 28.2607C7.51362 28.1331 7.74344 27.9326 7.87914 27.9848C7.93745 28.0072 7.96877 27.926 7.96877 27.7524C7.96877 27.5918 7.92567 27.469 7.86036 27.4438C7.72443 27.3915 7.86682 27.1912 8.04001 27.1912C8.13671 27.1912 8.13443 27.162 8.0248 26.9941C7.90324 26.8082 7.9037 26.7886 8.03202 26.6464C8.125 26.5433 8.14127 26.4791 8.08341 26.4431C8.03696 26.4142 7.9785 26.2191 7.95349 26.0094C7.92856 25.7997 7.92802 25.671 7.95243 25.7234C7.97675 25.7759 8.0565 25.8187 8.12964 25.8187C8.29636 25.8187 8.28898 25.5728 8.11648 25.3818C8.04054 25.2976 7.99812 25.1338 8.00716 24.9599C8.01948 24.7233 8.04974 24.6756 8.18795 24.6753C8.28799 24.6752 8.37337 24.6132 8.40309 24.5193C8.46254 24.3315 8.37854 23.7779 8.28145 23.7178C8.15586 23.6399 8.2087 23.5452 8.42111 23.4674C8.53613 23.4253 8.58737 23.3881 8.53514 23.3848C8.48284 23.3815 8.44012 23.293 8.44012 23.1882C8.44012 23.0695 8.39701 22.9975 8.32608 22.9975C8.26336 22.9975 8.21205 22.9632 8.21205 22.9213C8.21205 22.8793 8.26336 22.845 8.32608 22.845C8.44817 22.845 8.45836 22.7735 8.44141 22.0398C8.43152 21.613 8.44559 21.5708 8.62546 21.4886C8.84106 21.39 8.89139 21.1139 8.70665 21.0428C8.64416 21.0187 8.61048 20.9708 8.63185 20.9361C8.65321 20.9014 8.63223 20.8493 8.58532 20.8202C8.5226 20.7813 8.52328 20.7528 8.58783 20.7127C8.63625 20.6828 8.68005 20.5756 8.68529 20.4744C8.69046 20.3734 8.74862 20.2261 8.81453 20.1471C8.92689 20.0125 8.9237 20.0068 8.76321 20.0569C8.62379 20.1004 8.59216 20.0812 8.59216 19.9527C8.59216 19.866 8.62059 19.7951 8.65541 19.7951C8.7493 19.7951 8.89352 19.2675 8.83977 19.121C8.81423 19.0514 8.7566 18.9692 8.71175 18.9384C8.6621 18.9043 8.6805 18.882 8.75873 18.8812C8.95684 18.8795 8.98999 18.7543 8.85938 18.501C8.78298 18.3529 8.77051 18.2701 8.82464 18.2701C8.87101 18.2701 8.89359 18.2272 8.87482 18.1748C8.8327 18.0567 8.95935 17.7956 9.03583 17.843C9.06655 17.8621 9.09627 17.8201 9.10175 17.7498C9.11809 17.5414 9.16705 17.3631 9.22346 17.3065C9.25257 17.2773 9.27637 17.1596 9.27637 17.0449C9.27637 16.8946 9.20734 16.7898 9.02929 16.6698C8.8492 16.5485 8.82601 16.5128 8.94362 16.5382C9.07149 16.566 9.09734 16.5436 9.06784 16.4304C9.04731 16.3519 9.06997 16.2876 9.11817 16.2876C9.18241 16.2876 9.18385 16.2467 9.12349 16.1335C9.01135 15.9234 9.10129 15.8078 9.33187 15.8658C9.50155 15.9086 9.51014 15.9012 9.4088 15.7995C9.14759 15.5376 9.16157 14.4965 9.42986 14.2274C9.54602 14.1109 9.57917 14.0139 9.5423 13.8978C9.45122 13.611 9.4383 13.2786 9.51638 13.2303C9.56169 13.2022 9.54405 13.1358 9.47205 13.0636C9.3178 12.9089 9.31917 12.7802 9.47502 12.7802C9.56792 12.7802 9.58966 12.725 9.5645 12.5532C9.54625 12.4285 9.56807 12.3126 9.61293 12.2957C9.66318 12.2768 9.62608 12.1411 9.51645 11.9425C9.38774 11.7093 9.36144 11.5968 9.42142 11.5367C9.46711 11.4909 9.50444 11.3573 9.50444 11.2399C9.50444 11.0883 9.54298 11.0257 9.63748 11.0241C9.76337 11.0219 9.7633 11.0176 9.63619 10.9434C9.54146 10.888 9.52177 10.8294 9.56929 10.7442C9.64858 10.6021 9.59552 10.3402 9.48741 10.3402C9.44605 10.3402 9.43328 10.2849 9.45913 10.2174C9.49281 10.1294 9.4735 10.107 9.39124 10.1387C9.2417 10.1962 9.2452 10.1198 9.40014 9.94819C9.48467 9.85448 9.52687 9.65639 9.53318 9.32348C9.53994 8.96801 9.56822 8.84571 9.63748 8.87186C9.7614 8.91868 9.76451 8.57281 9.64128 8.44921C9.58936 8.39713 9.58312 8.35771 9.62684 8.35771C9.6707 8.35771 9.71137 8.09572 9.72171 7.74772C9.73373 7.34025 9.71168 7.13773 9.65519 7.13773C9.60874 7.13773 9.5778 7.04333 9.58639 6.92804C9.60525 6.67528 9.51326 6.37524 9.41686 6.37524C9.3771 6.37524 9.38029 6.43753 9.42439 6.52011C9.48384 6.63151 9.47373 6.67574 9.3806 6.71157C9.2785 6.75092 9.26694 6.71333 9.30686 6.47139C9.33293 6.31363 9.35589 6.12461 9.35802 6.05118C9.36015 5.97783 9.38964 5.91774 9.42363 5.91774C9.45761 5.91774 9.48543 5.83196 9.48543 5.72712C9.48543 5.62228 9.45548 5.5365 9.41891 5.5365C9.38235 5.5365 9.35239 5.48503 9.35239 5.42213C9.35239 5.35922 9.30108 5.30775 9.23836 5.30775C9.09977 5.30775 9.08928 5.14504 9.21935 5.01328C9.29545 4.93619 9.28793 4.90203 9.18134 4.84172C9.10813 4.80032 9.0483 4.68236 9.0483 4.57957C9.0483 4.47687 9.00877 4.39277 8.96049 4.39277C8.90925 4.39277 8.9272 4.33237 9.00367 4.24759C9.11619 4.12292 9.12052 4.07763 9.03446 3.92704C8.97935 3.8305 8.8682 3.69493 8.78747 3.6257C8.59155 3.45765 8.5432 2.76355 8.70962 2.50865C8.82525 2.33175 8.82996 2.33114 9.05993 2.46511C9.18811 2.53984 9.31491 2.65649 9.34175 2.72451C9.4307 2.95028 9.93808 3.45559 10.1225 3.50202C10.2225 3.52718 10.3608 3.64354 10.4299 3.76059C10.6751 4.17576 10.9112 4.39277 11.118 4.39277C11.2377 4.39277 11.3662 4.45849 11.4326 4.5535C11.4944 4.64194 11.5818 4.69136 11.627 4.66337C11.6722 4.63539 11.7091 4.65255 11.7091 4.70142C11.7091 4.7503 11.7604 4.77058 11.8231 4.74641C11.9007 4.71659 11.9372 4.75053 11.9372 4.85262C11.9372 4.9352 11.969 5.00275 12.0078 5.00275C12.0466 5.00275 12.137 5.06147 12.2085 5.13329C12.2801 5.20512 12.3903 5.27146 12.4534 5.28076C12.5166 5.28999 12.5887 5.32597 12.6138 5.36059C12.7005 5.48038 13.294 5.8357 13.4895 5.88488C13.5975 5.91203 13.6857 5.96372 13.6857 5.99964C13.6857 6.03555 13.7883 6.17028 13.9138 6.29899C14.0392 6.4277 14.1419 6.5821 14.1419 6.64203C14.1419 6.7715 14.4171 6.93582 14.5236 6.86987C14.5645 6.84447 14.598 6.86255 14.598 6.9099C14.598 7.06887 14.8292 7.23006 15.0731 7.24112C15.3674 7.25447 15.4444 7.05927 15.1891 6.94695C15.094 6.90509 15.0112 6.80223 15.0052 6.71836C14.9992 6.63449 14.9907 6.49259 14.9862 6.403C14.9759 6.1956 14.3441 5.53665 13.9708 5.34397C13.814 5.26307 13.6857 5.14428 13.6857 5.08C13.6857 4.93177 13.4224 4.76311 13.2778 4.81877C13.202 4.84797 13.1521 4.78865 13.1167 4.62693C13.0691 4.40939 12.9798 4.35434 12.7246 4.38522C12.6769 4.39093 12.6427 4.33642 12.6486 4.26406C12.6548 4.18842 12.567 4.08701 12.4424 4.02585C12.192 3.90294 11.9372 3.66497 11.9372 3.55402C11.9372 3.51209 11.8761 3.47778 11.8015 3.47778C11.7268 3.47778 11.5132 3.30507 11.3268 3.09401C11.1403 2.88288 10.8592 2.62089 10.7023 2.51178C10.5452 2.40259 10.4167 2.26793 10.4167 2.21243C10.4167 1.94685 10.1369 1.57094 9.84654 1.44665C9.67929 1.37506 9.51676 1.32237 9.48543 1.32961C9.45411 1.33686 9.42842 1.27418 9.42842 1.1903C9.42842 1.10643 9.39421 1.03781 9.35239 1.03781C9.31058 1.03781 9.27637 0.952026 9.27637 0.847183C9.27637 0.728539 9.23326 0.656559 9.16234 0.656559C9.09962 0.656559 8.97988 0.587936 8.89625 0.504063C8.81263 0.420189 8.71 0.351566 8.66818 0.351566C8.62637 0.351566 8.59216 0.317253 8.59216 0.275314C8.59216 0.233379 8.54373 0.199066 8.48444 0.199066C8.42521 0.199066 8.36402 0.160641 8.34836 0.113594C8.33277 0.0666237 8.19304 0.0204163 8.03795 0.0109634C7.83026 -0.00169754 7.75591 0.0240021 7.75591 0.108257C7.75591 0.203796 7.73188 0.200897 7.61017 0.0904121C7.49355 -0.0154228 7.43266 -0.0247269 7.30509 0.0436707C7.17851 0.111683 7.16148 0.158653 7.22215 0.272343C7.27658 0.374363 7.27232 0.424309 7.20732 0.446037C7.15715 0.462814 7.10758 0.610886 7.09709 0.775127C7.0866 0.939445 7.04243 1.08569 6.99887 1.10025C6.95531 1.11481 6.91965 1.20967 6.91965 1.31101C6.91965 1.41242 6.88461 1.4953 6.84173 1.4953C6.79893 1.4953 6.73134 1.58108 6.69158 1.68592C6.65182 1.79076 6.58659 1.87654 6.54653 1.87654C6.50654 1.87654 6.45203 1.94517 6.4255 2.02905C6.39897 2.11292 6.33374 2.18154 6.28053 2.18154C6.22731 2.18154 6.14482 2.26732 6.09723 2.37217C6.04957 2.47701 5.98191 2.56279 5.94678 2.56279C5.91166 2.56279 5.74836 2.76851 5.584 3.0199C5.41964 3.27129 5.26022 3.47717 5.22981 3.47739C5.14352 3.478 4.2593 4.34092 4.25489 4.42883C4.25268 4.47191 4.04218 4.6787 3.78704 4.88838C3.53198 5.09807 3.22341 5.40688 3.10131 5.57462C2.9793 5.74237 2.8648 5.871 2.84694 5.86056C2.75921 5.80909 2.66243 5.86452 2.38077 6.12743C2.2123 6.28466 1.90129 6.56441 1.68956 6.74909C1.47784 6.93369 1.28444 7.16533 1.2598 7.26377C1.21503 7.44257 1.08693 7.4852 0.698221 7.45066C0.450006 7.42862 0.276217 7.58211 0.391543 7.72157C0.501245 7.85409 0.461789 7.89526 0.204451 7.91661C-0.00932598 7.93438 -0.0849705 8.12897 0.121888 8.12897C0.188105 8.12897 0.22817 8.17151 0.210836 8.22359C0.193503 8.27567 0.21631 8.35596 0.261543 8.40217C0.306702 8.4483 0.424082 8.59225 0.522455 8.72211C0.709624 8.96931 1.09962 9.15543 1.24346 9.06622C1.28976 9.03755 1.41831 9.021 1.52915 9.02947C1.64 9.03793 1.77342 8.99325 1.82572 8.93004C1.87795 8.86691 1.96667 8.81521 2.02277 8.81521C2.07895 8.81521 2.16144 8.74658 2.20622 8.66271C2.25099 8.57884 2.32915 8.51075 2.37993 8.51136C2.44432 8.5122 2.44105 8.5324 2.36913 8.57808C2.29615 8.62451 2.29091 8.65913 2.35127 8.69649C2.49586 8.78616 3.10489 8.34345 3.13225 8.12897C3.1505 7.98577 3.20379 7.93629 3.34656 7.93011C3.75192 7.91242 3.8027 7.89664 3.8027 7.78821C3.8027 7.72668 3.84543 7.69236 3.89773 7.71211C4.00644 7.75314 4.48653 7.32911 4.48767 7.19103C4.48813 7.14078 4.57525 7.03098 4.68123 6.94711C4.78728 6.86323 4.97627 6.70021 5.10118 6.58492C5.22616 6.46956 5.36308 6.37524 5.40542 6.37524C5.47985 6.37524 5.61996 6.23921 5.99513 5.80276C6.12346 5.65354 6.14992 5.57272 6.09016 5.51279C5.92033 5.34245 5.99536 5.21671 6.23537 5.26963C6.42383 5.31111 6.4553 5.29883 6.41699 5.19856C6.38171 5.10653 6.40307 5.08976 6.50555 5.12925C6.59192 5.1625 6.62248 5.1519 6.5904 5.0999C6.56288 5.05521 6.60742 4.93787 6.68945 4.83913C6.77148 4.74038 6.83967 4.68655 6.84112 4.71949C6.84249 4.75243 6.91076 4.74335 6.99286 4.69928C7.07489 4.65521 7.12423 4.57264 7.10249 4.51568C7.07664 4.44827 7.13723 4.39787 7.27635 4.37111C7.39373 4.34846 7.49416 4.3355 7.49941 4.34229C7.50465 4.34908 7.534 4.43615 7.56456 4.53573C7.59983 4.65079 7.59223 4.69951 7.54357 4.6694C7.47287 4.62555 7.46907 4.72002 7.51552 5.36494C7.52411 5.48465 7.57626 5.5365 7.68802 5.5365C7.7978 5.5365 7.83467 5.5718 7.80525 5.64866C7.78168 5.71035 7.81224 5.81084 7.87314 5.87199C7.93502 5.93399 7.98398 6.12445 7.98398 6.30288C7.98398 6.57852 7.96824 6.60955 7.86994 6.52774C7.80722 6.47551 7.75309 6.44562 7.7496 6.46125C7.71432 6.61924 7.71432 6.83273 7.7496 6.83281C7.80449 6.83289 7.8 7.61154 7.7445 7.71242C7.72231 7.75283 7.70915 8.04502 7.71531 8.36183C7.72314 8.76519 7.76503 8.99317 7.85519 9.12226C7.93943 9.24281 7.98398 9.45608 7.98398 9.73828C7.98398 10.1188 7.96368 10.1764 7.81292 10.225C7.65708 10.2752 7.65464 10.2835 7.78594 10.3178C7.90142 10.3481 7.90894 10.3688 7.82395 10.4219C7.73721 10.476 7.7353 10.5162 7.81353 10.6428C7.86622 10.728 7.88211 10.7977 7.84888 10.7977C7.81566 10.7977 7.78183 10.8578 7.7737 10.9311C7.76556 11.0045 7.7442 11.1817 7.72611 11.3251C7.70801 11.4684 7.72436 11.6676 7.76237 11.7679C7.80038 11.8681 7.80593 11.9342 7.77468 11.9147C7.74344 11.8951 7.72915 12.1334 7.74291 12.4441C7.7632 12.9019 7.74671 13.0089 7.65601 13.0089C7.50115 13.0089 7.43912 13.2084 7.56212 13.3109C7.71181 13.4354 7.76283 13.6951 7.63761 13.6951C7.55589 13.6951 7.53438 13.8682 7.53734 14.5015C7.54038 15.1645 7.5175 15.3339 7.40863 15.4546C7.28525 15.5913 7.28479 15.6109 7.40202 15.7408C7.4712 15.8175 7.52784 15.9376 7.52784 16.0077C7.52784 16.0778 7.55657 16.1351 7.59162 16.1351C7.62674 16.1351 7.69638 16.2251 7.74633 16.3351C7.83299 16.5258 7.82813 16.5334 7.64187 16.4977C7.53445 16.4771 7.46322 16.4769 7.48359 16.4974C7.50397 16.5178 7.4709 16.5844 7.41015 16.6452C7.26388 16.792 7.27035 16.8976 7.42559 16.8976C7.53871 16.8976 7.53757 16.9129 7.4138 17.0501C7.29004 17.1873 7.2889 17.2026 7.40202 17.2026C7.56 17.2026 7.56288 17.2745 7.40932 17.387C7.31832 17.4538 7.30775 17.5187 7.3637 17.6663C7.41008 17.7886 7.41015 17.9062 7.36408 17.9888C7.32417 18.0603 7.3149 18.1567 7.34341 18.203C7.37191 18.2493 7.34812 18.3203 7.29049 18.3607C7.21736 18.412 7.21196 18.4451 7.2727 18.4702C7.36819 18.5097 7.32881 18.7309 7.17288 19.0305C7.05079 19.2652 7.0403 19.6426 7.15586 19.6426C7.20215 19.6426 7.22032 19.694 7.19622 19.7569C7.1722 19.8199 7.18566 19.8713 7.2261 19.8713C7.26662 19.8713 7.29977 19.9056 7.29977 19.9476C7.29977 19.9895 7.25377 20.0238 7.19752 20.0238C7.14126 20.0238 7.03703 20.0884 6.96587 20.1672C6.84903 20.2967 6.84789 20.3222 6.95409 20.4287C7.01879 20.4936 7.0717 20.5834 7.0717 20.6284C7.0717 20.6733 7.12834 20.7101 7.19752 20.7101C7.31208 20.7101 7.3114 20.7232 7.19014 20.8577C7.08987 20.9688 7.05414 21.1523 7.04532 21.6011C7.03627 22.0629 7.01012 22.1919 6.92893 22.1746C6.85192 22.1582 6.83907 22.1985 6.8805 22.3271C6.96679 22.5949 6.94565 22.8578 6.83207 22.93C6.75407 22.9796 6.75263 22.9955 6.82607 22.9964C6.89091 22.9971 6.90688 23.0601 6.87487 23.1882C6.84606 23.3031 6.85967 23.3788 6.90901 23.3788C6.95409 23.3788 6.97203 23.4281 6.949 23.4883C6.92573 23.5491 6.85564 23.5781 6.79163 23.5535C6.70823 23.5214 6.68482 23.5492 6.70739 23.6536C6.72458 23.7331 6.77939 23.7895 6.82911 23.7791C6.8789 23.7686 6.91965 23.8115 6.91965 23.8744C6.91965 23.9373 6.95386 23.9888 6.99568 23.9888C7.10834 23.9888 7.08789 24.1359 6.95698 24.2672C6.89388 24.3305 6.85929 24.41 6.88012 24.4437C6.90095 24.4776 6.86796 24.5468 6.80691 24.5977C6.70968 24.6786 6.71028 24.7047 6.81185 24.8065C6.87571 24.8706 6.91752 25.0129 6.90475 25.123C6.88582 25.2868 6.8472 25.3191 6.69158 25.3006C6.55193 25.2842 6.52973 25.2973 6.6078 25.3503C6.69812 25.4115 6.69554 25.469 6.59032 25.7327C6.44565 26.0954 6.49096 26.302 6.70055 26.2352C6.92672 26.1632 6.88179 26.4936 6.63365 26.7269C6.4436 26.9057 6.42254 26.9785 6.41098 27.4962C6.40399 27.8107 6.37419 28.1967 6.34492 28.354C6.30964 28.543 6.31983 28.64 6.37487 28.64C6.42071 28.64 6.49757 28.7138 6.54569 28.804C6.61982 28.943 6.6148 28.961 6.51278 28.9217C6.33382 28.8528 6.2841 28.9995 6.39517 29.2686C6.47058 29.4512 6.47233 29.5138 6.40254 29.5372C6.28919 29.5751 6.28159 29.7837 6.3935 29.7837C6.44466 29.7837 6.4572 29.8676 6.42679 30.0066C6.38247 30.2089 6.39418 30.2261 6.55383 30.193C6.67463 30.168 6.65471 30.1915 6.49012 30.2683C6.28615 30.3633 6.25065 30.4208 6.25065 30.6558C6.25065 30.8076 6.30098 30.9823 6.36248 31.044C6.42406 31.1057 6.44534 31.1562 6.40992 31.1562C6.32401 31.1562 6.38377 31.7784 6.48138 31.8996C6.53193 31.9624 6.53224 31.9949 6.48229 31.9949C6.34195 31.9949 6.34127 32.8061 6.48145 33.0309C6.59929 33.2198 6.67395 33.7419 6.58774 33.7738C6.52494 33.7971 6.52669 33.8326 6.59389 33.9042C6.66687 33.9819 6.6595 34.0222 6.55877 34.0961C6.45105 34.1751 6.44702 34.2087 6.53269 34.3123C6.5885 34.3797 6.60872 34.4349 6.57755 34.4349C6.54638 34.4349 6.56478 34.4879 6.61845 34.5528C6.67204 34.6176 6.76 34.6536 6.8139 34.6328C6.87533 34.6092 6.89616 34.6363 6.86963 34.7056C6.82211 34.8299 6.61556 34.8578 6.61556 34.7399C6.61556 34.6979 6.57603 34.6636 6.52775 34.6636C6.47522 34.6636 6.4905 34.7197 6.56576 34.8031C6.63495 34.8798 6.69158 35.017 6.69158 35.1081C6.69158 35.1991 6.72579 35.2736 6.76761 35.2736C6.80942 35.2736 6.84363 35.3138 6.84363 35.3629C6.84363 35.412 6.90027 35.515 6.96945 35.5917C7.08766 35.7227 7.08531 35.7311 6.93144 35.7311C6.84135 35.7311 6.76479 35.7569 6.76137 35.7883C6.75795 35.8197 6.73963 35.9398 6.72078 36.0552C6.70177 36.171 6.72161 36.2649 6.76502 36.2649C6.80828 36.2649 6.84363 36.3163 6.84363 36.3792C6.84363 36.4421 6.89494 36.4936 6.95766 36.4936C7.02038 36.4936 7.0717 36.5279 7.0717 36.5699C7.0717 36.6118 7.04022 36.6461 7.00168 36.6461C6.96321 36.6461 6.90787 36.7551 6.87868 36.8884C6.83922 37.0684 6.85724 37.1538 6.94869 37.2208C7.01635 37.2704 7.0717 37.3501 7.0717 37.3979C7.0717 37.4457 7.12073 37.4848 7.18064 37.4848C7.25248 37.4848 7.28738 37.5628 7.28312 37.7136C7.27955 37.8394 7.24838 37.9423 7.21379 37.9423C7.13533 37.9423 7.29931 38.3233 7.44208 38.4727C7.51484 38.5487 7.5213 38.5927 7.46261 38.6123C7.4008 38.6329 7.39959 38.6832 7.45828 38.7931C7.5029 38.8769 7.58599 38.9275 7.64278 38.9057C7.69957 38.8838 7.75773 38.9009 7.77195 38.9437C7.78616 38.9865 7.86401 38.9481 7.9449 38.8585ZM7.41707 32.4577C7.39297 32.4186 7.4081 32.3652 7.4506 32.3388C7.49309 32.3125 7.52784 32.3444 7.52784 32.4098C7.52784 32.5438 7.48222 32.5634 7.41707 32.4577ZM6.81459 31.8766C6.78866 31.8087 6.80144 31.7781 6.84447 31.8048C6.88582 31.8304 6.91965 31.8837 6.91965 31.9232C6.91965 32.0328 6.86514 32.0086 6.81459 31.8766ZM6.46351 31.5662C6.46351 31.3964 6.48085 31.3807 6.57846 31.4619C6.66596 31.5348 6.6728 31.5826 6.6072 31.6619C6.48579 31.8086 6.46351 31.7938 6.46351 31.5662ZM7.10971 31.5374C7.13556 31.4955 7.18885 31.4612 7.22823 31.4612C7.26761 31.4612 7.29977 31.4955 7.29977 31.5374C7.29977 31.5794 7.2464 31.6137 7.18125 31.6137C7.1161 31.6137 7.08386 31.5794 7.10971 31.5374ZM6.67037 30.5244C6.64848 30.4673 6.689 30.4264 6.76761 30.4264C6.84621 30.4264 6.88673 30.4673 6.86484 30.5244C6.84424 30.5783 6.80045 30.6224 6.76761 30.6224C6.73476 30.6224 6.69097 30.5783 6.67037 30.5244ZM7.80684 18.6195C7.78411 18.5601 7.81467 18.4925 7.87473 18.4694C7.94688 18.4417 7.98398 18.4783 7.98398 18.5774C7.98398 18.751 7.86774 18.7786 7.80684 18.6195ZM8.47615 16.4548C8.49949 16.4313 8.56084 16.4548 8.61246 16.5069C8.68696 16.5822 8.67822 16.5909 8.56989 16.5496C8.49493 16.5209 8.45273 16.4783 8.47615 16.4548ZM7.83193 15.9064C7.74336 15.849 7.76564 15.8322 7.93144 15.8313C8.05468 15.8306 8.12515 15.8624 8.09801 15.9064C8.0397 16.0011 7.97797 16.0011 7.83193 15.9064ZM9.27637 7.26026C9.27637 7.24379 9.32769 7.21055 9.3904 7.18637C9.45312 7.16228 9.50444 7.17578 9.50444 7.21634C9.50444 7.25698 9.45312 7.29023 9.3904 7.29023C9.32769 7.29023 9.27637 7.27673 9.27637 7.26026ZM7.83193 7.2566C7.83193 7.23807 7.86614 7.20178 7.90795 7.17585C7.94977 7.14993 7.98398 7.1651 7.98398 7.20948C7.98398 7.25386 7.94977 7.29023 7.90795 7.29023C7.86614 7.29023 7.83193 7.27513 7.83193 7.2566Z" fill="#F23E16"/>
</svg>
