<svg width="509" height="52" viewBox="0 0 509 52" fill="none" xmlns="http://www.w3.org/2000/svg">
<path fill-rule="evenodd" clip-rule="evenodd" d="M330.463 0.268757C330.356 0.380047 325.818 0.507427 320.381 0.552345C314.943 0.597263 310.357 0.860738 310.19 1.13896C310.023 1.41652 308.969 1.37294 307.847 1.04175C306.725 0.711237 305.597 0.5738 305.341 0.736041C305.085 0.898953 301.386 1.21874 297.12 1.44601C285.342 2.07487 281.541 2.31086 281.541 2.41276C281.541 2.46438 278.02 2.60182 273.717 2.71847C265.828 2.93234 256.906 3.48812 250.895 4.1411C248.123 4.44212 240.902 4.85309 233.29 5.14338C232.214 5.18427 230.894 5.3787 230.356 5.57513C229.818 5.77156 227.764 6.02364 225.792 6.13493C220.057 6.45941 214.368 6.98502 204.601 8.09457C199.58 8.66442 193.193 9.26445 190.406 9.42736C187.621 9.59027 185.124 9.86179 184.858 10.0314C184.346 10.3559 176.71 11.2643 174.77 11.2308C174.143 11.2201 173.629 11.4192 173.629 11.6726C173.629 11.926 172.969 12.1855 172.162 12.2485C171.355 12.3115 168.641 12.5032 166.13 12.6749C163.62 12.8465 160.833 13.1777 159.936 13.4117C159.04 13.6456 156.986 13.9835 155.372 14.1625C148.973 14.8718 144.643 15.4933 141.893 16.0954C140.879 16.3173 138.582 16.6431 136.789 16.8194C132.926 17.1982 127.457 18.409 125.897 19.2309C125.264 19.5648 124.635 19.5641 124.434 19.2296C124.232 18.8944 123.029 18.899 121.632 19.2403C120.286 19.5688 117.13 20.1574 114.619 20.5483C112.109 20.9391 109.322 21.3977 108.425 21.5666C107.529 21.7356 104.448 22.3061 101.579 22.8344C91.8738 24.6204 86.5891 25.7628 84.8559 26.4493C83.9066 26.8254 82.9748 26.9729 82.7851 26.7785C82.5953 26.5834 80.7312 26.9488 78.6427 27.5904C76.5542 28.2326 74.2225 28.8387 73.4616 28.9386C70.3879 29.3408 54.6718 32.6842 54.0772 33.0623C53.7264 33.2849 52.5755 33.5377 51.5199 33.6228C50.4642 33.7079 48.7735 34.4065 47.7635 35.1742C46.6889 35.9907 45.8315 36.2743 45.6959 35.8573C45.542 35.3813 44.1708 35.5167 41.5717 36.2643C39.4311 36.8804 36.2583 37.6473 34.5213 37.9691C32.7849 38.2909 30.9977 38.8668 30.5491 39.2496C30.1011 39.6318 29.5612 39.7659 29.3493 39.548C29.1367 39.3301 28.5773 39.3998 28.1052 39.7028C27.6325 40.0059 26.9446 40.3008 26.5762 40.3592C25.5531 40.5201 18.3638 42.715 16.2016 43.5269C15.1479 43.9225 13.8276 44.3254 13.2675 44.4226C12.4413 44.5654 4.00396 46.94 2.79509 47.3698C2.61578 47.4334 1.99243 47.4381 1.40951 47.3798C0.0650075 47.2464 -0.540736 50.1252 0.600329 51.2213C1.60316 52.184 2.79509 52.2725 2.79509 51.3836C2.79509 51.0316 3.81944 50.5462 5.07135 50.3049C6.32326 50.0628 7.21916 49.6512 7.06202 49.3897C6.90488 49.1283 7.64364 49.0451 8.70385 49.2054C9.76406 49.3649 11.0101 49.1732 11.4731 48.7783C11.936 48.3834 13.6202 47.8665 15.2164 47.6299C17.627 47.2725 24.1356 45.5234 28.2245 44.135C28.7625 43.952 30.0281 43.6918 31.0368 43.5564C32.0455 43.421 33.4747 42.9785 34.2122 42.5722C34.9503 42.166 36.6189 41.7027 37.921 41.5418C41.0703 41.1536 49.1888 38.9412 48.8276 38.5698C48.6705 38.4083 49.3258 38.2474 50.283 38.2125C53.1611 38.1072 67.5515 35.2821 69.3029 34.4789C70.1994 34.0673 71.5198 33.661 72.2371 33.5759C76.1988 33.1046 79.3573 32.4811 80.2995 31.9843C80.8857 31.6752 81.7418 31.5606 82.2021 31.7295C82.6625 31.8992 83.5427 31.8167 84.1583 31.5458C85.3632 31.0176 85.5686 30.976 90.4941 30.2694C92.2872 30.0119 94.8732 29.5051 96.2405 29.1431C99.056 28.3976 99.0534 28.3982 111.033 26.6015C123.903 24.672 127.377 23.9936 128.266 23.2353C128.777 22.7989 129.285 22.7882 129.691 23.2052C130.092 23.6181 131.102 23.6228 132.47 23.2192C133.652 22.8706 136.868 22.4013 139.617 22.1761C142.365 21.9501 145.2 21.5847 145.917 21.3635C147.294 20.9391 147.561 20.9016 153.742 20.2781C155.893 20.0609 158.387 19.7223 159.284 19.5246C160.181 19.3268 162.528 18.9909 164.5 18.7784C166.473 18.5652 168.527 18.2326 169.065 18.0402C169.603 17.8472 171.799 17.5495 173.944 17.3792C176.09 17.2089 178.066 16.7135 178.335 16.2777C178.704 15.6824 178.828 15.6944 178.835 16.324C178.841 16.7852 179.264 17.162 179.777 17.162C180.289 17.162 181.096 16.7852 181.57 16.324C182.117 15.7917 184.571 15.4652 188.3 15.4283C191.527 15.3961 195.929 15.1695 198.08 14.9241C200.232 14.6788 203.594 14.3194 205.551 14.1263C207.507 13.9333 209.337 13.4063 209.616 12.9544C209.988 12.3524 210.125 12.3437 210.133 12.9229C210.139 13.3895 210.877 13.6215 211.936 13.4908C212.922 13.3688 216.663 13.0396 220.25 12.76C223.836 12.4798 227.577 12.1868 228.563 12.1084C229.549 12.0299 230.576 11.8965 230.845 11.8107C231.114 11.7256 232.728 11.6813 234.431 11.7128C236.135 11.7443 237.529 11.5499 237.53 11.2817C237.531 11.0129 239.511 10.783 241.931 10.7702C249.296 10.732 264.904 9.69687 266.873 9.11562C267.894 8.81527 268.887 8.73213 269.081 8.93125C269.274 9.13036 271.277 9.22556 273.531 9.1431C280.862 8.87359 288.65 8.48542 291.648 8.24005C293.261 8.10798 301.184 7.75601 309.253 7.45767C317.322 7.15933 324.364 6.83082 324.902 6.72691C325.439 6.62299 326.41 6.51506 327.059 6.4869C327.823 6.45338 328.066 6.14029 327.749 5.59725C327.37 4.94896 327.473 4.93488 328.2 5.53423C329.378 6.50634 335.334 7.46169 335.334 6.67931C335.334 6.36086 339.515 6.16644 344.626 6.24823C349.736 6.32935 354.874 6.12621 356.043 5.79704C357.213 5.46786 358.014 5.45848 357.823 5.77625C357.632 6.09403 363.79 6.32399 371.508 6.28778C381.159 6.2422 385.544 5.9928 385.551 5.48998C385.557 5.02605 385.743 5.05354 386.06 5.56575C386.426 6.15773 392.543 6.46477 409.034 6.71819C421.396 6.90792 432.494 7.24715 433.698 7.47107C435.286 7.7674 435.756 7.66281 435.413 7.09028C435.068 6.51707 435.272 6.47349 436.158 6.93139C436.829 7.27732 439.432 7.62662 441.942 7.70707C444.453 7.78819 447.68 8.00808 449.115 8.19714C450.549 8.3862 452.016 8.51358 452.375 8.48006C452.733 8.44721 453.907 8.3158 454.983 8.18842C456.059 8.06104 457.224 8.12608 457.572 8.33257C457.921 8.53973 459.388 8.78443 460.832 8.8756C462.277 8.96745 465.513 9.19741 468.024 9.38647C470.534 9.57552 475.229 9.92414 478.456 10.1601C481.684 10.3968 486.131 10.7367 488.34 10.9157C490.637 11.1021 492.924 10.9278 493.685 10.5101C494.755 9.92146 495.14 10.0086 495.66 10.9559C496.177 11.8992 496.47 11.9669 497.129 11.2958C498.088 10.3197 499.249 10.1641 498.695 11.086C498.148 11.9951 503.759 13.0711 504.365 12.1734C504.682 11.7034 504.848 11.7463 504.854 12.3014C504.859 12.7627 505.597 13.1395 506.494 13.1395C508.555 13.1395 508.646 11.4976 506.657 10.2091C505.85 9.68681 503.429 9.04991 501.278 8.79448C499.126 8.53905 495.705 7.93702 493.675 7.45633C491.011 6.82546 489.787 6.78591 489.274 7.31353C488.766 7.83511 488.563 7.83646 488.563 7.31822C488.563 6.91865 487.829 6.44734 486.933 6.27102C486.036 6.0947 485.303 6.24756 485.303 6.61026C485.303 6.97296 484.855 6.88848 484.309 6.42187C483.763 5.95526 483.129 5.76486 482.902 5.99883C482.674 6.23214 482.161 6.14365 481.76 5.80173C481.359 5.45982 478.441 5.00862 475.275 4.79878C472.109 4.58894 469.329 4.29798 469.097 4.1525C468.865 4.00702 465.448 3.68119 461.503 3.42912C457.559 3.17637 453.157 2.8358 451.723 2.67154C450.288 2.50796 446.981 2.24515 444.373 2.08828C441.765 1.9314 439.342 1.61898 438.988 1.39439C438.634 1.1698 438.072 1.68401 437.74 2.53746C437.152 4.04389 437.133 4.04725 437.093 2.65076C437.055 1.2992 436.709 1.20802 431.307 1.1336C428.147 1.09002 423.379 0.881523 420.711 0.67034C413.141 0.0716557 405.89 -0.0302494 400.334 0.38407C397.532 0.593241 395.087 0.60665 394.9 0.41491C394.285 -0.216625 337.29 -0.0899171 337.29 0.542959C337.29 0.877498 336.958 0.939848 336.551 0.681736C335.819 0.216465 330.841 -0.121427 330.463 0.268757ZM456.939 5.09444C457.161 5.46317 457.195 5.76486 457.016 5.76486C456.837 5.76486 456.509 5.46317 456.287 5.09444C456.065 4.72571 456.031 4.42402 456.21 4.42402C456.389 4.42402 456.717 4.72571 456.939 5.09444ZM487.259 8.07177C487.259 8.23468 486.92 8.58263 486.506 8.84544C486.039 9.14243 485.93 9.0298 486.219 8.55045C486.683 7.77746 487.259 7.51264 487.259 8.07177Z" fill="#F23E16"/>
</svg>
