<svg width="24" height="24" viewBox="0 0 24 24" fill="none" xmlns="http://www.w3.org/2000/svg">
<path d="M12.0001 6.86511C10.9845 6.86511 9.99176 7.16627 9.14733 7.7305C8.30291 8.29473 7.64475 9.09669 7.25611 10.035C6.86746 10.9732 6.76577 12.0057 6.9639 13.0018C7.16203 13.9978 7.65108 14.9128 8.36921 15.6309C9.08734 16.349 10.0023 16.8381 10.9984 17.0362C11.9944 17.2344 13.0269 17.1327 13.9652 16.744C14.9034 16.3554 15.7054 15.6972 16.2696 14.8528C16.8339 14.0084 17.135 13.0156 17.135 12C17.135 11.3257 17.0022 10.6579 16.7442 10.0349C16.4861 9.41195 16.1079 8.84588 15.6311 8.36906C15.1543 7.89224 14.5882 7.514 13.9652 7.25596C13.3422 6.99791 12.6745 6.8651 12.0001 6.86511ZM12.0001 15.3336C11.3408 15.3336 10.6963 15.1381 10.1481 14.7718C9.59987 14.4054 9.1726 13.8848 8.92029 13.2757C8.66798 12.6665 8.60196 11.9963 8.73059 11.3496C8.85923 10.7029 9.17672 10.109 9.64294 9.64275C10.1092 9.17654 10.7031 8.85905 11.3498 8.73042C11.9965 8.6018 12.6667 8.66782 13.2759 8.92014C13.885 9.17245 14.4056 9.59973 14.7719 10.1479C15.1382 10.6962 15.3337 11.3407 15.3337 12C15.3338 12.4378 15.2476 12.8713 15.0801 13.2758C14.9126 13.6802 14.667 14.0478 14.3575 14.3573C14.0479 14.6669 13.6804 14.9124 13.2759 15.0799C12.8714 15.2474 12.4379 15.3336 12.0001 15.3336Z" fill="#005133"/>
<path d="M21.9395 7.87719C21.9231 7.04765 21.766 6.22691 21.475 5.44993C21.2235 4.78282 20.8299 4.17837 20.3215 3.67847C19.8224 3.16961 19.2181 2.77594 18.5509 2.525C17.774 2.23378 16.9532 2.07673 16.1236 2.06054C15.0574 2.012 14.7165 2 12.0008 2C9.28515 2 8.94402 2.01126 7.87718 2.06054C7.04765 2.07693 6.22691 2.23398 5.44993 2.525C4.78263 2.77617 4.17811 3.1698 3.67847 3.67847C3.16933 4.17771 2.77565 4.78235 2.52507 5.44993C2.23406 6.22692 2.07701 7.04765 2.06061 7.87719C2.01132 8.94341 2 9.28432 2 12C2 14.7157 2.01132 15.0565 2.06059 16.1228C2.07699 16.9523 2.23405 17.7731 2.52507 18.5501C2.77573 19.2176 3.1694 19.8222 3.67847 20.3215C4.17835 20.8299 4.7828 21.2234 5.44993 21.4749C6.22694 21.7659 7.04766 21.9229 7.87718 21.9394C8.94402 21.9879 9.28432 22 12 22C14.7157 22 15.0566 21.9887 16.1228 21.9394C16.9523 21.923 17.7731 21.766 18.5501 21.4749C19.2145 21.2181 19.8179 20.8252 20.3215 20.3215C20.8252 19.8178 21.2181 19.2145 21.475 18.5501C21.7663 17.7732 21.9234 16.9523 21.9395 16.1228C21.988 15.0558 21.9992 14.7157 21.9992 12C21.9992 9.28432 21.988 8.94341 21.9395 7.87719ZM20.1405 16.0413C20.1328 16.6754 20.0164 17.3035 19.7965 17.8983C19.63 18.3296 19.3751 18.7212 19.0482 19.048C18.7213 19.3748 18.3295 19.6295 17.8982 19.7957C17.3035 20.0162 16.6753 20.1326 16.0411 20.1397C14.987 20.1882 14.6705 20.1979 11.9999 20.1979C9.32943 20.1979 9.01371 20.1882 7.95994 20.1397C7.32576 20.1325 6.69756 20.0161 6.10286 19.7957C5.66851 19.6352 5.27552 19.3797 4.95262 19.0477C4.62021 18.7256 4.36456 18.3327 4.20462 17.8983C3.98414 17.3037 3.86778 16.6754 3.86062 16.0413C3.81212 14.9872 3.80247 14.6706 3.80247 12.0001C3.80247 9.32956 3.81296 9.01384 3.86062 7.95887C3.86861 7.32479 3.98495 6.69674 4.20462 6.10187C4.36513 5.66751 4.6207 5.27452 4.95262 4.95163C5.27495 4.61903 5.66811 4.36336 6.10286 4.20363C6.69754 3.98318 7.32575 3.86681 7.95994 3.85963C9.01401 3.81114 9.33062 3.80148 11.9999 3.80148C14.6693 3.80148 14.9862 3.81197 16.0411 3.85963C16.6752 3.86762 17.3033 3.98396 17.8982 4.20363C18.3297 4.36988 18.7215 4.6247 19.0484 4.95164C19.3754 5.27859 19.6302 5.67043 19.7965 6.10188C20.0169 6.69654 20.1333 7.32472 20.1405 7.95888C20.189 9.01388 20.1986 9.32962 20.1986 12.0001C20.1986 14.6705 20.189 14.9863 20.1405 16.0413H20.1405Z" fill="#005133"/>
<path d="M17.3387 5.46191H17.3382C17.0201 5.46197 16.7149 5.58842 16.49 5.81344C16.265 6.03846 16.1386 6.34363 16.1387 6.66181C16.1387 6.98 16.2651 7.28514 16.4901 7.51012C16.7151 7.7351 17.0203 7.86149 17.3385 7.86149C17.6566 7.86149 17.9618 7.7351 18.1868 7.51012C18.4118 7.28514 18.5382 6.98 18.5383 6.66181C18.5383 6.34363 18.4119 6.03846 18.187 5.81344C17.962 5.58842 17.6569 5.46197 17.3387 5.46191Z" fill="#005133"/>
</svg>
