<svg width="48" height="48" viewBox="0 0 48 48" fill="none" xmlns="http://www.w3.org/2000/svg">
<g clip-path="url(#clip0)">
<path d="M28.7365 3.3456C18.1373 0.473587 3.64052 7.44846 3.16185 19.3468C2.54642 18.663 1.86261 18.0475 1.1788 17.4321C0.631748 16.9534 -0.120445 17.4321 0.0163174 18.1159C0.494985 21.6034 2.54642 24.6121 4.803 27.2789C5.00814 27.5525 5.62357 27.5525 5.82872 27.2789C7.88015 24.6804 8.49558 21.4665 8.83749 18.3211C8.90587 17.774 8.15368 17.4321 7.74339 17.7056C6.85443 18.3211 5.69195 18.7997 4.73462 19.4835C5.69195 14.1498 8.15368 10.1837 13.0087 7.24332C17.6587 4.43969 23.2659 3.89264 28.5998 4.30293C29.1467 4.37131 29.2152 3.48236 28.7365 3.3456ZM1.79423 19.6203C2.2729 20.0306 2.68318 20.3725 3.16185 20.7828C3.23023 20.8512 3.29861 20.8512 3.36699 20.9196C3.43538 20.9879 3.57214 21.0563 3.7089 21.1247C3.84566 21.3982 4.18757 21.6034 4.52947 21.3298C5.41843 20.7828 6.30738 20.2357 7.19634 19.6887C6.85443 21.7401 6.37576 23.8599 5.21329 25.5695C3.77728 23.7916 2.47804 21.8085 1.79423 19.6203Z" fill="#F23E16"/>
<path d="M47.1311 32.1336C43.5069 33.2276 39.9511 34.5952 36.1901 35.3475C35.5747 35.4844 35.5747 36.51 36.1901 36.6466C37.8313 36.9203 39.404 37.3988 40.9768 37.6726C38.7202 39.4505 36.7372 41.0233 33.9335 42.1172C30.6512 43.3481 27.1638 43.8269 23.6764 43.69C16.2912 43.4849 9.79499 39.587 7.81194 32.2702C7.67518 31.7917 6.8546 31.86 6.92298 32.4071C7.74356 39.9974 14.4449 44.3054 21.5566 45.126C27.6426 45.8099 37.2158 44.579 41.7291 39.382C41.8659 40.818 42.3445 42.1856 43.1651 43.4166C43.5071 43.8951 44.0541 43.8951 44.3961 43.4166C46.5159 40.3393 46.9946 36.5101 47.9518 33.0225C48.1568 32.4756 47.6783 31.9968 47.1311 32.1336ZM43.0966 38.0827C43.0966 37.9459 43.0283 37.8091 42.9599 37.6725C43.3018 36.9885 42.4812 36.51 41.9341 36.9203L41.8658 36.9885C41.8658 36.9885 41.8658 36.9885 41.7974 36.9885C40.8401 36.7151 39.8827 36.3731 38.9255 36.0997C41.3871 35.4843 43.8488 34.5952 46.3106 33.843C45.6268 36.51 45.1482 39.2453 43.7804 41.6387C43.3701 40.5445 43.165 39.3819 43.0966 38.0827Z" fill="#F23E16"/>
<path d="M39.6773 8.9527C40.5663 7.99536 41.2501 6.90126 42.4126 6.21745C42.9596 5.94393 42.8911 5.05497 42.2073 4.91821C38.9934 4.16602 35.7111 4.16602 32.4973 4.16602C31.8135 4.16602 31.6083 4.91821 32.0186 5.39688C34.1384 7.92698 35.7112 10.799 37.2156 13.7394C37.5576 14.3548 38.5832 14.0813 38.5832 13.3975C38.5148 12.3034 38.6516 11.2777 38.72 10.1836C44.6009 14.2864 46.3104 21.8084 46.6522 28.5781C46.6522 29.1935 47.4728 29.1251 47.5411 28.5781C48.225 21.5348 45.7632 13.0556 39.6773 8.9527ZM38.3782 8.26888C38.3098 8.33727 38.2414 8.33727 38.2414 8.40565C38.0363 8.47403 37.8994 8.67917 37.831 8.81593C37.7627 8.88432 37.6943 8.9527 37.6943 9.08946C37.6259 9.70489 37.4891 10.3887 37.4207 11.0041C36.395 9.08946 35.3009 7.24317 34.0017 5.53364C36.1215 5.53364 38.3097 5.60202 40.3611 5.94393C39.6773 6.69612 39.062 7.51669 38.3782 8.26888Z" fill="#F23E16"/>
</g>
<defs>
<clipPath id="clip0">
<rect width="48" height="48" fill="white"/>
</clipPath>
</defs>
</svg>
