<svg width="97" height="109" viewBox="0 0 97 109" fill="none" xmlns="http://www.w3.org/2000/svg">
<path fill-rule="evenodd" clip-rule="evenodd" d="M52.4509 0.527325C52.1748 0.960048 51.9123 1.90417 51.8674 2.62538C51.7061 5.20283 51.1398 10.7753 50.9274 11.8752C50.8084 12.4915 50.9143 13.8998 51.1623 15.0044C51.4102 16.1095 51.4227 17.2577 51.1899 17.5561C50.9545 17.8583 51.286 19.0683 51.9379 20.2878C52.8048 21.9075 53.2615 22.3234 53.6952 21.8876C54.1295 21.4512 54.2819 21.4538 54.2819 21.8965C54.2819 22.2259 54.0309 22.6507 53.7245 22.8411C53.4176 23.0315 53.2928 23.5178 53.4468 23.9211C53.6018 24.3271 53.4118 24.6549 53.0214 24.6549C52.1931 24.6549 51.4613 26.9334 52.2077 27.1899C52.8774 27.4207 52.8659 28.851 52.1941 28.851C51.4869 28.851 51.5276 30.2887 52.2416 30.5279C52.6117 30.6517 52.8758 33.7604 52.9969 39.4231L53.1827 48.1279L50.9921 48.4332C49.7875 48.6015 48.3318 48.8077 47.7576 48.8916C47.1835 48.976 46.5645 49.2514 46.3818 49.5037C46.1991 49.756 45.4491 50.0287 44.7152 50.11C43.9814 50.1908 43.1264 50.4148 42.8159 50.6078C42.5053 50.8008 42.3159 50.666 42.3947 50.3083C42.5523 49.5928 40.4191 49.0306 37.5798 49.039C36.3991 49.0426 35.7989 49.2766 35.8835 49.7004C35.955 50.0607 35.7791 50.356 35.492 50.356C35.2049 50.356 34.9701 50.12 34.9701 49.8315C34.9701 48.9026 33.4851 49.2739 33.1668 50.2821C32.5932 52.0979 34.4095 54.8123 35.8568 54.3019C36.2045 54.1792 36.3663 54.3864 36.2206 54.7677C36.0437 55.2308 36.6053 55.5623 37.9436 55.7842C41.105 56.3098 43.8431 56.1865 43.8431 55.5198C43.8431 55.1506 44.2048 55.2429 44.7695 55.7564C45.4908 56.4126 46.3557 56.5306 48.6841 56.2888C51.632 55.983 52.5397 55.3814 50.7588 54.9135C50.0004 54.7147 49.9879 54.6633 50.6878 54.613C51.1508 54.5794 52.1435 55.1684 52.893 55.9221C53.9849 57.0194 54.1504 57.491 53.7229 58.2929C53.4296 58.8437 53.32 59.5056 53.4786 59.7642C53.6373 60.0223 53.5287 60.8646 53.237 61.6362C52.8335 62.702 52.9264 63.6608 53.6237 65.6335C54.2125 67.2999 54.3545 68.3625 54.0199 68.6028C53.3816 69.0607 53.0042 75.5326 53.6159 75.5326C54.2793 75.5326 54.3482 78.0518 53.6963 78.4568C53.3027 78.7017 53.3377 78.9419 53.8106 79.2357C54.3404 79.5645 54.3618 79.9349 53.9071 80.8748C52.9645 82.8218 52.6185 86.4273 53.3508 86.6727C53.9087 86.8595 54.1973 90.497 53.7777 92.0548C53.6999 92.3432 53.6676 93.5234 53.7062 94.6773C53.761 96.3248 53.8967 96.6065 54.3393 95.9886C54.7898 95.3592 54.8252 95.4116 54.5168 96.2509C54.3043 96.8278 54.1149 97.7127 54.0945 98.2178C54.0747 98.7229 53.8737 99.1357 53.6483 99.1357C53.4228 99.1357 53.238 100.08 53.238 101.234C53.238 102.388 53.4729 103.332 53.76 103.332C54.047 103.332 54.2819 103.932 54.2819 104.665C54.2819 106.168 56.0127 108.336 56.8154 107.837C57.1046 107.658 57.4887 107.751 57.6693 108.044C58.2894 109.052 59.4001 108.574 60.3917 106.872C61.2796 105.35 61.314 104.922 60.7169 102.868C60.3495 101.602 60.1647 100.379 60.3062 100.149C60.8918 99.1971 61.4701 94.6406 61.0677 94.1533C60.3985 93.3435 60.7644 88.8573 61.5797 87.8702C62.1418 87.1894 62.1611 86.9025 61.6658 86.5951C61.2342 86.3271 61.1371 85.5062 61.3662 84.0664C61.5593 82.8522 61.4393 81.1239 61.0875 80.0523C60.7472 79.0175 60.3719 75.0396 60.2534 71.2133C60.1344 67.3864 59.8495 62.6286 59.6208 60.6396C59.1495 56.5489 59.6177 55.5686 61.8391 55.9951C62.6721 56.155 63.5563 55.9232 64.1424 55.3903C64.9916 54.6177 65.1633 54.6109 65.7537 55.3258C66.4651 56.187 67.8524 56.4157 67.8524 55.6719C67.8524 55.4223 69.5549 55.267 71.6365 55.3268C76.3125 55.4611 76.977 55.2245 79.749 52.4394C81.7861 50.3922 82.354 50.9172 80.4766 53.1129C80.0439 53.6195 79.8503 54.1954 80.0465 54.3927C80.2427 54.5899 83.0111 54.7997 86.1981 54.859C89.7045 54.924 92.132 55.192 92.345 55.5382C92.5381 55.8524 93.4233 56.2557 94.3117 56.4346C95.8838 56.7503 95.9365 56.6979 96.2815 54.4755C96.4762 53.2193 96.7606 51.7491 96.9141 51.2083C97.0947 50.5721 96.9887 50.3518 96.614 50.5842C96.2804 50.7914 95.8316 50.4053 95.5544 49.6726C95.0325 48.2936 93.9051 47.5992 91.8617 47.3988C89.0208 47.1203 87.314 46.8402 86.8584 46.579C85.7242 45.9276 83.3624 45.6286 82.8081 46.066C82.4767 46.3272 81.795 46.5738 81.2924 46.6131C80.7897 46.6524 80.0856 46.7128 79.7265 46.7468C79.368 46.7815 78.6633 46.6377 78.1607 46.4285C77.6581 46.2192 77.2473 46.2501 77.2473 46.4972C77.2478 46.7442 76.1236 46.9178 74.7498 46.8822C72.6334 46.8276 72.2518 46.9677 72.2518 47.8001C72.2518 48.4872 72.6276 48.7825 73.504 48.7825C74.5985 48.7825 74.7274 48.9807 74.5264 50.356C74.3693 51.4297 74.5165 51.9296 74.9889 51.9296C75.3699 51.9296 75.6815 52.2978 75.6815 52.7473C75.6815 53.2713 75.4471 53.4171 75.0291 53.1538C74.6705 52.9277 73.9852 52.8071 73.5066 52.8863C72.6135 53.0337 71.72 51.2813 72.2492 50.42C72.4084 50.1619 72.1887 49.6589 71.7612 49.3023C71.3337 48.9456 70.984 48.3288 70.984 47.9317C70.984 47.1198 68.1008 46.9052 67.6232 47.6815C67.4635 47.9412 66.2422 48.0398 64.9097 47.9002C63.5772 47.7607 62.3438 47.8572 62.1684 48.1142C61.9821 48.388 60.8792 48.3833 59.5118 48.1032C57.175 47.6244 57.174 47.6233 58.3149 46.6949C58.9428 46.1835 59.3385 45.6469 59.1939 45.5011C59.0493 45.3558 58.8306 43.1434 58.708 40.5843C58.5853 38.0258 58.2085 34.5157 57.8708 32.7848C57.5331 31.054 57.2335 28.0747 57.2048 26.1644C57.1667 23.6169 56.9788 22.7577 56.5002 22.9418C56.1416 23.0803 55.8477 22.8144 55.8477 22.3507C55.8477 21.8871 56.2084 21.5078 56.6489 21.5078C57.3055 21.5078 57.3426 21.3054 56.8535 20.3869C56.5252 19.7701 56.3811 18.4935 56.5336 17.5488C56.686 16.6047 56.6531 15.6732 56.46 15.4791C56.2668 15.2845 56.0753 12.3724 56.0341 9.0066C55.9928 5.64132 55.8623 2.48166 55.7444 1.98495C55.4787 0.865636 54.8038 0.133941 54.8038 0.964244C54.8038 1.94089 53.3335 1.67129 53.1336 0.658453C52.9776 -0.132511 52.8831 -0.150869 52.4509 0.527325ZM54.6384 42.0624C54.4719 42.4805 54.3482 42.3561 54.3231 41.7451C54.3007 41.1923 54.4239 40.8828 54.5972 41.0569C54.7704 41.2311 54.7892 41.6837 54.6384 42.0624ZM76.9143 47.9957C77.1174 48.5281 76.8877 48.7825 76.2034 48.7825C75.5192 48.7825 75.2895 48.5281 75.4926 47.9957C75.658 47.563 75.978 47.2089 76.2034 47.2089C76.4289 47.2089 76.7489 47.563 76.9143 47.9957ZM8.09009 49.1496C7.51596 49.285 6.75288 49.7749 6.39378 50.238C5.79825 51.0075 5.74135 51.0033 5.74135 50.1939C5.74135 49.2215 4.94748 49.0007 4.4365 49.8315C4.25904 50.12 3.54085 50.356 2.83988 50.356C2.13892 50.356 1.56582 50.592 1.56582 50.8805C1.56582 51.169 1.21351 51.405 0.782912 51.405C0.35231 51.405 0 51.7591 0 52.1918C0 52.9057 0.626852 53.2146 1.71092 53.0357C1.93431 52.999 2.25061 53.3185 2.41346 53.7465C2.67182 54.422 2.93853 54.4283 4.44746 53.7947C5.93865 53.1684 6.22467 53.1705 6.46842 53.8089C6.81081 54.7042 8.94764 54.7918 9.79058 53.9447C10.2045 53.5288 10.6069 53.5052 11.0693 53.8692C12.0647 54.6533 14.0496 55.0462 14.3711 54.5227C14.5262 54.2715 15.1681 54.2647 15.807 54.5086C16.4427 54.7509 18.1839 54.8312 19.6756 54.6864C22.36 54.4268 22.3897 54.4042 22.5463 52.5254C22.6564 51.2026 22.9853 50.5737 23.6304 50.4504C24.4331 50.2978 24.5125 50.5501 24.227 52.3471C23.8543 54.6864 24.4686 55.4281 26.0668 54.5684C26.7177 54.2185 26.9979 53.6736 26.821 53.1018C26.56 52.2563 26.5819 52.2574 27.13 53.1139C27.4541 53.6211 27.5903 54.2453 27.4332 54.5012C26.9797 55.2387 28.7631 55.6824 29.5487 55.0273C29.9391 54.7021 31.0435 54.528 32.0034 54.6402C33.7169 54.8416 33.7388 54.8186 33.2012 53.3872C32.9001 52.5857 32.47 51.9296 32.2461 51.9296C32.0216 51.9296 31.8384 51.5755 31.8384 51.1428C31.8384 50.7101 31.4861 50.356 31.0555 50.356C30.6249 50.356 30.2726 49.9731 30.2726 49.5053C30.2726 48.8082 30.1312 48.772 29.4897 49.307C28.9062 49.7937 28.7068 49.8021 28.7068 49.34C28.7068 48.4232 27.6551 49.2419 27.1644 50.5406C26.75 51.6374 26.7208 51.629 26.0751 50.2291C25.5699 49.1344 25.2494 48.9257 24.7332 49.3563C24.36 49.6673 23.7995 49.7633 23.4874 49.5692C23.1752 49.3752 22.3177 49.6128 21.5818 50.0974C20.6141 50.7347 20.0864 50.8197 19.6735 50.4048C18.84 49.5672 18.2726 49.703 18.2351 50.7494C18.2079 51.4926 18.1171 51.457 17.7564 50.5601C17.2251 49.2378 15.6295 48.505 15.1128 49.3453C14.8461 49.779 14.6467 49.7843 14.3878 49.3631C13.9077 48.5816 12.0047 48.6209 12.0047 49.4119C12.0047 49.9013 11.8653 49.9013 11.3783 49.4119C10.7416 48.772 9.96073 48.7096 8.09009 49.1496ZM79.857 49.307C79.857 49.5955 79.7537 49.8315 79.6269 49.8315C79.5 49.8315 79.2516 49.5955 79.0741 49.307C78.8967 49.0185 79.0005 48.7825 79.3043 48.7825C79.6081 48.7825 79.857 49.0185 79.857 49.307ZM68.2089 50.9791C68.0424 51.3972 67.9187 51.2729 67.8936 50.6618C67.8712 50.109 67.9943 49.7995 68.1676 49.9736C68.3409 50.1478 68.3597 50.6004 68.2089 50.9791ZM88.2003 51.5362C88.1935 52.4903 88.0954 52.5658 87.6861 51.9296C87.0322 50.9125 87.0322 50.356 87.6861 50.356C87.9732 50.356 88.2044 50.8873 88.2003 51.5362ZM48.6449 53.608C48.158 54.0974 48.0186 53.9578 48.0186 52.9786C48.0186 51.9993 48.158 51.8598 48.6449 52.3492C49.1319 52.8385 49.1319 53.1186 48.6449 53.608ZM31.5775 52.9786C31.7549 53.2671 31.6651 53.5031 31.3781 53.5031C31.091 53.5031 30.711 53.2671 30.5336 52.9786C30.3561 52.6901 30.4459 52.4541 30.733 52.4541C31.02 52.4541 31.4 52.6901 31.5775 52.9786ZM63.6768 54.0276C63.6768 54.3161 63.4279 54.5521 63.1241 54.5521C62.8203 54.5521 62.7165 54.3161 62.8939 54.0276C63.0714 53.7391 63.3198 53.5031 63.4467 53.5031C63.5735 53.5031 63.6768 53.7391 63.6768 54.0276Z" fill="#F23E16"/>
</svg>
