<svg width="16" height="16" viewBox="0 0 16 16" fill="none" xmlns="http://www.w3.org/2000/svg">
<path d="M8.00029 4.57674C7.32323 4.57674 6.66138 4.77751 6.09843 5.15366C5.53547 5.52981 5.09671 6.06445 4.83761 6.68997C4.57851 7.31549 4.51072 8.00379 4.6428 8.66784C4.77489 9.33189 5.10093 9.94186 5.57968 10.4206C6.05843 10.8994 6.6684 11.2254 7.33244 11.3575C7.99649 11.4896 8.68479 11.4218 9.31031 11.1627C9.93583 10.9036 10.4705 10.4648 10.8466 9.90186C11.2228 9.33891 11.4235 8.67705 11.4235 8C11.4236 7.55045 11.335 7.10529 11.163 6.68996C10.991 6.27463 10.7388 5.89725 10.4209 5.57937C10.103 5.26149 9.72566 5.00933 9.31032 4.8373C8.89499 4.66527 8.44984 4.57673 8.00029 4.57674ZM8.00029 10.2224C7.56074 10.2224 7.13106 10.092 6.76559 9.84783C6.40012 9.60363 6.11527 9.25654 5.94706 8.85044C5.77885 8.44435 5.73485 7.9975 5.8206 7.5664C5.90635 7.13529 6.11802 6.7393 6.42883 6.42849C6.73964 6.11769 7.13564 5.90603 7.56674 5.82028C7.99784 5.73453 8.4447 5.77854 8.85079 5.94675C9.25688 6.11496 9.60396 6.39982 9.84816 6.76529C10.0924 7.13077 10.2227 7.56045 10.2227 8C10.2227 8.29186 10.1653 8.58086 10.0536 8.85051C9.94192 9.12016 9.77822 9.36517 9.57184 9.57154C9.36547 9.77792 9.12046 9.94162 8.85081 10.0533C8.58116 10.165 8.29215 10.2224 8.00029 10.2224Z" fill="#E0B472"/>
<path d="M14.6266 5.25146C14.6157 4.69843 14.511 4.15127 14.3169 3.63328C14.1493 3.18854 13.8869 2.78557 13.548 2.45231C13.2152 2.11307 12.8123 1.85062 12.3676 1.68333C11.8496 1.48918 11.3024 1.38448 10.7494 1.37369C10.0385 1.34133 9.81129 1.33333 8.00084 1.33333C6.19038 1.33333 5.96297 1.34083 5.25174 1.37369C4.69872 1.38462 4.15156 1.48932 3.63357 1.68333C3.1887 1.85078 2.78569 2.1132 2.4526 2.45231C2.11317 2.78513 1.85072 3.18823 1.68366 3.63328C1.48966 4.15127 1.38496 4.69843 1.37402 5.25146C1.34116 5.96227 1.33362 6.18954 1.33362 8C1.33362 9.81045 1.34116 10.0377 1.37401 10.7485C1.38494 11.3015 1.48965 11.8487 1.68366 12.3667C1.85077 12.8117 2.11322 13.2148 2.4526 13.5477C2.78585 13.8866 3.18882 14.149 3.63357 14.3166C4.15158 14.5106 4.69872 14.6153 5.25174 14.6263C5.96297 14.6586 6.18983 14.6667 8.00029 14.6667C9.81074 14.6667 10.038 14.6591 10.7488 14.6263C11.3018 14.6153 11.849 14.5106 12.367 14.3166C12.8099 14.1454 13.2122 13.8835 13.548 13.5477C13.8838 13.2119 14.1457 12.8096 14.3169 12.3667C14.5112 11.8488 14.6159 11.3016 14.6266 10.7485C14.6589 10.0372 14.6664 9.81045 14.6664 8C14.6664 6.18954 14.6589 5.96227 14.6266 5.25146ZM13.4273 10.6942C13.4221 11.1169 13.3446 11.5357 13.1979 11.9322C13.087 12.2197 12.917 12.4808 12.6991 12.6986C12.4811 12.9165 12.22 13.0863 11.9324 13.1972C11.536 13.3441 11.1172 13.4217 10.6944 13.4265C9.99165 13.4588 9.78059 13.4653 8.00025 13.4653C6.2199 13.4653 6.00942 13.4588 5.30691 13.4265C4.88412 13.4217 4.46533 13.3441 4.06886 13.1972C3.77929 13.0901 3.5173 12.9198 3.30203 12.6985C3.08042 12.4837 2.90999 12.2218 2.80336 11.9322C2.65638 11.5358 2.5788 11.117 2.57403 10.6942C2.5417 9.99145 2.53526 9.78038 2.53526 8.00004C2.53526 6.2197 2.54226 6.00922 2.57403 5.30591C2.57936 4.88319 2.65692 4.46449 2.80336 4.06791C2.91037 3.77834 3.08075 3.51634 3.30203 3.30108C3.51692 3.07935 3.77902 2.9089 4.06886 2.80241C4.46531 2.65545 4.88412 2.57787 5.30691 2.57308C6.00962 2.54076 6.2207 2.53431 8.00025 2.53431C9.77979 2.53431 9.99106 2.54131 10.6944 2.57308C11.1171 2.57841 11.5358 2.65597 11.9324 2.80241C12.2201 2.91325 12.4813 3.08312 12.6992 3.30109C12.9172 3.51906 13.0871 3.78028 13.1979 4.06791C13.3449 4.46435 13.4225 4.88314 13.4273 5.30591C13.4596 6.00925 13.466 6.21974 13.466 8.00005C13.466 9.78036 13.4596 9.99085 13.4273 10.6942H13.4273Z" fill="#E0B472"/>
<path d="M11.5593 3.64133H11.5591C11.3469 3.64137 11.1435 3.72566 10.9935 3.87568C10.8436 4.02569 10.7593 4.22914 10.7593 4.44126C10.7594 4.65338 10.8436 4.85681 10.9936 5.0068C11.1436 5.15679 11.3471 5.24105 11.5592 5.24105C11.7713 5.24105 11.9748 5.15679 12.1248 5.0068C12.2748 4.85681 12.359 4.65338 12.3591 4.44126C12.3591 4.22914 12.2748 4.02569 12.1249 3.87568C11.9749 3.72566 11.7715 3.64137 11.5593 3.64133Z" fill="#E0B472"/>
</svg>
