<svg width="152" height="144" viewBox="0 0 152 144" fill="none" xmlns="http://www.w3.org/2000/svg">
<path fill-rule="evenodd" clip-rule="evenodd" d="M3.39698 0.663221C3.17091 1.02799 3.30323 1.32644 3.69019 1.32644C4.07716 1.32644 4.39431 1.02799 4.39431 0.663221C4.39431 0.298449 4.26266 0 4.10109 0C3.93952 0 3.62304 0.298449 3.39698 0.663221ZM1.92092 5.26133C1.86773 5.967 2.21613 6.86831 2.69552 7.26492C3.36174 7.81672 3.65827 7.63765 3.95548 6.5042C4.17622 5.6639 3.99538 4.80039 3.53793 4.51057C2.31121 3.73261 2.02664 3.86459 1.92092 5.26133ZM3.60509 14.3806C4.08447 14.5723 4.65827 14.5484 4.87901 14.3282C5.09976 14.108 4.70747 13.9515 4.00668 13.98C3.23208 14.0119 3.07451 14.169 3.60509 14.3806ZM3.61971 18.3533C1.93754 18.7977 1.51068 20.5598 3.08514 20.5598C4.63832 20.5598 4.77796 21.4068 3.41094 22.5382C2.68089 23.1424 2.6011 23.6757 3.10176 24.6088C3.60176 25.5406 3.55455 25.8656 2.91825 25.8656C2.44618 25.8656 1.72478 26.9341 1.31521 28.2393C0.702176 30.1938 0.742067 30.6786 1.54193 30.985C2.25868 31.2596 2.40031 31.956 2.08116 33.6505C1.8305 34.9849 1.90496 35.7874 2.25935 35.5685C2.59445 35.3623 3.4362 35.6216 4.13035 36.1455C6.12236 37.6497 6.31717 37.3818 6.258 33.2174C6.21545 30.1984 5.99404 29.3747 5.29856 29.6407C4.77995 29.839 4.39431 29.5558 4.39431 28.9761C4.39431 28.4203 4.70482 27.8626 5.08447 27.7365C5.46412 27.6099 5.9568 25.347 6.17821 22.7067C6.60042 17.6821 6.54124 17.5813 3.61971 18.3533ZM2.19618 38.2274C1.48741 38.935 2.39366 39.7932 3.84977 39.7932C4.99404 39.7932 5.08447 39.6281 4.39431 38.7984C3.5007 37.724 2.86573 37.5595 2.19618 38.2274ZM2.94219 42.3811C2.40164 43.0105 1.91626 44.6679 1.86374 46.0646C1.81121 47.4607 1.63036 48.7407 1.46148 48.9085C1.29259 49.077 1.46813 50.0048 1.85177 50.9705C2.68288 53.0643 3.01998 60.4041 2.26334 59.9372C1.97278 59.7582 1.73475 60.2012 1.73475 60.9221C1.73475 61.6424 2.02265 62.3315 2.37371 62.4535C2.7773 62.5928 2.75801 63.6732 2.32052 65.3863C1.76999 67.5404 1.84313 68.6135 2.67823 70.6071C3.25668 71.9873 3.72942 73.835 3.72942 74.7145C3.72942 75.5932 4.17822 76.4839 4.72676 76.6935C5.83047 77.116 6.11438 79.5865 5.0592 79.5865C3.26533 79.5865 5.08713 86.3049 7.40028 88.2196C8.49403 89.1256 8.76397 90.5104 7.72076 89.8677C7.28858 89.6011 7.26863 89.9911 7.66424 90.9892C8.55785 93.2462 10.5465 97.1121 11.0093 97.4934C11.2314 97.6758 11.9588 99.0613 12.6263 100.571C13.7972 103.223 18.7613 108.592 19.7599 108.288C20.0285 108.206 21.2007 109.027 22.365 110.112C23.5292 111.197 24.7293 112.084 25.0318 112.084C25.335 112.084 25.6775 112.903 25.7931 113.902C25.9328 115.113 26.4474 115.793 27.333 115.937C28.8151 116.178 32.3357 117.578 35.1993 119.065C36.2346 119.603 38.2545 120.043 39.6874 120.043C41.2292 120.043 42.2931 120.359 42.2931 120.817C42.2931 121.242 42.4586 121.425 42.6614 121.223C42.8635 121.021 44.1355 121.395 45.4872 122.052C47.7039 123.132 47.9819 123.145 48.3269 122.192C48.6547 121.285 48.7784 121.314 49.194 122.394C49.6029 123.457 49.7751 123.501 50.297 122.677C50.7265 122 50.9194 121.958 50.9267 122.541C50.9327 123.048 51.6667 123.325 52.7844 123.24C53.8003 123.163 54.9765 123.312 55.3981 123.571C55.8223 123.833 57.0004 123.268 58.0383 122.303L59.9127 120.563L60.1228 122.293C60.3528 124.179 61.8621 124.634 62.4891 123.004C62.8355 122.104 63.0802 122.117 64.6114 123.118C65.9811 124.013 66.4525 124.071 66.8701 123.398C67.2936 122.714 67.4605 122.724 67.7138 123.45C67.9645 124.168 68.3042 124.11 69.3634 123.175C70.4492 122.214 71.0416 122.125 72.5482 122.697C74.4385 123.413 77.249 122.889 80.7995 121.157C82.0548 120.545 82.4651 120.555 82.6832 121.204C83.1439 122.572 85.5123 122.145 86.0887 120.589L86.6246 119.146L87.003 120.589C87.3042 121.74 87.8746 122.033 89.8141 122.033C91.1525 122.033 92.8081 121.733 93.493 121.367C94.3254 120.923 94.8753 120.923 95.1505 121.367C95.3773 121.733 96.1804 122.033 96.9344 122.033C98.0887 122.033 98.1731 121.872 97.4657 121.022C96.2589 119.571 97.1013 119.098 98.4663 120.459C99.3919 121.383 99.8526 121.452 100.864 120.823C102.276 119.943 105.216 119.78 105.696 120.554C105.983 121.018 109.468 121.09 111.109 120.667C111.475 120.573 112.301 120.725 112.946 121.007C113.621 121.301 114.513 121.191 115.048 120.748C115.657 120.244 116.12 120.209 116.392 120.648C116.655 121.072 117.385 121.099 118.378 120.723C119.242 120.396 120.132 120.311 120.357 120.536C120.583 120.76 123.141 121.048 126.043 121.176C130.822 121.387 131.39 121.279 132.055 120.04C133.359 117.61 131.708 114.622 128.154 112.986C123.94 111.046 108.754 110.189 106.357 111.756C105.139 112.552 104.035 112.647 101.191 112.202C97.1379 111.568 93.6253 111.879 92.2177 112.997C91.5136 113.556 91.2091 113.535 90.9989 112.913C90.6432 111.859 80.7776 111.765 79.7344 112.806C79.3361 113.203 77.1027 113.59 74.7703 113.665C72.4385 113.741 70.1613 114.031 69.7098 114.309C69.2584 114.588 68.6134 114.646 68.2776 114.439C67.9412 114.231 67.2145 114.512 66.6626 115.063C65.3116 116.41 63.7517 116.448 64.8681 115.106C65.5184 114.325 65.4246 114.167 64.3575 114.247C63.5835 114.305 63.1852 114.695 63.3814 115.205C63.791 116.269 61.1866 116.383 60.5337 115.329C60.2105 114.807 59.9319 114.833 59.5696 115.418C59.1766 116.052 58.7059 115.993 57.5097 115.157C55.6108 113.83 54.2611 113.764 54.2611 114.998C54.2611 115.506 53.8123 116.093 53.2638 116.304C52.6654 116.533 52.2664 116.308 52.2664 115.741C52.2664 114.745 50.7119 114.382 43.9553 113.803C39.2545 113.399 32.968 111.363 30.5398 109.457C29.5917 108.714 28.2473 108.105 27.5524 108.105C25.851 108.105 23.0112 106.186 23.0112 105.035C23.0112 103.634 21.7047 101.773 17.8583 97.6964C15.9381 95.6616 14.3677 93.5924 14.3677 93.0983C14.3677 92.6035 13.7693 91.8262 13.0379 91.3706C12.0465 90.7525 11.7081 89.824 11.7081 87.7169C11.7081 86.1636 11.4222 84.8922 11.0731 84.8922C10.7241 84.8922 10.236 83.7734 9.9887 82.4052C9.74069 81.0376 9.26796 79.3961 8.93751 78.7575C8.54256 77.9941 8.58578 77.5968 9.0645 77.5968C9.46477 77.5968 9.60373 77.2937 9.37434 76.923C9.14429 76.5522 8.73871 76.3831 8.47209 76.5476C8.20546 76.7114 7.55321 76.5721 7.02196 76.2366C6.29058 75.7749 6.2693 75.6251 6.93419 75.6171C7.62368 75.6091 7.71012 74.5758 7.33712 70.7988C7.07648 68.1539 6.82182 64.9459 6.77129 63.6692C6.72143 62.3925 6.41159 60.9181 6.08446 60.3922C5.70016 59.7761 5.76664 59.3443 6.2713 59.1765C7.22874 58.8582 7.32315 55.7105 6.37502 55.7105C5.94749 55.7105 5.81651 54.0498 6.02196 51.2338C6.59177 43.3978 5.28792 39.6487 2.94219 42.3811ZM0.404968 54.0525C0.404968 54.5996 0.704169 55.0473 1.06986 55.0473C1.43555 55.0473 1.73475 54.5996 1.73475 54.0525C1.73475 53.5053 1.43555 53.0577 1.06986 53.0577C0.704169 53.0577 0.404968 53.5053 0.404968 54.0525ZM105.458 88.54C105.458 89.0871 105.757 89.5348 106.123 89.5348C106.488 89.5348 106.787 89.0871 106.787 88.54C106.787 87.9928 106.488 87.5451 106.123 87.5451C105.757 87.5451 105.458 87.9928 105.458 88.54ZM110.112 91.8561C110.112 92.4032 110.635 92.8555 111.275 92.8608C112.172 92.8688 112.234 93.0008 111.547 93.4352C110.802 93.9061 110.801 94.2344 111.54 95.4149C112.573 97.0643 113.436 97.2553 113.436 95.8354C113.436 95.2882 113.736 94.8406 114.101 94.8406C115.585 94.8406 114.629 92.8801 112.669 91.9045C110.105 90.6284 110.112 90.6284 110.112 91.8561ZM114.097 96.5099C113.272 98.6746 113.714 99.4831 115.725 99.4831C116.711 99.4831 117.396 99.9633 117.618 100.808C118.047 102.446 120.742 103.567 121.769 102.536C122.17 102.133 122.867 101.207 123.319 100.478C124.079 99.2483 124.106 99.2722 123.698 100.81C122.955 103.602 123.011 103.75 125.194 104.782C126.358 105.333 127.453 106.306 127.625 106.944C127.985 108.275 130.428 108.516 130.983 107.276C131.188 106.82 131.328 107.044 131.295 107.773C131.195 109.994 131.352 110.286 132.251 109.543C132.898 109.007 133.419 109.235 134.339 110.457C135.698 112.262 136.469 112.503 136.888 111.255C137.041 110.8 137.039 111.247 136.884 112.25C136.64 113.831 136.825 114.074 138.272 114.074C139.358 114.074 140.09 114.538 140.364 115.4C140.596 116.13 141.087 116.727 141.454 116.727C142.725 116.727 144.113 118.709 143.716 119.957C143.428 120.864 142.475 121.296 140.202 121.552C138.487 121.744 136.974 122.23 136.84 122.631C136.706 123.031 136.194 123.359 135.702 123.359C135.21 123.359 134.412 123.752 133.929 124.232C132.109 126.041 129.394 127.507 129.394 126.682C129.394 125.834 126.101 128.629 126.081 129.494C126.075 129.768 126.481 129.991 126.985 129.991C127.489 129.991 128.398 130.662 129.005 131.483C129.728 132.46 130.231 132.701 130.461 132.18C130.711 131.613 131.295 131.567 132.486 132.019C134.238 132.683 135.652 132.296 135.045 131.318C134.85 131.003 135.029 130.538 135.441 130.284C135.854 130.03 136.42 130.19 136.699 130.641C137.06 131.223 137.337 131.247 137.661 130.725C137.911 130.322 138.825 129.991 139.692 129.991C140.558 129.991 141.715 129.544 142.264 128.996C142.813 128.449 143.807 127.992 144.473 127.98C145.138 127.969 146.265 127.521 146.974 126.986C147.684 126.45 148.795 126.012 149.444 126.012C150.626 126.012 152 124.181 152 122.607C152 121.935 151.834 121.933 151.169 122.596C150.712 123.052 150.338 123.758 150.338 124.166C150.338 124.573 149.964 125.031 149.507 125.183C148.568 125.495 148.343 123.592 149.277 123.248C150.642 122.748 150.192 119.578 148.352 116.727C145.863 112.868 142.665 109.431 141.564 109.431C141.087 109.431 140.697 108.835 140.697 108.105C140.697 106.696 138.989 106.251 138.556 107.547C138.233 108.512 135.378 106.2 135.378 104.973C135.378 104.507 134.816 104.126 134.129 104.126C133.443 104.126 132.51 103.68 132.057 103.135C131.527 102.497 130.549 102.265 129.316 102.482C127.898 102.73 127.399 102.556 127.399 101.814C127.399 101.261 126.918 100.81 126.331 100.81C125.682 100.81 125.404 100.44 125.624 99.8698C125.904 99.1415 125.471 98.9936 123.7 99.2132C121.761 99.4533 121.415 99.2941 121.415 98.1633C121.415 97.3217 120.974 96.8302 120.218 96.8302C119.56 96.8302 118.737 96.5656 118.39 96.2413C118.043 95.9176 117.085 95.4501 116.263 95.202C115.053 94.8379 114.639 95.0873 114.097 96.5099ZM25.6708 109.431C25.6708 109.796 25.3537 110.095 24.9667 110.095C24.5797 110.095 24.4474 109.796 24.6735 109.431C24.8995 109.067 25.216 108.768 25.3776 108.768C25.5392 108.768 25.6708 109.067 25.6708 109.431ZM145.351 122.696C145.351 123.061 145.052 123.359 144.686 123.359C144.32 123.359 144.021 123.061 144.021 122.696C144.021 122.331 144.32 122.033 144.686 122.033C145.052 122.033 145.351 122.331 145.351 122.696ZM132.718 129.367C132.718 129.711 132.419 129.991 132.053 129.991C131.688 129.991 131.388 129.526 131.388 128.957C131.388 128.389 131.688 128.108 132.053 128.333C132.419 128.559 132.718 129.024 132.718 129.367ZM123.979 129.166C123.283 129.314 123.005 129.845 123.212 130.633C123.585 132.057 121.42 133.522 119.837 132.916C118.611 132.447 114.209 136.615 114.623 137.853C114.779 138.319 114.276 138.865 113.506 139.066C112.492 139.331 112.107 139.957 112.107 141.344C112.107 142.395 112.481 143.29 112.938 143.332C113.395 143.374 114.218 143.449 114.766 143.498C115.641 143.576 118.091 141.29 118.091 140.395C118.091 140.213 117.492 140.22 116.761 140.41C115.843 140.651 115.431 140.431 115.431 139.701C115.431 138.843 115.748 138.766 117.136 139.293C119.405 140.153 119.42 140.148 119.42 138.566C119.42 137.291 119.499 137.271 120.513 138.282C121.256 139.024 122.158 139.234 123.333 138.94C125.448 138.411 126.126 137.414 125.653 135.532C125.43 134.647 125.672 133.884 126.286 133.537C127.16 133.043 127.147 132.732 126.176 130.955C125.495 129.707 124.654 129.023 123.979 129.166ZM123.41 134.302C123.41 134.849 122.961 135.297 122.412 135.297C120.682 135.297 121.243 133.99 123.243 133.36C123.335 133.331 123.41 133.755 123.41 134.302Z" fill="#F23E16"/>
</svg>
