<svg width="33" height="262" viewBox="0 0 33 262" fill="none" xmlns="http://www.w3.org/2000/svg">
<path fill-rule="evenodd" clip-rule="evenodd" d="M30.9316 244.604C29.8287 244.675 29.5251 244.784 29.635 245.072C29.734 245.331 29.5759 245.446 29.1216 245.446C28.3746 245.446 28.2559 245.837 28.8936 246.195C29.216 246.377 29.2767 246.645 29.1383 247.277C28.9678 248.058 28.4647 248.475 28.4647 247.836C28.4647 247.68 28.3474 247.625 28.2043 247.714C28.0609 247.803 27.7255 247.759 27.4584 247.615C27.0859 247.415 26.8989 247.474 26.6526 247.87C26.4717 248.161 26.0357 248.386 25.6513 248.386C25.0923 248.386 25.0006 248.481 25.1389 248.919C25.2682 249.328 25.2105 249.414 24.8899 249.29C24.5824 249.172 24.4291 249.348 24.3073 249.96C24.195 250.524 23.9865 250.791 23.6582 250.791C23.3922 250.791 23.0072 251.031 22.8029 251.324C22.5986 251.617 22.3462 251.771 22.2416 251.666C22.1373 251.561 22.1309 251.682 22.2275 251.935C22.3563 252.272 22.2658 252.394 21.8875 252.394C21.6039 252.394 21.2147 252.689 21.0229 253.05C20.8303 253.411 20.3329 253.78 19.9139 253.872C19.3305 254.001 19.1538 254.192 19.1538 254.694C19.1538 255.151 18.9469 255.426 18.463 255.611C18.0831 255.756 17.7101 256.114 17.634 256.406C17.5231 256.831 17.2696 256.937 16.3622 256.937C15.2074 256.937 14.4274 256.416 14.7639 255.869C14.8621 255.71 15.1714 255.652 15.4518 255.742C15.9408 255.898 16.1446 255.607 15.7937 255.254C15.4923 254.951 15.5003 253.196 15.803 253.192C15.9634 253.19 15.9216 253.078 15.7104 252.944C15.4412 252.772 15.1823 252.866 14.8458 253.256C14.5817 253.562 14.3654 253.713 14.3654 253.592C14.3654 253.471 14.5596 253.156 14.7966 252.893C15.3295 252.302 15.0991 251.593 14.3736 251.593C13.9887 251.593 13.8333 251.418 13.8333 250.984C13.8333 250.649 13.5822 250.159 13.2755 249.895C12.9312 249.599 12.7687 249.218 12.8514 248.901C12.9368 248.573 12.8498 248.386 12.6112 248.386C12.4056 248.386 12.2372 248.206 12.2372 247.985C12.2372 247.765 12.1188 247.584 11.9741 247.584C11.4074 247.584 10.641 246.628 10.641 245.922C10.641 245.188 9.84055 244.11 9.2952 244.11C9.14037 244.11 9.09887 243.971 9.20315 243.802C9.3077 243.632 9.27924 243.564 9.13984 243.651C8.82167 243.848 8.46414 243.596 8.08611 242.908C7.85068 242.479 7.4676 242.358 6.15743 242.294C5.06991 242.241 4.52243 242.102 4.52243 241.881C4.52243 241.693 4.20746 241.552 3.80283 241.559C3.26732 241.568 3.03588 241.742 2.89835 242.24C2.79646 242.607 2.70149 242.758 2.68686 242.574C2.65174 242.133 1.33012 242.14 1.33012 242.581C1.33012 242.769 1.58125 243.139 1.88798 243.402C2.21519 243.684 2.39369 244.084 2.31947 244.369C2.23594 244.689 2.39343 244.948 2.77943 245.124C3.10372 245.273 3.48014 245.793 3.62114 246.288C3.77809 246.838 4.14681 247.314 4.5783 247.522C4.9643 247.709 5.43809 248.22 5.63123 248.658C5.82436 249.096 6.138 249.455 6.32821 249.455C6.51842 249.455 6.64505 249.605 6.60967 249.789C6.55327 250.083 6.95471 251.02 7.89777 252.795C8.48196 253.895 9.13904 255.474 9.09275 255.668C9.06641 255.778 9.23827 255.868 9.47503 255.868C9.79373 255.868 9.87114 256.047 9.77404 256.557C9.68413 257.029 9.81422 257.406 10.1867 257.754C10.5594 258.103 10.7376 258.619 10.7522 259.395C10.7698 260.308 10.8964 260.588 11.4085 260.845C11.7575 261.021 12.1196 261.289 12.2132 261.441C12.3667 261.691 13.4718 261.783 15.4864 261.714C16.0078 261.696 16.2994 261.483 16.5364 260.945C16.7168 260.536 17.011 260.257 17.1903 260.327C17.3699 260.396 17.7652 260.203 18.0693 259.897C18.3731 259.592 18.7335 259.342 18.87 259.342C19.0065 259.342 19.1972 259.092 19.294 258.785C19.4321 258.348 19.6127 258.264 20.1312 258.395C20.6963 258.537 20.7686 258.486 20.6287 258.043C20.5026 257.645 20.6537 257.442 21.2828 257.164C21.733 256.966 22.1692 256.533 22.2525 256.202C22.3462 255.83 22.6063 255.601 22.9359 255.601C23.377 255.601 23.4382 255.482 23.2929 254.901C23.1331 254.26 23.1743 254.215 23.775 254.366C24.3374 254.508 24.4563 254.421 24.5989 253.769C24.7284 253.176 25.0006 252.928 25.8173 252.657C26.3953 252.466 26.8686 252.148 26.8686 251.951C26.8686 251.754 27.0482 251.593 27.2676 251.593C27.4871 251.593 27.6667 251.412 27.6667 251.192C27.6667 250.971 27.7864 250.791 27.9327 250.791C28.079 250.791 28.1987 250.612 28.1987 250.392C28.1987 250.173 28.4381 249.844 28.7308 249.66C29.0234 249.476 29.2647 249.085 29.2668 248.789C29.2689 248.494 29.4264 247.803 29.6169 247.255C29.8981 246.443 30.029 246.318 30.3171 246.586C30.6041 246.854 30.6403 246.827 30.5076 246.449C30.3873 246.106 30.4836 245.981 30.8672 245.981C31.1553 245.981 31.391 245.861 31.391 245.714C31.391 245.567 31.5568 245.446 31.7589 245.446C31.9614 245.446 32.1822 245.236 32.2492 244.979C32.3567 244.568 32.1963 244.522 30.9316 244.604ZM27.2961 173.296C26.8223 173.296 26.5855 172.687 26.8758 172.215C27.19 171.704 26.962 171.451 26.3363 171.615C25.6704 171.79 25.6425 171.304 26.2913 170.839C26.9779 170.347 27.1732 169.364 26.6824 168.871C26.32 168.507 26.2408 168.514 25.9261 168.943C25.6196 169.359 25.6451 169.432 26.1259 169.511C26.6536 169.597 26.6499 169.615 26.0413 169.918C25.6044 170.136 25.3794 170.504 25.3222 171.097C25.2706 171.63 25.0926 171.96 24.8566 171.96C24.281 171.96 24.3977 172.524 25.0064 172.684C25.299 172.761 25.5385 172.99 25.5385 173.193C25.5385 173.396 25.718 173.563 25.9375 173.563C26.6611 173.563 26.353 174.002 25.4299 174.287C24.7021 174.512 24.4432 174.486 24.116 174.157C23.75 173.79 23.7101 173.862 23.7239 174.87C23.7324 175.488 23.9107 176.165 24.12 176.375C24.3291 176.585 24.4752 176.911 24.444 177.098C24.4132 177.284 24.4799 177.768 24.593 178.172C24.7436 178.712 24.9673 178.907 25.4342 178.907C26.1892 178.907 26.1977 178.954 25.6364 180.045C25.348 180.605 25.2998 180.921 25.493 180.985C25.6614 181.042 25.721 181.398 25.6342 181.833C25.5504 182.254 25.6138 182.664 25.7776 182.766C25.9388 182.865 26.0705 183.167 26.0705 183.435C26.0705 184.005 26.9593 184.321 27.3783 183.9C27.5369 183.741 27.6571 183.244 27.6457 182.795C27.6342 182.347 27.5642 182.131 27.4906 182.314C27.4166 182.498 27.2338 182.649 27.0841 182.649C26.9343 182.649 26.8806 182.468 26.9649 182.248C27.0689 181.975 26.9505 181.847 26.5943 181.847C26.2065 181.847 26.0705 181.665 26.0705 181.146C26.0705 180.584 26.1423 180.505 26.4342 180.749C27.021 181.238 27.3746 180.531 27.2442 179.13C27.1806 178.447 27.2402 177.594 27.3764 177.235C27.6023 176.638 27.564 176.587 26.9412 176.656C26.5659 176.697 26.1737 176.869 26.0703 177.037C25.7457 177.565 25.0578 176.621 25.2043 175.849C25.3006 175.344 25.4996 175.166 25.9686 175.166C26.3171 175.166 26.6026 175.286 26.6026 175.433C26.6026 175.58 26.4829 175.701 26.3365 175.701C26.1902 175.701 26.0705 175.818 26.0705 175.962C26.0705 176.121 26.331 176.104 26.7356 175.919C27.4807 175.578 27.5408 175.414 27.0878 174.959C26.8478 174.718 26.8787 174.529 27.2208 174.149C27.7638 173.547 27.7859 173.296 27.2961 173.296ZM27.0814 184.573C26.6547 184.144 25.7108 184.155 25.8758 184.587C25.9463 184.772 25.8393 185.077 25.6382 185.266C25.3318 185.553 25.2724 185.434 25.2724 184.53C25.2724 183.936 25.1437 183.45 24.9865 183.45C24.829 183.45 24.7335 183.12 24.7744 182.715C24.8641 181.824 24.3916 180.9 23.9774 181.157C23.8117 181.26 23.6763 181.874 23.6763 182.522C23.6763 183.44 23.7611 183.668 24.061 183.552C24.3847 183.427 24.3964 183.535 24.1354 184.229C23.9652 184.682 23.7489 185.054 23.6547 185.054C23.5608 185.054 23.5411 185.354 23.6111 185.722C23.6965 186.169 23.6186 186.391 23.3749 186.394C23.0695 186.397 23.0689 186.435 23.3722 186.628C23.6239 186.788 23.6438 186.913 23.4387 187.04C23.0716 187.268 23.0527 187.726 23.4103 187.726C23.5566 187.726 23.6763 187.551 23.6763 187.338C23.6763 187.125 23.8383 186.855 24.0362 186.737C24.2344 186.619 24.4643 186.343 24.5473 186.122C24.6675 185.803 24.7026 185.817 24.7194 186.189C24.7441 186.74 25.2724 186.831 25.2724 186.285C25.2724 186.08 25.452 185.843 25.6715 185.758C26.1293 185.582 26.2006 185.885 25.7968 186.291C25.609 186.479 25.6324 186.777 25.8707 187.239C26.1535 187.786 26.2796 187.847 26.5435 187.563C26.7223 187.371 26.8686 186.812 26.8686 186.321C26.8686 185.83 26.9883 185.307 27.1346 185.16C27.3121 184.982 27.2942 184.786 27.0814 184.573ZM26.5334 166.168C26.352 166.054 26.024 165.99 25.8045 166.025C25.585 166.062 25.2549 165.848 25.0708 165.551C24.8729 165.233 24.8457 165.012 25.0043 165.012C25.4134 165.012 25.3238 164.02 24.8997 163.856C24.5792 163.733 24.2879 164.176 24.1112 165.056C24.0916 165.154 23.9865 165.323 23.8782 165.433C23.51 165.802 24.2695 166.348 25.1525 166.348C25.6882 166.348 26.0652 166.494 26.1176 166.722C26.1897 167.036 26.257 167.038 26.5334 166.736C26.796 166.45 26.796 166.334 26.5334 166.168ZM26.3448 160.757C26.1221 160.409 25.0064 160.94 25.0064 161.396C25.0064 161.622 25.236 161.805 25.5209 161.805C25.8819 161.805 26.0631 162.024 26.1288 162.54C26.2014 163.112 26.2514 163.02 26.3541 162.127C26.4265 161.495 26.4225 160.879 26.3448 160.757ZM26.4469 164.41C26.3615 164.324 26.0649 164.449 25.7877 164.687C25.4238 165 25.3719 165.175 25.6018 165.318C26.1168 165.638 26.867 164.832 26.4469 164.41ZM25.4055 113.862C25.0397 113.77 24.7404 113.53 24.7404 113.33C24.7404 112.842 23.4097 112.593 23.236 113.048C23.1634 113.238 23.3062 113.704 23.5537 114.084C23.9096 114.629 24.2195 114.773 25.037 114.773C26.2299 114.773 26.4879 114.135 25.4055 113.862ZM25.6928 116.109C25.4826 116.109 25.1147 115.913 24.8753 115.672C24.5489 115.345 24.3642 115.311 24.1362 115.54C23.908 115.77 23.9458 115.96 24.2863 116.302C24.5704 116.588 24.7404 116.637 24.7404 116.434C24.7404 115.888 25.2299 116.074 25.3203 116.654L25.4055 117.199L25.7401 116.654C26.0176 116.203 26.0096 116.109 25.6928 116.109ZM25.8401 118.937C25.6547 118.822 25.4313 118.8 25.3435 118.889C25.1054 119.128 25.4555 119.389 25.8412 119.259C26.1115 119.169 26.1115 119.106 25.8401 118.937ZM25.6909 120.118C25.4443 120.118 25.2724 120.346 25.2724 120.674C25.2724 121.326 25.8941 121.234 26.0234 120.563C26.0745 120.299 25.9388 120.118 25.6909 120.118ZM25.8045 128.669C25.6582 128.669 25.5366 128.458 25.5345 128.201C25.5321 127.944 25.4033 127.553 25.2482 127.333C24.9974 126.977 24.9782 126.977 25.0761 127.333C25.1365 127.553 24.9976 127.873 24.7673 128.044C24.3903 128.322 24.3988 128.41 24.8516 128.912C25.4387 129.564 26.0705 129.645 26.0705 129.07C26.0705 128.849 25.9508 128.669 25.8045 128.669ZM25.9048 130.807C25.7683 130.807 25.4517 131.047 25.2011 131.341C24.9506 131.635 24.8455 131.876 24.9678 131.876C25.0899 131.876 25.4068 131.635 25.6715 131.341C25.9362 131.047 26.0413 130.807 25.9048 130.807ZM25.2879 167.237C24.0352 166.762 23.6957 167.631 24.9157 168.189C25.481 168.448 25.6675 168.443 25.8428 168.165C26.1777 167.635 26.1312 167.557 25.2879 167.237ZM25.4238 188.076C25.2254 187.901 24.9987 187.823 24.92 187.902C24.6739 188.149 25.0455 188.795 25.4339 188.795C25.8981 188.795 25.8939 188.491 25.4238 188.076ZM25.1394 112.004C24.92 112.089 24.7404 112.206 24.7404 112.263C24.7404 112.321 24.92 112.368 25.1394 112.368C25.3589 112.368 25.5385 112.252 25.5385 112.109C25.5385 111.967 25.3589 111.92 25.1394 112.004ZM24.7404 163.183C24.3746 163.183 24.2248 163.244 24.4079 163.318C24.5906 163.392 24.8899 163.392 25.0729 163.318C25.2557 163.244 25.1062 163.183 24.7404 163.183ZM24.6015 179.645C24.0663 179.747 23.9921 179.848 24.2349 180.142C24.672 180.671 25.2724 180.596 25.2724 180.013C25.2724 179.626 25.1243 179.544 24.6015 179.645ZM24.497 111.447C24.3584 111.361 24.1751 111.405 24.0894 111.544C24.0038 111.683 24.0471 111.867 24.1857 111.953C24.3243 112.039 24.5076 111.996 24.5933 111.857C24.6789 111.717 24.6356 111.533 24.497 111.447ZM24.5627 117.178C24.4704 117.399 24.2629 117.679 24.1019 117.8C23.9138 117.942 23.9516 117.982 24.2083 117.911C24.4278 117.851 24.6353 117.572 24.6691 117.29C24.7127 116.93 24.6811 116.897 24.5627 117.178ZM24.4236 192.103C24.2493 191.995 24.0596 192.048 24.0024 192.221C23.8641 192.638 23.2206 192.625 23.0676 192.202C22.9766 191.95 22.8229 191.941 22.447 192.162C21.908 192.479 21.5949 193.872 22.0626 193.872C22.2185 193.872 22.3462 193.746 22.3462 193.591C22.3462 193.235 24.1461 192.466 24.4861 192.677C24.626 192.764 24.7404 192.714 24.7404 192.567C24.7404 192.42 24.5978 192.212 24.4236 192.103ZM24.2083 124.26C24.062 124.351 23.9423 124.478 23.9423 124.543C23.9423 124.608 24.062 124.661 24.2083 124.661C24.3547 124.661 24.4744 124.533 24.4744 124.378C24.4744 124.222 24.3547 124.169 24.2083 124.26ZM24.2969 125.641C24.1996 125.542 23.8247 125.462 23.4643 125.462C22.8439 125.462 22.8162 125.527 22.9455 126.678C23.1187 128.221 23.2722 128.361 23.9269 127.571C24.4533 126.936 24.6364 125.981 24.2969 125.641ZM23.4768 106.974C22.1671 106.66 21.5098 107.767 22.6444 108.377C23.0168 108.577 23.1488 108.584 23.033 108.395C22.9365 108.239 23.1017 107.957 23.3999 107.77C24.065 107.353 24.0873 107.121 23.4768 106.974ZM23.7369 109.629C23.6154 109.058 23.1442 109.005 23.1442 109.562C23.1442 109.783 23.0357 109.963 22.9032 109.963C22.7705 109.963 22.7247 110.204 22.8011 110.498C23.099 111.642 23.9899 110.815 23.7369 109.629ZM23.7721 123.057C23.5656 123.057 22.8984 123.913 22.8867 124.193C22.8705 124.577 23.6204 124.39 23.7808 123.971C23.9899 123.424 23.9862 123.057 23.7721 123.057ZM23.5433 126.798C23.3217 126.798 23.1442 126.561 23.1442 126.264C23.1442 125.967 23.3217 125.73 23.5433 125.73C23.7649 125.73 23.9423 125.967 23.9423 126.264C23.9423 126.561 23.7649 126.798 23.5433 126.798ZM23.3602 119.377C23.1865 119.436 22.9971 119.626 22.9391 119.801C22.8742 119.996 22.9961 120.056 23.2549 119.956C23.7385 119.769 23.8391 119.217 23.3602 119.377ZM22.9681 190.732C22.7614 190.217 22.4603 190.336 22.4603 190.932C22.4603 191.226 22.614 191.467 22.8021 191.467C23.1575 191.467 23.1956 191.299 22.9681 190.732ZM21.7476 81.3701C21.5146 81.3701 21.4249 80.8862 21.4483 79.7523C21.4707 78.6602 21.3565 78.0092 21.0969 77.7481C20.8851 77.5357 20.8322 77.3617 20.9791 77.3617C21.38 77.3617 21.6423 76.2805 21.3198 75.9567C21.1222 75.7581 20.92 75.7731 20.6399 76.0064C20.4207 76.1894 20.0943 76.2477 19.9147 76.1362C19.6822 75.9917 19.7364 75.8813 20.1025 75.7522C20.3856 75.6526 20.6274 75.4628 20.6399 75.3306C20.6526 75.1985 20.7559 74.8779 20.8697 74.6181C20.9833 74.3586 21.0195 73.8474 20.9501 73.4824C20.8806 73.1174 20.9338 72.8189 21.0687 72.8189C21.2033 72.8189 21.2395 72.6986 21.149 72.5517C21.0586 72.4047 20.7524 72.2844 20.4683 72.2844C20.1842 72.2844 19.9519 72.4047 19.9519 72.5517C19.9519 72.6986 19.7724 72.8189 19.5529 72.8189C19.3334 72.8189 19.1539 72.9993 19.1539 73.2197C19.1539 73.4402 18.9743 73.6206 18.7548 73.6206C18.2252 73.6206 18.244 73.1863 18.7825 72.979C19.0341 72.8817 19.1443 72.6449 19.0512 72.401C18.94 72.1102 19.1366 71.9023 19.713 71.7003L20.5329 71.4133L19.9977 70.8756C19.5675 70.4435 19.5215 70.2431 19.7636 69.8535C19.9293 69.5873 19.9737 69.2779 19.8625 69.1662C19.5822 68.8843 18.807 69.4078 18.4984 70.0871C18.0075 71.1691 16.2238 71.0352 16.621 69.9462C16.6881 69.7626 16.5633 69.6122 16.3438 69.6122C16.0533 69.6122 15.9618 69.8663 16.0076 70.5475C16.0422 71.0619 16.1736 71.4828 16.2999 71.4828C16.426 71.4828 16.4542 71.7209 16.3622 72.0119C16.1494 72.6856 16.4947 73.305 17.3108 73.7138C18.1368 74.1275 18.3877 75.0876 17.6045 74.8381C16.9453 74.6277 16.6008 75.1106 17.0352 75.6365C17.2616 75.9104 17.2685 76.0256 17.0581 76.0256C16.894 76.0256 16.7596 76.3342 16.7596 76.7116C16.7596 77.2754 16.8541 77.3676 17.2901 77.2287C17.6896 77.1012 17.7825 77.1584 17.667 77.4609C17.5827 77.6819 17.3441 77.797 17.1366 77.7171C16.9078 77.629 16.7596 77.7404 16.7596 78.0012C16.7596 78.2374 16.8793 78.4306 17.0256 78.4306C17.172 78.4306 17.2935 78.8213 17.2957 79.2991C17.302 80.6213 17.6125 80.9556 18.5244 80.6221C18.9437 80.4688 19.0903 80.3338 18.8498 80.3223C18.3257 80.2969 18.0573 79.7176 18.3494 79.2427C18.5106 78.9806 18.6202 79.01 18.82 79.3681C18.9956 79.6834 19.1406 79.7374 19.2659 79.5337C19.3677 79.3681 19.7136 79.2304 20.0341 79.2283C20.5079 79.2248 20.5422 79.1757 20.218 78.9651C19.8769 78.7438 19.8865 78.7053 20.2845 78.7019C20.5683 78.6995 20.75 78.8991 20.75 79.2133C20.75 79.7534 20.0945 80.5684 19.6604 80.5684C19.5207 80.5684 19.293 80.8691 19.1539 81.2365C19.0147 81.6039 18.7325 81.9046 18.5263 81.9046C18.1023 81.9046 17.7974 82.7656 18.0663 83.2027C18.164 83.3615 18.1749 84.2171 18.0905 85.104C18.006 85.9912 18.0371 86.8969 18.1594 87.1165C18.4079 87.5625 19.1783 87.6472 19.5662 87.2715C19.7208 87.1216 19.9705 87.1932 20.2092 87.4559C20.5555 87.8367 20.5489 87.8656 20.1504 87.7122C19.8995 87.6154 19.5303 87.7108 19.3135 87.9284C19.1004 88.1427 18.7976 88.318 18.6407 88.318C18.0429 88.318 18.364 89.4032 19.0381 89.6608C19.9163 89.9961 19.9519 89.9919 19.9519 89.5517C19.9519 89.1215 21.1062 88.7399 21.2376 89.1266C21.3813 89.5483 21.8141 89.4243 21.8141 88.9609C21.8141 88.7268 21.5747 88.4722 21.2821 88.3955C20.6327 88.2247 20.6066 87.8893 21.1967 87.2969C21.6146 86.8768 21.6133 86.8424 21.177 86.7582C20.9016 86.7047 20.77 86.5134 20.8551 86.2905C20.9407 86.0661 20.8333 85.9129 20.5896 85.9129C20.0424 85.9129 19.3169 85.1904 19.7263 85.0533C19.9474 84.9793 19.941 84.7887 19.7024 84.3409C19.5234 84.0044 19.4457 83.6602 19.5297 83.5758C19.7819 83.3225 20.75 84.355 20.75 84.8772C20.75 85.5541 21.3438 85.2556 21.7535 84.3724C22.0458 83.7431 22.0296 83.5972 21.6361 83.3083C21.2113 82.9962 21.211 82.9735 21.6303 82.9735C21.9527 82.9735 22.0801 82.7466 22.0801 82.1718C22.0801 81.7087 21.9397 81.3701 21.7476 81.3701ZM20.3185 82.1718C19.965 82.1718 19.9466 82.0994 20.218 81.7709C20.4002 81.5505 20.5944 81.3701 20.6494 81.3701C20.7048 81.3701 20.75 81.5505 20.75 81.7709C20.75 81.9914 20.5558 82.1718 20.3185 82.1718ZM20.0677 66.3911C19.8578 66.216 19.6771 66.1177 19.6662 66.1725C19.4608 67.2056 19.4712 67.4744 19.716 67.4744C19.8772 67.4744 19.9362 67.6649 19.8471 67.8977C19.7452 68.1641 19.8072 68.2801 20.0142 68.2106C20.4832 68.0537 20.521 66.7689 20.0677 66.3911ZM19.9519 238.098C19.8056 238.007 19.6859 238.06 19.6859 238.216C19.6859 238.371 19.8056 238.499 19.9519 238.499C20.0982 238.499 20.2179 238.446 20.2179 238.381C20.2179 238.316 20.0982 238.189 19.9519 238.098ZM20.0317 238.935C19.5755 238.477 17.825 240.784 18.181 241.374C18.2464 241.483 18.1328 241.727 17.9288 241.916C17.6234 242.2 17.5577 242.188 17.5577 241.849C17.5577 241.623 17.4619 241.438 17.3449 241.438C17.0493 241.438 16.4936 242.025 16.4936 242.338C16.4936 242.48 16.5691 242.52 16.6615 242.427C16.754 242.335 17.061 242.383 17.3435 242.535C17.7075 242.731 17.966 242.721 18.2281 242.502C18.4319 242.333 18.7263 242.273 18.8828 242.37C19.0392 242.467 19.1499 242.448 19.1288 242.326C18.9942 241.548 19.2052 240.904 19.5941 240.904C19.99 240.904 19.986 240.85 19.5529 240.369C19.1453 239.917 19.1347 239.835 19.4832 239.835C19.9091 239.835 20.2956 239.2 20.0317 238.935ZM18.8213 83.2367C18.5651 83.2388 18.3558 83.1204 18.3558 82.9735C18.3558 82.8265 18.745 82.7081 19.2204 82.7103C19.8764 82.7135 19.9886 82.7768 19.6859 82.9735C19.4664 83.1159 19.0775 83.2343 18.8213 83.2367ZM19.7702 227.76C19.6933 227.952 19.7029 228.183 19.7912 228.272C19.8796 228.36 19.9423 228.203 19.9309 227.921C19.9181 227.61 19.8551 227.546 19.7702 227.76ZM19.2273 62.2635C19.1555 61.9696 18.9764 61.5802 18.8296 61.3985C18.6825 61.2165 18.6279 60.8958 18.7083 60.6855C18.8056 60.4309 18.5449 60.1791 17.9283 59.932C16.7857 59.4742 14.6261 59.8606 14.6399 60.5204C14.6516 61.0837 15.2787 61.8619 15.7248 61.8667C16.0203 61.8701 16.0145 61.9217 15.6955 62.1243C15.1621 62.4629 15.1611 65.1744 15.6939 66.3387C16.1382 67.3092 16.3502 67.3894 16.9307 66.8063C17.1501 66.5859 17.505 66.4055 17.7192 66.4055C18.031 66.4055 18.0496 66.5161 17.8125 66.9608C17.65 67.266 17.3656 67.4576 17.1807 67.3862C16.7099 67.2048 16.1217 67.6206 16.3422 67.9789C16.4428 68.1425 16.7104 68.2761 16.9371 68.2761C17.2441 68.2761 17.3066 68.4468 17.1823 68.9441C17.036 69.5299 17.1017 69.6122 17.7144 69.6122C18.3435 69.6122 18.3954 69.5387 18.2318 68.8773C18.132 68.4733 17.9394 68.1024 17.804 68.0535C17.6686 68.0043 17.5577 67.8461 17.5577 67.7013C17.5577 67.3723 18.6827 67.7037 18.9503 68.1117C19.0903 68.3252 19.1469 68.3194 19.1499 68.0914C19.152 67.9164 19.0238 67.6925 18.8647 67.5936C18.7056 67.495 18.6356 67.1826 18.7093 66.8996C18.7929 66.5792 18.6008 66.1415 18.2004 65.7393C17.4409 64.9764 17.3805 64.5731 18.0232 64.555C19.285 64.5194 19.3978 64.4585 19.1302 63.9558C18.9551 63.6274 18.9599 63.466 19.1445 63.466C19.4303 63.466 19.4502 63.1745 19.2273 62.2635ZM18.8346 71.0018C18.6638 70.8302 18.6125 70.6012 18.7205 70.493C18.8285 70.3845 19.0235 70.4692 19.1539 70.6811C19.4608 71.1803 19.2366 71.4055 18.8346 71.0018ZM18.9453 234.899C18.7463 234.822 18.6247 234.489 18.6745 234.157C18.7263 233.809 18.5473 233.356 18.2496 233.084C17.753 232.63 17.721 232.643 17.3241 233.466C17.0435 234.048 17.0062 234.35 17.2071 234.417C17.3688 234.472 17.4353 234.769 17.3544 235.079C17.2456 235.497 17.298 235.587 17.5569 235.426C17.799 235.276 17.8421 235.313 17.6976 235.548C17.4156 236.006 18.0799 236.385 18.6391 236.084C18.8836 235.953 19.1339 235.895 19.1948 235.957C19.256 236.018 19.3057 235.836 19.3057 235.553C19.3057 235.27 19.1435 234.975 18.9453 234.899ZM18.9333 244.285C18.3268 243.734 17.663 243.716 17.4606 244.246C17.376 244.468 17.015 244.783 16.6585 244.946C16.1089 245.198 16.0131 245.422 16.0283 246.427C16.0387 247.119 16.1331 247.47 16.2555 247.272C16.3704 247.085 16.5431 247.01 16.6388 247.106C16.9809 247.45 16.4196 247.9 15.7974 247.78C15.4486 247.713 15.1635 247.758 15.1635 247.879C15.1635 248.168 16.2305 248.739 16.4183 248.551C16.6314 248.337 17.5577 248.89 17.5577 249.231C17.5577 249.421 17.1946 249.465 16.5215 249.357C15.3188 249.164 14.9073 249.65 15.6982 250.331C16.0935 250.67 16.2124 250.682 16.3236 250.39C16.4053 250.177 16.6835 250.089 17.0094 250.175C17.3824 250.273 17.5577 250.191 17.5577 249.92C17.5577 249.7 17.7333 249.374 17.9477 249.195C18.3552 248.855 18.4385 247.05 18.0466 247.05C17.924 247.05 17.8237 246.869 17.8237 246.649C17.8237 246.13 18.0227 246.143 18.5742 246.697C18.9921 247.116 19.0264 247.116 19.1068 246.697C19.1959 246.233 18.5864 245.446 18.1371 245.446C17.9961 245.446 17.8117 245.266 17.7274 245.046C17.5577 244.602 17.9634 244.491 18.222 244.911C18.3119 245.057 18.6181 245.301 18.9027 245.454C19.3297 245.684 19.4199 245.645 19.4199 245.23C19.4199 244.954 19.2009 244.529 18.9333 244.285ZM18.8634 58.5835C18.7125 58.3233 18.464 58.188 18.3108 58.2829C18.1358 58.3917 18.0937 58.2626 18.1975 57.9345C18.3196 57.5478 18.0185 57.059 17.0288 56.0385C16.2954 55.2822 15.6955 54.5327 15.6955 54.3726C15.6955 54.2125 15.791 54.1409 15.9078 54.2133C16.0246 54.2858 16.2938 54.2328 16.5064 54.0955C16.8243 53.89 16.8299 53.8053 16.5375 53.6156C16.342 53.4889 16.197 53.2786 16.2153 53.1479C16.2337 53.0175 16.0044 52.8721 15.7062 52.8251C15.1975 52.7452 14.9052 51.9753 15.3835 51.9753C15.5045 51.9753 15.5505 51.6146 15.4862 51.1736C15.4218 50.7327 15.2132 50.372 15.0225 50.372C14.8317 50.372 14.6359 50.26 14.587 50.1235C14.5383 49.9866 14.2659 50.0468 13.982 50.2571C13.5327 50.5895 13.524 50.6392 13.9155 50.6392C14.1629 50.6392 14.3617 50.7295 14.3569 50.8396C14.3417 51.2017 13.6479 51.9753 13.3385 51.9753C12.9406 51.9753 12.9531 51.6351 13.3678 51.1937C13.6362 50.908 13.6234 50.8629 13.3013 50.9607C12.6354 51.163 12.6365 52.2578 13.3026 52.4328C13.8442 52.575 13.8682 52.6928 13.7107 54.4437C13.5114 56.6601 13.8855 58.1215 14.6522 58.1215C15.2233 58.1215 15.31 58.4018 14.8743 58.8395C14.4678 59.2479 14.8889 59.3956 15.8285 59.1744C16.4611 59.0255 16.5024 58.9798 16.0281 58.9547C15.2768 58.9152 15.2409 58.4553 15.9799 58.3406L16.5303 58.2551L15.953 57.6362C15.1363 56.76 15.5394 56.5556 16.3928 57.4128C16.7809 57.8027 17.1823 58.1215 17.2853 58.1215C17.3882 58.1215 17.6269 58.4523 17.816 58.8564C18.0049 59.2604 18.2113 59.4477 18.2749 59.2722C18.3382 59.0969 18.5619 59.0194 18.7721 59.1004C19.2198 59.273 19.2299 59.2158 18.8634 58.5835ZM18.3558 243.041C17.8591 243.041 17.7883 243.113 18.0365 243.362C18.2847 243.611 18.4268 243.611 18.675 243.362C18.9232 243.113 18.8524 243.041 18.3558 243.041ZM17.9567 62.9316C17.7373 62.9316 17.5577 63.1119 17.5577 63.3324C17.5577 63.5529 17.4337 63.7332 17.2824 63.7332C17.0956 63.7332 17.0985 63.5611 17.2917 63.1988C17.4484 62.9048 17.4675 62.6643 17.3342 62.6643C17.2012 62.6643 17.0762 62.3939 17.0565 62.0631C17.0371 61.7323 16.9921 61.1612 16.9567 60.7938C16.9147 60.3547 17.0267 60.1257 17.2837 60.1257C17.7764 60.1257 18.3467 61.2317 18.3518 62.1967C18.3544 62.6734 18.2156 62.9316 17.9567 62.9316ZM17.9916 239.19C17.7697 239.276 17.5662 239.095 17.4702 238.726C17.3837 238.393 17.2281 238.206 17.1243 238.31C16.8559 238.58 17.5779 239.835 18.0017 239.835C18.1964 239.835 18.3558 239.658 18.3558 239.442C18.3558 239.22 18.198 239.111 17.9916 239.19ZM17.3356 248.475C16.7258 248.315 16.6716 247.837 17.2417 247.645C17.4156 247.587 17.5577 247.73 17.5577 247.963C17.5577 248.196 17.6974 248.386 17.8681 248.386C18.0387 248.386 18.1233 248.441 18.056 248.509C17.9887 248.577 17.6644 248.561 17.3356 248.475ZM17.5399 81.2255C17.384 81.1285 17.1991 81.1066 17.1294 81.1766C17.0597 81.2467 17.1874 81.3752 17.4132 81.4623C17.882 81.643 17.9645 81.489 17.5399 81.2255ZM17.6476 230.415C17.5737 230.599 17.5737 230.9 17.6476 231.083C17.7213 231.267 17.7817 231.117 17.7817 230.749C17.7817 230.382 17.7213 230.231 17.6476 230.415ZM17.2738 239.957C17.118 239.86 16.9264 239.845 16.8482 239.924C16.6577 240.115 16.9935 240.636 17.3074 240.636C17.6473 240.636 17.6247 240.175 17.2738 239.957ZM17.2999 247.05C17.1584 247.05 17.1113 246.869 17.1954 246.649C17.2797 246.429 17.3957 246.248 17.4531 246.248C17.5106 246.248 17.5577 246.429 17.5577 246.649C17.5577 246.869 17.4417 247.05 17.2999 247.05ZM16.9238 72.5517C16.8676 72.5517 16.7652 72.2548 16.696 71.8916C16.6269 71.5287 16.6729 71.2952 16.7979 71.3729C17.0185 71.5098 17.1294 72.5517 16.9238 72.5517ZM16.1744 61.1144C16.0036 60.9429 15.9522 60.7139 16.0602 60.6056C16.1682 60.4971 16.3632 60.5819 16.4936 60.7938C16.8006 61.2929 16.5763 61.5182 16.1744 61.1144ZM16.3906 243.758C16.1318 243.658 16.0618 243.769 16.1557 244.13C16.3098 244.722 16.7596 244.828 16.7596 244.273C16.7596 244.068 16.5936 243.836 16.3906 243.758ZM16.4936 252.929C16.3473 252.929 16.2276 253.049 16.2276 253.196C16.2276 253.343 16.3473 253.463 16.4936 253.463C16.6399 253.463 16.7596 253.343 16.7596 253.196C16.7596 253.049 16.6399 252.929 16.4936 252.929ZM15.7798 63.5889C15.5524 63.3605 15.4324 63.1069 15.5133 63.0256C15.7155 62.8225 16.4675 63.5502 16.3156 63.8022C16.2486 63.9133 16.0076 63.8174 15.7798 63.5889ZM15.1664 56.6499C15.0158 56.7434 14.9711 56.6363 15.0618 56.3984C15.2388 55.9356 15.4295 55.8509 15.4295 56.2352C15.4295 56.3736 15.3111 56.5601 15.1664 56.6499ZM15.0616 260.144C15.0054 260.144 14.8969 259.903 14.8203 259.609C14.7439 259.315 14.7897 259.075 14.9224 259.075C15.0549 259.075 15.1635 259.315 15.1635 259.609C15.1635 259.903 15.1174 260.144 15.0616 260.144ZM14.1177 259.732C13.9815 259.816 13.795 259.763 13.703 259.614C13.6112 259.464 13.7227 259.342 13.9506 259.342C14.4181 259.342 14.4867 259.503 14.1177 259.732ZM13.0353 256.135C12.8889 256.135 12.7692 256.015 12.7692 255.868C12.7692 255.721 12.8889 255.601 13.0353 255.601C13.1816 255.601 13.3013 255.721 13.3013 255.868C13.3013 256.015 13.1816 256.135 13.0353 256.135ZM11.3667 249.293C11.4708 249.398 11.3449 249.402 11.0871 249.303C10.5067 249.079 10.6453 248.553 11.3197 248.422C11.732 248.342 11.7639 248.393 11.4995 248.714C11.3226 248.928 11.2627 249.189 11.3667 249.293ZM11.1457 31.5922C10.9954 31.3308 10.8185 30.2526 10.7525 29.196C10.6863 28.1394 10.5147 27.1568 10.3707 27.0122C10.2268 26.8676 10.109 26.4764 10.109 26.1429C10.109 25.6873 9.99911 25.5791 9.66631 25.7073C9.33884 25.8337 9.28218 25.7827 9.44871 25.512C9.73442 25.0476 9.79055 23.9156 9.53543 23.7574C9.42875 23.6911 9.26116 23.0971 9.16246 22.4373C9.06403 21.7775 8.87755 21.172 8.74826 21.0918C8.6187 21.0114 8.51283 20.6707 8.51283 20.3348C8.51283 19.9989 8.26383 19.4976 7.95949 19.221C7.54476 18.8439 7.44553 18.5219 7.56258 17.9335C7.66128 17.4375 7.58014 16.9931 7.34205 16.7248C7.13481 16.4915 6.92439 16.0001 6.87438 15.6327C6.80175 15.0977 6.61154 14.948 5.91908 14.881C4.95846 14.7877 4.83476 14.4489 5.49477 13.7164C5.84565 13.3271 5.85895 13.2261 5.56127 13.2191C5.29551 13.2132 5.33143 13.101 5.68524 12.8319C6.09865 12.5176 6.15238 12.2467 6.00154 11.2371C5.87545 10.3932 5.69322 10.0209 5.40618 10.0209C5.09866 10.0209 5.02816 9.83309 5.13191 9.28902C5.29897 8.41012 4.84487 7.35912 4.52351 7.88128C4.40539 8.07368 4.17129 8.12899 3.97975 8.01008C3.7249 7.85188 3.76214 7.71479 4.13404 7.44142C4.59986 7.09937 4.59533 7.08147 4.0412 7.08147C3.36124 7.08147 3.26494 6.67876 3.88744 6.43879C4.18991 6.32228 4.26387 6.09674 4.13777 5.67533C4.03934 5.34638 3.91803 4.59627 3.86829 4.00838C3.81881 3.42048 3.76587 2.83553 3.75123 2.70886C3.73634 2.58193 3.36523 2.53089 2.92629 2.59556C2.03617 2.72677 1.92284 2.51592 2.54614 1.88955C2.92629 1.50795 2.92576 1.46974 2.54108 1.46974C2.21414 1.46974 2.15827 1.30272 2.29448 0.734868L2.47085 -1.30286e-06L1.73795 0.780564C1.11652 1.44248 0.928703 1.5133 0.502531 1.24607C0.0931167 0.989266 7.58544e-06 1.00557 7.57108e-06 1.33399C7.5614e-06 1.55552 0.183033 1.73696 0.407026 1.73696C0.72998 1.73696 0.798614 2.0261 0.739557 3.1399L0.665071 4.54283L1.72917 4.67644C2.66425 4.79375 2.7994 4.89931 2.84329 5.54492C2.87628 6.0294 2.76295 6.27979 2.51076 6.27979C2.30033 6.27979 2.12821 6.09942 2.12821 5.87896C2.12821 5.6585 2.0085 5.47812 1.86219 5.47812C1.71587 5.47812 1.59616 5.73706 1.59616 6.05345C1.59616 6.62131 1.58898 6.62051 1.03139 5.98665L0.466882 5.3445L0.589784 6.90564C0.663473 7.83932 0.86379 8.5643 1.08805 8.70941C1.40914 8.91704 1.40728 8.98812 1.07475 9.20297C0.741951 9.41782 0.757383 9.533 1.18249 10.0046C1.45543 10.3077 1.83957 10.5554 2.03643 10.5554C2.5496 10.5554 2.47777 11.3704 1.92922 11.7734C1.39265 12.1673 1.47246 12.2961 2.39424 12.524C2.76002 12.6144 2.91059 12.6194 2.7289 12.5355C2.4916 12.426 2.47404 12.2411 2.66638 11.88C2.98348 11.2849 3.768 11.4757 3.66265 12.1224C3.6153 12.4121 3.75097 12.5326 4.06461 12.4794C4.43891 12.4158 4.51207 12.5403 4.4155 13.0761C4.3482 13.4486 4.21678 13.8775 4.1234 14.0293C3.88106 14.4232 3.39369 14.0496 3.56475 13.6015C3.80045 12.985 2.71427 13.1616 2.37694 13.7947C1.95157 14.5932 2.27266 15.8604 3.05744 16.4806C3.54187 16.8635 3.66238 17.1286 3.5001 17.4554C3.37773 17.7021 3.33251 18.4452 3.40008 19.1066C3.46739 19.768 3.52538 20.6397 3.52857 21.044C3.5331 21.5795 3.6685 21.7789 4.0287 21.7789C4.30031 21.7789 4.52244 21.9592 4.52244 22.1797C4.52244 22.4002 4.34288 22.5805 4.1234 22.5805C3.9018 22.5805 3.72436 22.8181 3.72436 23.115C3.72436 23.4119 3.9018 23.6494 4.1234 23.6494C4.36815 23.6494 4.52244 23.8993 4.52244 24.2953C4.52244 24.6505 4.75761 25.4922 5.04492 26.1659C5.33249 26.8396 5.4522 27.3906 5.31094 27.3906C4.88238 27.3906 5.02337 28.0744 5.58654 28.7267C5.87917 29.0656 6.1186 29.5217 6.1186 29.7403C6.1186 29.9586 6.3237 30.2881 6.57403 30.4722C6.95924 30.755 6.97467 30.8731 6.67459 31.2365C6.41787 31.547 6.40724 31.6662 6.63602 31.6662C6.82676 31.6662 6.88821 31.8696 6.79084 32.1779C6.54716 32.9494 6.91348 34.0707 7.41095 34.0752C7.76263 34.0787 7.77647 34.1249 7.48118 34.3128C6.87437 34.6987 7.38275 35.1944 8.02893 34.847C8.45483 34.618 8.53145 34.6265 8.37237 34.8852C8.21967 35.1332 8.34709 35.1727 8.87223 35.0405C9.40295 34.9066 9.57693 34.963 9.57693 35.2687C9.57693 35.5279 9.82753 35.6746 10.2707 35.6746C10.8871 35.6746 10.9451 35.596 10.7895 34.9728C10.6485 34.4085 10.6948 34.3021 11.0265 34.4298C11.3298 34.5466 11.4391 34.4162 11.4391 33.9376C11.4391 33.4382 11.3306 33.3214 10.9736 33.4368C10.6873 33.5293 10.6224 33.5002 10.8046 33.3615C11.272 33.0061 11.4444 32.1119 11.1457 31.5922ZM9.52692 31.3143C9.31489 31.229 9.37795 31.1657 9.68786 31.1529C9.96826 31.1414 10.1252 31.2044 10.0369 31.2932C9.94857 31.3819 9.71899 31.3915 9.52692 31.3143ZM8.44632 28.6364C8.26329 28.5624 8.41307 28.5017 8.77885 28.5017C9.14464 28.5017 9.29414 28.5624 9.11139 28.6364C8.92836 28.7107 8.62908 28.7107 8.44632 28.6364ZM8.4418 27.1565C8.18109 26.8925 8.21169 26.862 8.59077 27.0069C8.85307 27.1073 9.00072 27.2567 8.91878 27.339C8.83711 27.4213 8.62243 27.3393 8.4418 27.1565ZM7.84776 35.6746C7.62829 35.6746 7.44873 35.855 7.44873 36.0754C7.44873 36.2959 7.62829 36.4763 7.84776 36.4763C8.06723 36.4763 8.2468 36.2959 8.2468 36.0754C8.2468 35.855 8.06723 35.6746 7.84776 35.6746ZM5.30482 16.9688C5.16702 16.9688 5.05449 16.8486 5.05449 16.7016C5.05449 16.5546 5.24124 16.4344 5.46923 16.4344C5.69721 16.4344 5.81001 16.5546 5.71956 16.7016C5.62911 16.8486 5.44262 16.9688 5.30482 16.9688ZM5.58654 24.5847C5.44023 24.6756 5.32052 24.6224 5.32052 24.4669C5.32052 24.3114 5.44023 24.1839 5.58654 24.1839C5.73286 24.1839 5.85257 24.2368 5.85257 24.3017C5.85257 24.3667 5.73286 24.4939 5.58654 24.5847ZM4.92148 18.1344C4.64854 18.2397 4.52244 18.1187 4.52244 17.7515C4.52244 17.3018 4.58549 17.2708 4.91137 17.5596C5.39607 17.9891 5.39554 17.9517 4.92148 18.1344ZM3.72436 16.0335C3.57805 16.1244 3.45834 16.0784 3.45834 15.9314C3.45834 15.7845 3.57805 15.5899 3.72436 15.4991C3.87068 15.4082 3.99039 15.4542 3.99039 15.6011C3.99039 15.7481 3.87068 15.9427 3.72436 16.0335ZM3.32532 243.405C3.10585 243.321 2.92628 243.204 2.92628 243.146C2.92628 243.089 3.10585 243.041 3.32532 243.041C3.54479 243.041 3.72435 243.158 3.72435 243.3C3.72435 243.443 3.54479 243.49 3.32532 243.405ZM2.64456 16.4344C2.48974 16.4344 2.4368 16.5546 2.52725 16.7016C2.6177 16.8486 2.74433 16.9688 2.80897 16.9688C2.87362 16.9688 2.92629 16.8486 2.92629 16.7016C2.92629 16.5546 2.79939 16.4344 2.64456 16.4344Z" fill="#F23E16"/>
</svg>
