<svg width="40" height="16" viewBox="0 0 40 16" fill="none" xmlns="http://www.w3.org/2000/svg">
<path fill-rule="evenodd" clip-rule="evenodd" d="M39.7628 6.64681C39.4113 6.57672 39.3938 6.58227 39.3148 6.78936C39.2749 6.89389 39.2072 6.97941 39.1642 6.97941C39.0531 6.97941 39.0718 7.29643 39.1922 7.45456C39.3436 7.65344 39.5183 7.61565 39.632 7.35953C39.6878 7.23409 39.7724 7.13146 39.8201 7.13146C39.8934 7.13146 39.9963 6.90848 40 6.74184C40.0006 6.71569 39.8939 6.67296 39.7628 6.64681ZM38.8585 7.39861C38.7195 7.27317 38.6852 7.26785 38.6251 7.36257C38.5863 7.42362 38.5542 7.49926 38.5535 7.53058C38.5529 7.5619 38.5041 7.5876 38.4451 7.5876C38.3231 7.5876 38.3699 7.28138 38.5053 7.19258C38.5497 7.16354 38.5676 7.12135 38.5451 7.09885C38.4813 7.03537 37.9988 7.19327 37.9272 7.30114C37.8781 7.37519 37.8451 7.36675 37.7847 7.2645C37.7414 7.19129 37.6714 7.13146 37.629 7.13146C37.5867 7.13146 37.5709 7.16179 37.5939 7.19889C37.672 7.32479 37.414 7.45562 37.1797 7.40894C37.0374 7.38051 36.9511 7.39465 36.9511 7.44635C36.9511 7.49386 36.8697 7.51378 36.7605 7.49295C36.6146 7.4652 36.5699 7.48854 36.5699 7.59254C36.5699 7.66735 36.6299 7.74413 36.7033 7.76329C36.8262 7.79529 36.8258 7.79872 36.6983 7.80685C36.6222 7.81172 36.4849 7.77446 36.3933 7.72406C36.3017 7.67373 36.1416 7.62014 36.0376 7.60508C35.9335 7.59003 35.8296 7.54754 35.8068 7.51066C35.783 7.47235 35.7169 7.47402 35.6529 7.51439C35.591 7.55339 35.5782 7.58577 35.6242 7.58646C35.6703 7.58707 35.7108 7.69023 35.7144 7.81567C35.7187 7.96597 35.6837 8.04374 35.6116 8.04374C35.5516 8.04374 35.5024 7.99242 35.5024 7.9297C35.5024 7.86698 35.4472 7.81567 35.3798 7.81567C35.2982 7.81567 35.2732 7.77454 35.3047 7.69243C35.3432 7.59262 35.3194 7.58015 35.1795 7.62652C35.0845 7.658 34.8352 7.68255 34.6255 7.68118C34.4158 7.67974 34.219 7.71798 34.1882 7.7661C34.1514 7.82373 34.1318 7.81088 34.131 7.72877C34.1288 7.49113 33.7508 7.48938 33.7462 7.72695C33.744 7.8422 33.7346 7.84159 33.6425 7.72064C33.5868 7.64743 33.5021 7.5876 33.4543 7.5876C33.4065 7.5876 33.3674 7.55103 33.3674 7.50625C33.3674 7.46155 33.2902 7.43593 33.1958 7.44924C33.1015 7.46262 33.0354 7.5061 33.049 7.54579C33.0626 7.58555 32.9946 7.64728 32.8979 7.68293C32.7858 7.72429 32.7123 7.71859 32.695 7.66719C32.6802 7.62287 32.6282 7.61231 32.5794 7.64363C32.4533 7.72452 32.1474 7.72193 32.1474 7.63998C32.1474 7.60227 32.0977 7.59034 32.0369 7.6136C31.963 7.64188 31.9405 7.61938 31.9688 7.54571C31.995 7.47767 31.9643 7.43555 31.8887 7.43555C31.8213 7.43555 31.7662 7.46551 31.7662 7.50207C31.7662 7.59163 31.3938 7.58729 31.3378 7.49713C31.3132 7.45737 31.2316 7.48155 31.1539 7.55164C31.0224 7.67024 31.0167 7.66833 31.056 7.51857C31.0799 7.42734 31.0614 7.35953 31.0126 7.35953C30.9657 7.35953 30.9274 7.41085 30.9274 7.47356C30.9274 7.54959 30.8512 7.5876 30.6987 7.5876C30.5208 7.5876 30.4699 7.62135 30.4699 7.73965C30.4699 7.82327 30.4356 7.89169 30.3937 7.89169C30.3517 7.89169 30.3174 7.85543 30.3174 7.81118C30.3174 7.76694 30.2773 7.75538 30.2282 7.78564C30.1691 7.82213 30.1547 7.79986 30.1856 7.71965C30.2509 7.54982 30.0581 7.40666 29.8839 7.49569C29.638 7.62135 29.1849 7.58904 28.9078 7.42605L28.6411 7.26914L28.5071 7.50321C28.4334 7.63192 28.3225 7.75675 28.2607 7.78062C28.1331 7.82989 27.9326 7.60007 27.9848 7.46437C28.0072 7.40606 27.926 7.37473 27.7524 7.37473C27.5918 7.37473 27.469 7.41784 27.4438 7.48314C27.3915 7.61907 27.1912 7.47668 27.1912 7.3035C27.1912 7.2068 27.162 7.20908 26.9941 7.3187C26.8082 7.44027 26.7886 7.43981 26.6464 7.31148C26.5433 7.21851 26.4791 7.20224 26.4431 7.26009C26.4142 7.30654 26.2191 7.365 26.0094 7.39001C25.7997 7.41495 25.671 7.41548 25.7234 7.39108C25.7759 7.36675 25.8187 7.287 25.8187 7.21387C25.8187 7.04715 25.5728 7.05452 25.3818 7.22702C25.2976 7.30297 25.1338 7.34539 24.9599 7.33634C24.7233 7.32403 24.6756 7.29377 24.6753 7.15556C24.6752 7.05551 24.6132 6.97014 24.5193 6.94041C24.3315 6.88096 23.7779 6.96497 23.7178 7.06205C23.6399 7.18764 23.5452 7.13481 23.4674 6.9224C23.4253 6.80737 23.3881 6.75613 23.3848 6.80836C23.3815 6.86067 23.293 6.90339 23.1882 6.90339C23.0695 6.90339 22.9975 6.9465 22.9975 7.01743C22.9975 7.08014 22.9632 7.13146 22.9213 7.13146C22.8793 7.13146 22.845 7.08014 22.845 7.01743C22.845 6.89533 22.7735 6.88515 22.0398 6.9021C21.613 6.91198 21.5708 6.89792 21.4886 6.71805C21.39 6.50244 21.1139 6.45212 21.0428 6.63685C21.0187 6.69934 20.9708 6.73302 20.9361 6.71166C20.9014 6.6903 20.8493 6.71128 20.8202 6.75819C20.7813 6.82091 20.7528 6.82022 20.7127 6.75568C20.6828 6.70725 20.5756 6.66346 20.4744 6.65822C20.3734 6.65305 20.2261 6.59489 20.1471 6.52898C20.0125 6.41661 20.0068 6.41981 20.0569 6.58029C20.1004 6.71972 20.0812 6.75134 19.9527 6.75134C19.866 6.75134 19.7951 6.72291 19.7951 6.68809C19.7951 6.5942 19.2675 6.44999 19.121 6.50374C19.0514 6.52928 18.9692 6.58691 18.9384 6.63176C18.9043 6.6814 18.882 6.66301 18.8812 6.58478C18.8795 6.38666 18.7543 6.35352 18.501 6.48412C18.3529 6.56053 18.2701 6.57299 18.2701 6.51887C18.2701 6.47249 18.2272 6.44991 18.1748 6.46869C18.0567 6.51081 17.7956 6.38415 17.843 6.30767C17.8621 6.27696 17.8201 6.24723 17.7498 6.24176C17.5414 6.22542 17.3631 6.17646 17.3065 6.12005C17.2773 6.09093 17.1596 6.06714 17.0449 6.06714C16.8946 6.06714 16.7898 6.13616 16.6698 6.31421C16.5485 6.49431 16.5128 6.5175 16.5382 6.39989C16.566 6.27202 16.5436 6.24617 16.4304 6.27567C16.3519 6.29619 16.2876 6.27354 16.2876 6.22534C16.2876 6.1611 16.2467 6.15966 16.1335 6.22002C15.9234 6.33215 15.8078 6.24222 15.8658 6.01164C15.9086 5.84195 15.9012 5.83336 15.7995 5.9347C15.5376 6.19592 14.4965 6.18193 14.2274 5.91365C14.1109 5.79748 14.0139 5.76434 13.8978 5.80121C13.611 5.89228 13.2786 5.90521 13.2303 5.82713C13.2022 5.78182 13.1358 5.79946 13.0636 5.87145C12.9089 6.0257 12.7802 6.02433 12.7802 5.86849C12.7802 5.77559 12.725 5.75384 12.5532 5.77901C12.4285 5.79725 12.3126 5.77543 12.2957 5.73058C12.2768 5.68033 12.1411 5.71743 11.9425 5.82705C11.7093 5.95576 11.5968 5.98207 11.5367 5.92208C11.4909 5.87639 11.3573 5.83907 11.2399 5.83907C11.0883 5.83907 11.0257 5.80052 11.0241 5.70603C11.0219 5.58013 11.0176 5.58021 10.9434 5.70732C10.888 5.80204 10.8294 5.82173 10.7442 5.77422C10.6021 5.69493 10.3402 5.74799 10.3402 5.8561C10.3402 5.89745 10.2849 5.91022 10.2174 5.88438C10.1294 5.8507 10.107 5.87001 10.1387 5.95226C10.1962 6.1018 10.1198 6.09831 9.94819 5.94337C9.85448 5.85883 9.65639 5.81664 9.32348 5.81033C8.96801 5.80356 8.84571 5.77528 8.87186 5.70603C8.91868 5.58211 8.57281 5.57899 8.44921 5.70222C8.39713 5.75415 8.35771 5.76038 8.35771 5.71667C8.35771 5.6728 8.09572 5.63213 7.74772 5.62179C7.34025 5.60978 7.13773 5.63183 7.13773 5.68831C7.13773 5.73476 7.04333 5.7657 6.92804 5.75711C6.67528 5.73826 6.37524 5.83025 6.37524 5.92664C6.37524 5.9664 6.43753 5.96321 6.52011 5.91912C6.63151 5.85967 6.67574 5.86978 6.71157 5.96291C6.75092 6.06501 6.71333 6.07656 6.47139 6.03665C6.31363 6.01057 6.12461 5.98762 6.05118 5.98549C5.97783 5.98336 5.91774 5.95386 5.91774 5.91988C5.91774 5.8859 5.83196 5.85807 5.72712 5.85807C5.62228 5.85807 5.5365 5.88803 5.5365 5.92459C5.5365 5.96116 5.48503 5.99111 5.42213 5.99111C5.35922 5.99111 5.30775 6.04243 5.30775 6.10515C5.30775 6.24374 5.14504 6.25423 5.01328 6.12415C4.93619 6.04805 4.90203 6.05558 4.84172 6.16216C4.80032 6.23537 4.68236 6.29521 4.57957 6.29521C4.47687 6.29521 4.39277 6.33474 4.39277 6.38301C4.39277 6.43425 4.33237 6.41631 4.24759 6.33983C4.12292 6.22732 4.07763 6.22298 3.92704 6.30904C3.8305 6.36416 3.69493 6.4753 3.6257 6.55604C3.45765 6.75195 2.76355 6.8003 2.50865 6.63389C2.33175 6.51826 2.33114 6.51354 2.46511 6.28357C2.53984 6.1554 2.65649 6.02859 2.72451 6.00176C2.95028 5.91281 3.45559 5.40543 3.50202 5.221C3.52718 5.12103 3.64354 4.98274 3.76059 4.91364C4.17576 4.66839 4.39277 4.43226 4.39277 4.22547C4.39277 4.10581 4.45849 3.97726 4.5535 3.91089C4.64194 3.84908 4.69136 3.76166 4.66337 3.7165C4.63539 3.67134 4.65255 3.63439 4.70142 3.63439C4.7503 3.63439 4.77058 3.58308 4.74641 3.52036C4.71659 3.44282 4.75053 3.40633 4.85262 3.40633C4.9352 3.40633 5.00275 3.37455 5.00275 3.3357C5.00275 3.29693 5.06147 3.20654 5.13329 3.135C5.20512 3.06338 5.27146 2.95323 5.28076 2.89013C5.28999 2.82695 5.32597 2.75481 5.36059 2.72972C5.48038 2.64298 5.8357 2.04946 5.88488 1.85401C5.91203 1.74606 5.96372 1.65779 5.99964 1.65779C6.03555 1.65779 6.17028 1.55516 6.29899 1.42972C6.4277 1.30428 6.5821 1.20165 6.64203 1.20165C6.7715 1.20165 6.93582 0.926373 6.86987 0.819941C6.84447 0.779041 6.86255 0.745514 6.9099 0.745514C7.06887 0.745514 7.23006 0.514328 7.24112 0.270446C7.25447 -0.0239161 7.05927 -0.100928 6.94695 0.154358C6.90509 0.249539 6.80223 0.332328 6.71836 0.338334C6.63449 0.34434 6.49259 0.352855 6.403 0.35734C6.1956 0.367603 5.53665 0.999432 5.34397 1.37271C5.26307 1.52947 5.14428 1.65779 5.08 1.65779C4.93177 1.65779 4.76311 1.92114 4.81877 2.06573C4.84797 2.14153 4.78865 2.1914 4.62693 2.22683C4.40939 2.27442 4.35434 2.36367 4.38522 2.61888C4.39093 2.66662 4.33642 2.70083 4.26406 2.6949C4.18842 2.68867 4.08701 2.77647 4.02585 2.90115C3.90294 3.1515 3.66497 3.40633 3.55402 3.40633C3.51209 3.40633 3.47778 3.46737 3.47778 3.54203C3.47778 3.61668 3.30507 3.83031 3.09401 4.01672C2.88288 4.2032 2.62089 4.48426 2.51178 4.64125C2.40259 4.79831 2.26793 4.92679 2.21243 4.92679C1.94685 4.92679 1.57094 5.20663 1.44665 5.49696C1.37506 5.66421 1.32237 5.82675 1.32961 5.85807C1.33686 5.88939 1.27418 5.91509 1.1903 5.91509C1.10643 5.91509 1.03781 5.9493 1.03781 5.99111C1.03781 6.03293 0.952026 6.06714 0.847183 6.06714C0.728539 6.06714 0.656559 6.11024 0.656559 6.18117C0.656559 6.24389 0.587936 6.36363 0.504063 6.44725C0.420189 6.53088 0.351566 6.63351 0.351566 6.67532C0.351566 6.71713 0.317253 6.75134 0.275314 6.75134C0.233379 6.75134 0.199066 6.79977 0.199066 6.85907C0.199066 6.91829 0.160641 6.97949 0.113594 6.99515C0.0666237 7.01074 0.0204163 7.15047 0.0109634 7.30555C-0.00169754 7.51325 0.0240021 7.5876 0.108257 7.5876C0.203796 7.5876 0.200897 7.61162 0.0904121 7.73334C-0.0154228 7.84996 -0.0247269 7.91085 0.0436707 8.03842C0.111683 8.16499 0.158653 8.18202 0.272343 8.12136C0.374363 8.06693 0.424309 8.07118 0.446037 8.13618C0.462814 8.18636 0.610886 8.23592 0.775127 8.24642C0.939445 8.25691 1.08569 8.30108 1.10025 8.34464C1.11481 8.3882 1.20967 8.42385 1.31101 8.42385C1.41242 8.42385 1.4953 8.4589 1.4953 8.50178C1.4953 8.54458 1.58108 8.61216 1.68592 8.65192C1.79076 8.69168 1.87654 8.75691 1.87654 8.79698C1.87654 8.83696 1.94517 8.89147 2.02905 8.918C2.11292 8.94454 2.18154 9.00976 2.18154 9.06298C2.18154 9.1162 2.26732 9.19868 2.37217 9.24627C2.47701 9.29394 2.56279 9.3616 2.56279 9.39672C2.56279 9.43184 2.76851 9.59514 3.0199 9.7595C3.27129 9.92387 3.47717 10.0833 3.47739 10.1137C3.478 10.2 4.34092 11.0842 4.42883 11.0886C4.47191 11.0908 4.6787 11.3013 4.88838 11.5565C5.09807 11.8115 5.40688 12.1201 5.57462 12.2422C5.74237 12.3642 5.871 12.4787 5.86056 12.4966C5.80909 12.5843 5.86452 12.6811 6.12743 12.9627C6.28466 13.1312 6.56441 13.4422 6.74909 13.6539C6.93369 13.8657 7.16533 14.0591 7.26377 14.0837C7.44257 14.1285 7.4852 14.2566 7.45066 14.6453C7.42862 14.8935 7.58211 15.0673 7.72157 14.952C7.85409 14.8423 7.89526 14.8817 7.91661 15.1391C7.93438 15.3528 8.12897 15.4285 8.12897 15.2216C8.12897 15.1554 8.17151 15.1153 8.22359 15.1327C8.27567 15.15 8.35596 15.1272 8.40217 15.082C8.4483 15.0368 8.59225 14.9194 8.72211 14.8211C8.96931 14.6339 9.15543 14.2439 9.06622 14.1C9.03755 14.0537 9.021 13.9252 9.02947 13.8144C9.03793 13.7035 8.99325 13.5701 8.93004 13.5178C8.86691 13.4656 8.81521 13.3768 8.81521 13.3207C8.81521 13.2646 8.74658 13.1821 8.66271 13.1373C8.57884 13.0925 8.51075 13.0144 8.51136 12.9636C8.5122 12.8992 8.5324 12.9025 8.57808 12.9744C8.62451 13.0474 8.65913 13.0526 8.69649 12.9922C8.78616 12.8476 8.34345 12.2386 8.12897 12.2113C7.98577 12.193 7.93629 12.1397 7.93011 11.9969C7.91242 11.5916 7.89664 11.5408 7.78821 11.5408C7.72668 11.5408 7.69236 11.4981 7.71211 11.4458C7.75314 11.3371 7.32911 10.857 7.19103 10.8558C7.14078 10.8554 7.03098 10.7683 6.94711 10.6623C6.86323 10.5562 6.70021 10.3672 6.58492 10.2423C6.46956 10.1173 6.37524 9.98043 6.37524 9.93808C6.37524 9.86366 6.23921 9.72355 5.80276 9.34837C5.65354 9.22004 5.57272 9.19359 5.51279 9.25334C5.34245 9.42318 5.21671 9.34814 5.26963 9.10814C5.31111 8.91968 5.29883 8.8882 5.19856 8.92652C5.10653 8.96179 5.08976 8.94043 5.12925 8.83795C5.1625 8.75159 5.1519 8.72103 5.0999 8.75311C5.05521 8.78063 4.93787 8.73608 4.83913 8.65405C4.74038 8.57202 4.68655 8.50383 4.71949 8.50239C4.75243 8.50102 4.74335 8.43275 4.69928 8.35064C4.65521 8.26861 4.57264 8.21928 4.51568 8.24102C4.44827 8.26687 4.39787 8.20627 4.37111 8.06715C4.34846 7.94977 4.3355 7.84935 4.34229 7.8441C4.34908 7.83885 4.43615 7.80951 4.53573 7.77895C4.65079 7.74367 4.69951 7.75128 4.6694 7.79993C4.62555 7.87063 4.72002 7.87443 5.36494 7.82798C5.48465 7.81939 5.5365 7.76724 5.5365 7.65549C5.5365 7.54571 5.5718 7.50884 5.64866 7.53826C5.71035 7.56183 5.81084 7.53127 5.87199 7.47037C5.93399 7.40849 6.12445 7.35953 6.30288 7.35953C6.57852 7.35953 6.60955 7.37527 6.52774 7.47356C6.47551 7.53628 6.44562 7.59041 6.46125 7.59391C6.61924 7.62918 6.83273 7.62918 6.83281 7.59391C6.83289 7.53902 7.61154 7.54351 7.71242 7.599C7.75283 7.6212 8.04502 7.63435 8.36183 7.6282C8.76519 7.62036 8.99317 7.57848 9.12226 7.48831C9.24281 7.40408 9.45608 7.35953 9.73828 7.35953C10.1188 7.35953 10.1764 7.37983 10.225 7.53058C10.2752 7.68643 10.2835 7.68886 10.3178 7.55757C10.3481 7.44209 10.3688 7.43456 10.4219 7.51956C10.476 7.6063 10.5162 7.6082 10.6428 7.52997C10.728 7.47729 10.7977 7.4614 10.7977 7.49462C10.7977 7.52784 10.8578 7.56168 10.9311 7.56981C11.0045 7.57794 11.1817 7.59931 11.3251 7.6174C11.4684 7.63549 11.6676 7.61915 11.7679 7.58114C11.8681 7.54312 11.9342 7.53758 11.9147 7.56882C11.8951 7.60007 12.1334 7.61436 12.4441 7.6006C12.9019 7.5803 13.0089 7.5968 13.0089 7.68749C13.0089 7.84235 13.2084 7.90439 13.3109 7.78138C13.4354 7.63169 13.6951 7.58068 13.6951 7.70589C13.6951 7.78762 13.8682 7.80913 14.5015 7.80617C15.1645 7.80312 15.3339 7.82601 15.4546 7.93487C15.5913 8.05826 15.6109 8.05871 15.7408 7.94149C15.8175 7.87231 15.9376 7.81567 16.0077 7.81567C16.0778 7.81567 16.1351 7.78693 16.1351 7.75188C16.1351 7.71676 16.2251 7.64713 16.3351 7.59718C16.5258 7.51051 16.5334 7.51538 16.4977 7.70163C16.4771 7.80905 16.4769 7.88029 16.4974 7.85991C16.5178 7.83954 16.5844 7.87261 16.6452 7.93335C16.792 8.07962 16.8976 8.07316 16.8976 7.91792C16.8976 7.8048 16.9129 7.80594 17.0501 7.9297C17.1873 8.05347 17.2026 8.05461 17.2026 7.94149C17.2026 7.78351 17.2745 7.78062 17.387 7.93419C17.4538 8.02519 17.5187 8.03576 17.6663 7.9798C17.7886 7.93343 17.9062 7.93335 17.9888 7.97942C18.0603 8.01933 18.1567 8.02861 18.203 8.0001C18.2493 7.97159 18.3203 7.99539 18.3607 8.05301C18.412 8.12615 18.4451 8.13155 18.4702 8.0708C18.5097 7.97532 18.7309 8.0147 19.0305 8.17062C19.2652 8.29271 19.6426 8.30321 19.6426 8.18765C19.6426 8.14135 19.694 8.12318 19.7569 8.14728C19.8199 8.1713 19.8713 8.15785 19.8713 8.1174C19.8713 8.07688 19.9056 8.04374 19.9476 8.04374C19.9895 8.04374 20.0238 8.08973 20.0238 8.14599C20.0238 8.20225 20.0884 8.30647 20.1672 8.37763C20.2967 8.49448 20.3222 8.49562 20.4287 8.38941C20.4936 8.32472 20.5834 8.27181 20.6284 8.27181C20.6733 8.27181 20.7101 8.21517 20.7101 8.14599C20.7101 8.03142 20.7232 8.03211 20.8577 8.15336C20.9688 8.25364 21.1523 8.28937 21.6011 8.29819C22.0629 8.30723 22.1919 8.33339 22.1746 8.41458C22.1582 8.49159 22.1985 8.50444 22.3271 8.46301C22.5949 8.37672 22.8578 8.39785 22.93 8.51143C22.9796 8.58943 22.9955 8.59088 22.9964 8.51744C22.9971 8.45259 23.0601 8.43663 23.1882 8.46863C23.3031 8.49744 23.3788 8.48384 23.3788 8.4345C23.3788 8.38941 23.4281 8.37147 23.4883 8.39451C23.5491 8.41777 23.5781 8.48787 23.5535 8.55188C23.5214 8.63527 23.5492 8.65869 23.6536 8.63611C23.7331 8.61893 23.7895 8.56412 23.7791 8.5144C23.7686 8.4646 23.8115 8.42385 23.8744 8.42385C23.9373 8.42385 23.9888 8.38964 23.9888 8.34783C23.9888 8.23516 24.1359 8.25561 24.2672 8.38653C24.3305 8.44963 24.41 8.48422 24.4437 8.46339C24.4776 8.44256 24.5468 8.47555 24.5977 8.5366C24.6786 8.63383 24.7047 8.63322 24.8065 8.53165C24.8706 8.4678 25.0129 8.42598 25.123 8.43875C25.2868 8.45768 25.3191 8.4963 25.3006 8.65192C25.2842 8.79158 25.2973 8.81378 25.3503 8.7357C25.4115 8.64539 25.469 8.64797 25.7327 8.75319C26.0954 8.89786 26.302 8.85255 26.2352 8.64295C26.1632 8.41678 26.4936 8.46171 26.7269 8.70985C26.9057 8.89991 26.9785 8.92097 27.4962 8.93252C27.8107 8.93952 28.1967 8.96932 28.354 8.99859C28.543 9.03386 28.64 9.02368 28.64 8.96864C28.64 8.92279 28.7138 8.84593 28.804 8.79781C28.943 8.72369 28.961 8.72871 28.9217 8.83073C28.8528 9.00969 28.9995 9.05941 29.2686 8.94834C29.4512 8.87292 29.5138 8.87117 29.5372 8.94096C29.5751 9.05431 29.7837 9.06192 29.7837 8.95001C29.7837 8.89885 29.8676 8.8863 30.0066 8.91671C30.2089 8.96103 30.2261 8.94933 30.193 8.78968C30.168 8.66888 30.1915 8.68879 30.2683 8.85338C30.3633 9.05735 30.4208 9.09286 30.6558 9.09286C30.8076 9.09286 30.9823 9.04253 31.044 8.98103C31.1057 8.91945 31.1562 8.89816 31.1562 8.93359C31.1562 9.0195 31.7784 8.95974 31.8996 8.86213C31.9624 8.81157 31.9949 8.81127 31.9949 8.86122C31.9949 9.00155 32.8061 9.00224 33.0309 8.86205C33.2198 8.74422 33.7419 8.66956 33.7738 8.75577C33.7971 8.81857 33.8326 8.81682 33.9042 8.74961C33.9819 8.67663 34.0222 8.684 34.0961 8.78474C34.1751 8.89246 34.2087 8.89649 34.3123 8.81081C34.3797 8.75501 34.4349 8.73479 34.4349 8.76596C34.4349 8.79713 34.4879 8.77873 34.5528 8.72506C34.6176 8.67146 34.6536 8.5835 34.6328 8.5296C34.6092 8.46818 34.6363 8.44734 34.7056 8.47388C34.8299 8.52139 34.8578 8.72795 34.7399 8.72795C34.6979 8.72795 34.6636 8.76748 34.6636 8.81575C34.6636 8.86829 34.7197 8.853 34.8031 8.77774C34.8798 8.70856 35.017 8.65192 35.1081 8.65192C35.1991 8.65192 35.2736 8.61771 35.2736 8.5759C35.2736 8.53409 35.3138 8.49988 35.3629 8.49988C35.412 8.49988 35.515 8.44324 35.5917 8.37406C35.7227 8.25584 35.7311 8.2582 35.7311 8.41207C35.7311 8.50216 35.7569 8.57871 35.7883 8.58213C35.8197 8.58556 35.9398 8.60388 36.0552 8.62273C36.171 8.64174 36.2649 8.62189 36.2649 8.57848C36.2649 8.53523 36.3163 8.49988 36.3792 8.49988C36.4421 8.49988 36.4936 8.44856 36.4936 8.38584C36.4936 8.32312 36.5279 8.27181 36.5699 8.27181C36.6118 8.27181 36.6461 8.30328 36.6461 8.34183C36.6461 8.38029 36.7551 8.43564 36.8884 8.46483C37.0684 8.50429 37.1538 8.48627 37.2208 8.39481C37.2704 8.32715 37.3501 8.27181 37.3979 8.27181C37.4457 8.27181 37.4848 8.22277 37.4848 8.16287C37.4848 8.09102 37.5628 8.05613 37.7136 8.06039C37.8394 8.06396 37.9423 8.09513 37.9423 8.12972C37.9423 8.20818 38.3233 8.04419 38.4727 7.90142C38.5487 7.82867 38.5927 7.82221 38.6123 7.8809C38.6329 7.9427 38.6832 7.94392 38.7931 7.88523C38.8769 7.8406 38.9275 7.75751 38.9057 7.70072C38.8838 7.64393 38.9009 7.58577 38.9437 7.57156C38.9865 7.55734 38.9481 7.47949 38.8585 7.39861ZM32.4577 7.92643C32.4186 7.95053 32.3652 7.93541 32.3388 7.89291C32.3125 7.85041 32.3444 7.81567 32.4098 7.81567C32.5438 7.81567 32.5634 7.86128 32.4577 7.92643ZM31.8766 8.52892C31.8087 8.55484 31.7781 8.54207 31.8048 8.49904C31.8304 8.45768 31.8837 8.42385 31.9232 8.42385C32.0328 8.42385 32.0086 8.47836 31.8766 8.52892ZM31.5662 8.87999C31.3964 8.87999 31.3807 8.86266 31.4619 8.76505C31.5348 8.67754 31.5826 8.6707 31.6619 8.73631C31.8086 8.85772 31.7938 8.87999 31.5662 8.87999ZM31.5374 8.2338C31.4955 8.20795 31.4612 8.15466 31.4612 8.11528C31.4612 8.0759 31.4955 8.04374 31.5374 8.04374C31.5794 8.04374 31.6137 8.09711 31.6137 8.16226C31.6137 8.22741 31.5794 8.25964 31.5374 8.2338ZM30.5244 8.67313C30.4673 8.69503 30.4264 8.65451 30.4264 8.5759C30.4264 8.49729 30.4673 8.45677 30.5244 8.47867C30.5783 8.49927 30.6224 8.54306 30.6224 8.5759C30.6224 8.60874 30.5783 8.65253 30.5244 8.67313ZM18.6195 7.53666C18.5601 7.55939 18.4925 7.52883 18.4694 7.46877C18.4417 7.39663 18.4783 7.35953 18.5774 7.35953C18.751 7.35953 18.7786 7.47577 18.6195 7.53666ZM16.4548 6.86736C16.4313 6.84402 16.4548 6.78267 16.5069 6.73105C16.5822 6.65654 16.5909 6.66529 16.5496 6.77362C16.5209 6.84858 16.4783 6.89077 16.4548 6.86736ZM15.9064 7.51158C15.849 7.60014 15.8322 7.57787 15.8313 7.41206C15.8306 7.28883 15.8624 7.21835 15.9064 7.24549C16.0011 7.3038 16.0011 7.36554 15.9064 7.51158ZM7.26026 6.06714C7.24379 6.06714 7.21055 6.01582 7.18637 5.9531C7.16228 5.89038 7.17578 5.83907 7.21634 5.83907C7.25698 5.83907 7.29023 5.89038 7.29023 5.9531C7.29023 6.01582 7.27673 6.06714 7.26026 6.06714ZM7.2566 7.51158C7.23807 7.51158 7.20178 7.47737 7.17585 7.43555C7.14993 7.39374 7.1651 7.35953 7.20948 7.35953C7.25386 7.35953 7.29023 7.39374 7.29023 7.43555C7.29023 7.47737 7.27513 7.51158 7.2566 7.51158Z" fill="#F23E16"/>
</svg>
