<svg width="107" height="106" viewBox="0 0 107 106" fill="none" xmlns="http://www.w3.org/2000/svg">
<path fill-rule="evenodd" clip-rule="evenodd" d="M18.3674 0.327233C18.3503 0.967905 17.5817 1.12633 16.0133 0.812591C14.0412 0.418092 13.6841 0.586607 13.6841 1.91377C13.6841 2.77577 14.2307 3.69057 14.8976 3.94684C15.5653 4.20311 15.8759 4.79408 15.5878 5.2608C14.82 6.50332 17.7393 11.4936 19.0817 11.235C19.709 11.1138 21.459 12.1513 22.9707 13.5398C24.4816 14.9284 25.9226 16.0668 26.1719 16.0684C26.4211 16.0707 28.1385 17.4701 29.9887 19.1785C31.8389 20.887 33.644 22.2848 33.9996 22.2848C34.356 22.2848 34.6472 22.809 34.6472 23.4497C34.6472 24.0904 35.1014 24.6146 35.6573 24.6146C36.9554 24.6146 40.8445 26.4131 40.8522 27.0173C40.8554 27.2712 41.7311 28.4943 42.7987 29.7353C43.8655 30.977 44.7281 32.3415 44.7149 32.7686C44.6776 33.9979 42.9408 35.9145 41.2467 36.5955C40.2552 36.9947 40.0448 37.3519 40.6644 37.5833C42.1535 38.1394 41.8166 39.2693 40.2762 38.8841C39.471 38.683 37.6744 39.6607 35.8646 41.2868C34.186 42.7949 32.526 44.0289 32.1766 44.0289C31.8272 44.0289 31.5415 44.3993 31.5415 44.8513C31.5415 45.3032 31.8909 45.4578 32.3179 45.1937C32.745 44.9297 33.0943 45.259 33.0943 45.9245C33.0943 46.59 32.613 47.1352 32.0245 47.1352C31.4367 47.1352 30.5105 47.671 29.967 48.3257C29.4235 48.9811 28.595 49.388 28.1253 49.2304C27.0562 48.8716 20.7502 55.4321 19.803 57.8884C19.4163 58.8902 18.4349 59.885 17.6228 60.097C16.8099 60.3097 15.9372 61.3123 15.6826 62.3242C15.4287 63.3368 14.351 65.0352 13.2881 66.0983C12.2244 67.1622 11.3548 68.5725 11.3548 69.2326C11.3548 69.8927 11.0287 70.4324 10.6304 70.4324C9.70263 70.4324 8.66379 73.4882 8.94408 75.3947C9.09625 76.4298 8.81364 76.7296 7.98521 76.412C6.53643 75.856 4.81512 77.7757 5.39898 79.2962C5.63501 79.9112 5.36016 80.802 4.7895 81.2765C3.34848 82.4724 4.16061 85.1943 5.80272 84.6716C6.84 84.3424 6.87572 84.4122 5.99061 85.0421C5.38889 85.4699 4.47273 85.6579 3.95564 85.4591C2.75065 84.997 2.14893 86.5804 2.45794 89.3994C2.60235 90.7172 2.07594 92.4614 1.15978 93.7016C-0.219128 95.5662 -0.285901 96.1696 0.525449 99.3923C1.11319 101.728 1.95017 103.163 2.90049 103.464C3.70718 103.72 4.36713 104.255 4.36713 104.654C4.36713 105.052 4.97895 105.37 5.72585 105.362C7.34389 105.342 10.8944 100.502 11.6895 97.2319C12 95.9552 12.6631 94.6498 13.1631 94.3314C13.7609 93.9517 13.6072 93.749 12.7136 93.7412C11.9666 93.735 11.3548 93.3801 11.3548 92.953C11.3548 92.5259 11.7166 92.1764 12.1584 92.1764C12.6848 92.1764 12.6538 91.5994 12.0684 90.5052C11.2966 89.0639 11.3548 88.9039 12.4899 89.3396C14.3906 90.0688 18.2758 85.9203 18.6174 82.7954C18.7688 81.4147 19.4676 79.8639 20.1702 79.3498C20.8729 78.8357 21.4482 78.1647 21.4482 77.8587C21.4482 77.5528 22.5018 76.2481 23.7898 74.9598C25.0771 73.6722 27.2379 70.9907 28.5912 69.0012C29.9437 67.0123 31.3808 65.1618 31.7838 64.8892C32.1867 64.6166 32.2791 64.0086 31.9887 63.5387C31.6572 63.0014 31.908 62.8561 32.6658 63.1466C33.3661 63.4153 33.8708 63.1955 33.8708 62.6208C33.8708 62.0772 34.3785 61.0786 34.9997 60.4022C36.9834 58.2402 39.1597 56.0945 40.388 55.0896C41.0448 54.5522 41.3818 53.5908 41.1372 52.954C40.888 52.3048 41.1217 51.7946 41.6675 51.7946C42.204 51.7946 43.8306 50.5715 45.2817 49.0766C46.7336 47.5817 48.2996 46.3586 48.7631 46.3586C49.2258 46.3586 50.2476 45.6178 51.0326 44.7123C52.1731 43.3968 52.2896 42.7343 51.611 41.4118C50.9114 40.0497 50.9433 39.9294 51.7888 40.7285C53.1553 42.0207 55.1041 41.9702 54.5994 40.6555C53.9061 38.8484 57.983 40.1685 58.8293 42.0253C59.2485 42.9463 61.3713 44.9095 63.5468 46.3881C65.7223 47.8667 68.6757 50.2127 70.1105 51.6005C71.5453 52.989 73.2371 54.1243 73.8699 54.1243C74.5027 54.1243 75.0206 54.4738 75.0206 54.9009C75.0206 55.328 75.4856 55.6775 76.054 55.6775C76.6223 55.6775 77.5548 56.5511 78.1262 57.6189C78.6976 58.6867 79.6138 59.5604 80.1635 59.5604C81.561 59.5604 84.8678 63.0169 84.5068 64.101C84.3422 64.5933 84.5867 64.9964 85.0495 64.9964C85.5114 64.9964 85.8903 65.4879 85.8903 66.0882C85.8903 66.7809 86.433 67.0388 87.3717 66.7934C88.2491 66.5635 89.5138 67.0675 90.4774 68.0312C91.3702 68.9243 92.6257 69.6558 93.2662 69.6558C93.9068 69.6558 94.4308 70.18 94.4308 70.8207C94.4308 72.2309 95.6995 72.3668 96.2484 71.0148C96.545 70.2825 96.8012 70.267 97.2911 70.9535C97.6483 71.4536 98.8688 72.0958 100.004 72.3808C101.62 72.7862 102.256 72.547 102.935 71.2773C103.412 70.3858 104.315 69.6558 104.94 69.6558C105.686 69.6558 106.077 68.8544 106.077 67.3261C106.077 65.7729 105.689 64.9964 104.912 64.9964C104.272 64.9964 103.736 64.5599 103.722 64.0257C103.694 62.9936 101.089 59.5604 100.332 59.5604C99.2492 59.5604 96.7601 56.7647 96.7601 55.5486C96.7601 54.8139 96.0636 53.7244 95.2119 53.128C94.361 52.5316 93.9238 51.7651 94.2414 51.425C94.5589 51.0841 93.8501 50.9815 92.6661 51.1959C90.9098 51.5143 90.2716 51.1757 89.1994 49.3608C88.4765 48.137 87.4913 47.1352 87.0115 47.1352C85.9291 47.1352 79.679 41.0872 79.679 40.0404C79.679 39.6211 79.3917 39.4549 79.0408 39.6723C78.6899 39.889 77.8203 39.3858 77.1076 38.5533C76.3948 37.7208 75.3272 37.0397 74.7348 37.0397C74.1424 37.0397 73.21 36.5 72.6618 35.8391C72.1145 35.1791 71.2705 34.7908 70.7876 34.9764C69.4296 35.4975 67.6679 33.7509 67.4335 31.6519C67.2813 30.282 68.0329 29.0511 70.1509 27.2013C71.762 25.795 73.342 24.6379 73.6618 24.6293C73.9817 24.6215 74.2441 24.0904 74.2441 23.4497C74.2441 22.809 74.7077 22.2848 75.2737 22.2848C76.4701 22.2848 79.2303 19.4053 79.9275 17.4313C80.1907 16.6842 80.8545 16.0668 81.4019 16.0606C82.1449 16.0513 82.1224 15.875 81.3118 15.3617C80.5696 14.8911 81.134 14.6744 83.0991 14.6744C86.1621 14.6744 92.4401 11.0362 91.6327 9.7292C90.9052 8.55114 92.7717 6.94752 94.8711 6.94752C97.2694 6.94752 99.3409 4.49821 98.1537 3.06698C96.9705 1.64042 90.0115 1.80428 89.187 3.27821C88.8228 3.92976 87.4082 4.54092 86.044 4.63721C84.6799 4.73351 83.5634 5.16606 83.5626 5.59861C83.5611 6.41634 82.7878 6.90869 77.5641 9.4178C74.54 10.87 71.8148 13.7425 73.4615 13.7425C73.8917 13.7425 74.2441 14.2318 74.2441 14.8305C74.2441 15.6498 73.3839 15.8377 70.7503 15.5916C67.9987 15.3345 67.2564 15.5162 67.2564 16.445C67.2564 17.1727 66.5429 17.6254 65.3985 17.6254C64.3767 17.6254 63.3395 18.1496 63.0933 18.7903C62.848 19.4309 62.2494 19.9551 61.7641 19.9551C61.2781 19.9551 59.8433 20.8288 58.5746 21.8966C56.0653 24.0081 52.5046 24.5128 52.5046 22.757C52.5046 22.1629 51.6312 21.457 50.5636 21.1891C48.8819 20.7674 48.2111 19.5412 48.5216 17.4592C48.5667 17.154 48.1125 17.0934 47.5115 17.3241C46.0596 17.8809 42.6691 15.6677 39.2078 11.9028C37.0704 9.57855 35.8296 8.85711 34.054 8.90759C32.0687 8.96428 31.7776 8.73519 32.13 7.38861C32.5019 5.96671 32.2923 5.85876 30.1021 6.34024C28.116 6.77667 27.6595 6.63145 27.6595 5.56677C27.6595 4.76768 27.2387 4.419 26.5803 4.67216C25.9863 4.89969 24.7782 4.41278 23.8954 3.59039C23.0119 2.76722 21.8768 2.09394 21.3721 2.09394C20.8674 2.09394 19.9909 1.482 19.4233 0.734933C18.8185 -0.0618309 18.3814 -0.231124 18.3674 0.327233ZM67.7867 21.6543C67.5391 22.2732 67.355 22.0891 67.3178 21.1844C67.2844 20.3659 67.4676 19.9077 67.7254 20.1656C67.9832 20.4234 68.0111 21.0936 67.7867 21.6543Z" fill="#F23E16"/>
</svg>
