<svg width="248" height="151" viewBox="0 0 248 151" fill="none" xmlns="http://www.w3.org/2000/svg">
<path fill-rule="evenodd" clip-rule="evenodd" d="M237.579 58.498C237.064 57.724 236.287 56.5049 235.852 55.7893C234.942 54.2904 233.437 54.265 233.693 55.7532C233.81 56.433 233.606 56.7009 233.055 56.5914C232.074 56.3957 232.125 57.1534 233.142 57.8732C233.702 58.2696 233.751 58.5085 233.347 58.8667C232.71 59.432 234.355 69.7718 235.063 69.6497C235.315 69.6063 235.344 69.2726 235.126 68.9074C234.91 68.5427 234.95 68.0512 235.216 67.8155C235.518 67.5475 235.799 67.968 235.966 68.9404C236.146 69.9823 235.984 70.5367 235.474 70.6245C235.057 70.6966 234.774 71.0982 234.846 71.5171C234.918 71.936 234.635 72.3377 234.218 72.4097C233.186 72.5876 233.405 73.4235 234.6 73.8705C235.518 74.2136 235.524 74.245 234.701 74.402C234.162 74.5045 233.806 75.122 233.773 76.0155C233.744 76.8111 233.703 78.0007 233.684 78.6581C233.665 79.316 233.277 80.3826 232.822 81.0288C231.878 82.37 231.873 83.2466 232.812 83.1612C233.164 83.1291 232.928 83.3522 232.287 83.6572C230.774 84.3767 230.758 86.9041 232.263 87.6858C233.714 88.4399 234.086 88.2864 233.868 87.0221C233.764 86.4174 233.853 86.0455 234.065 86.196C234.592 86.5689 235.515 84.6887 235.346 83.587C235.27 83.0965 235.55 82.6367 235.968 82.5647C236.688 82.4406 236.837 81.8435 236.463 80.5831C236.371 80.2743 236.856 79.1658 237.541 78.1198C238.225 77.0732 238.694 75.6838 238.581 75.0314C238.469 74.3794 238.576 73.6692 238.82 73.453C239.1 73.2045 238.982 72.7449 238.499 72.2023C237.904 71.5343 237.835 71.0432 238.188 69.9775C238.437 69.2256 238.443 68.3865 238.201 68.1128C237.96 67.8396 237.978 67.5788 238.241 67.5334C238.505 67.4879 238.703 66.748 238.681 65.8891C238.659 65.0302 238.453 64.3599 238.223 64.3996C237.992 64.4393 237.683 63.7726 237.536 62.9186C237.389 62.0646 237.494 61.4566 237.77 61.568C238.154 61.7235 238.811 60.4087 238.561 59.9849C238.536 59.9412 238.093 59.2719 237.579 58.498ZM234.849 52.0409C233.616 51.2434 232.577 51.6013 233.738 52.4238C234.266 52.7976 234.912 52.9802 235.173 52.8301C235.448 52.6718 235.311 52.3398 234.849 52.0409ZM233.71 48.7954C233.493 48.641 232.783 48.6066 232.133 48.7187C231.483 48.8307 230.912 48.6939 230.863 48.4146C230.815 48.1354 231.144 47.8434 231.595 47.7657C232.197 47.662 232.281 47.3359 231.911 46.5348C231.635 45.9351 231.376 45.2739 231.336 45.0654C231.296 44.8569 230.72 44.7795 230.057 44.8938C228.711 45.1257 227.837 43.8539 228.346 42.4072C228.702 41.397 227.808 39.0074 227.12 39.1261C226.871 39.169 226.616 38.9039 226.553 38.5373C226.39 37.5939 223.296 35.6026 222.268 35.7798C221.796 35.8612 221.456 36.2 221.514 36.5325C221.571 36.8651 221.207 36.7517 220.704 36.2799C219.84 35.469 219.805 35.5121 220.059 37.0755C220.321 38.6847 221.048 39.145 221.51 37.9935C221.636 37.6794 222.01 37.5319 222.341 37.6656C222.691 37.807 222.386 38.3366 221.611 38.9318C220.857 39.5103 220.569 40.0002 220.948 40.0583C221.316 40.1151 221.669 40.4574 221.731 40.8189C221.793 41.1804 222.24 41.7042 222.723 41.9832C223.207 42.262 224.09 43.1828 224.684 44.0287C225.279 44.8751 226.021 45.4589 226.333 45.3266C226.645 45.1945 226.745 45.2122 226.557 45.3649C226.368 45.5182 226.282 46.0433 226.367 46.5322C226.451 47.0207 226.72 47.5599 226.964 47.73C227.208 47.9002 227.764 48.6895 228.199 49.4842C228.933 50.8263 229.177 50.9028 231.644 50.5617C234.11 50.2214 234.841 49.5954 233.71 48.7954ZM236.04 66.3443C235.762 66.3923 235.492 66.1894 235.441 65.8939C235.39 65.5984 235.601 65.4581 235.909 65.5827C236.217 65.7073 236.487 65.9097 236.508 66.0331C236.53 66.1564 236.319 66.2963 236.04 66.3443ZM234.471 62.7072C234.288 62.5782 234.373 62.1416 234.66 61.7371C235.075 61.1533 235.142 61.2017 234.993 61.9726C234.889 62.506 234.654 62.8367 234.471 62.7072ZM229.394 42.9167C229.116 42.9647 228.927 43.2325 228.975 43.5118C229.023 43.791 229.291 43.9802 229.569 43.9322C229.848 43.8842 230.036 43.6164 229.988 43.3371C229.94 43.0579 229.673 42.8687 229.394 42.9167ZM229.271 47.4363C228.667 47.0093 229.369 46.4496 230.126 46.7553C230.697 46.9861 230.718 47.1059 230.233 47.3662C229.901 47.5447 229.469 47.5759 229.271 47.4363ZM225.874 40.648C225.625 40.8686 225.36 40.6926 225.285 40.2575C225.21 39.8224 225.376 39.4266 225.655 39.3786C225.934 39.3306 226.198 39.5061 226.244 39.7691C226.289 40.0321 226.123 40.4273 225.874 40.648ZM232.233 88.3167C231.456 87.7668 229.303 89.3196 229.331 90.4101C229.347 91.0352 229.034 91.6026 228.636 91.6713C228.238 91.74 227.97 92.1389 228.043 92.5578C228.115 92.9767 227.922 93.3629 227.614 93.416C226.8 93.5562 225.309 96.5331 225.647 97.3416C225.836 97.7937 225.643 97.9719 225.084 97.8606C224.452 97.7349 224.289 98.0129 224.45 98.9446C224.751 100.693 226.211 100.322 227.869 98.0775C228.599 97.089 229.515 96.2253 229.903 96.1584C230.292 96.0914 230.841 95.2057 231.124 94.1902C231.406 93.1748 231.933 91.9958 232.296 91.571C232.939 90.817 232.9 88.7888 232.233 88.3167ZM220.18 33.3362C219.79 33.5692 219.427 33.5068 219.374 33.1976C219.321 32.8884 218.827 32.7131 218.277 32.808C217.436 32.953 217.283 32.7299 217.318 31.4048C217.349 30.1994 217.176 29.8607 216.578 29.9638C216.149 30.0378 215.664 29.8485 215.5 29.5436C215.156 28.8993 211.223 31.2932 211.356 32.066C211.4 32.3214 211.772 32.3299 212.183 32.0851C212.594 31.8401 213.513 31.6837 214.226 31.7376C215.357 31.8234 215.433 31.929 214.82 32.5637C213.965 33.4493 214.652 34.7996 216.017 34.9167C216.749 34.9798 216.889 34.8023 216.566 34.2202C216.214 33.5845 216.281 33.5353 216.925 33.956C217.855 34.5633 221.098 34.1218 220.974 33.4048C220.928 33.1347 220.57 33.1038 220.18 33.3362ZM225.601 101.083C225.183 101.155 224.802 100.985 224.754 100.706C224.705 100.427 224.324 100.257 223.906 100.329C223.488 100.401 223.107 100.232 223.059 99.9524C222.902 99.0425 222.03 99.5797 221.88 100.678C221.796 101.296 221.269 101.847 220.636 101.98C220.031 102.107 219.841 102.277 220.214 102.357C220.586 102.439 220.99 103.076 221.11 103.774C221.378 105.33 222.536 104.914 222.495 103.277C222.468 102.179 223.254 101.745 225.557 101.586C226.053 101.552 226.437 101.395 226.41 101.238C226.383 101.08 226.019 101.011 225.601 101.083ZM209.928 28.4961C209.493 28.5709 209.318 28.8364 209.538 29.086C209.759 29.3356 210.153 29.5029 210.416 29.4576C210.678 29.4124 210.853 29.147 210.805 28.8677C210.757 28.5885 210.362 28.4213 209.928 28.4961ZM219.638 103.287C219.205 102.586 217.799 102.721 217.925 103.452C217.974 103.731 217.581 104.034 217.054 104.125C216.527 104.215 216.013 104.709 215.911 105.222C215.755 106.014 215.64 106.055 215.143 105.492C214.653 104.937 214.422 105.04 213.713 106.127C213.204 106.907 212.522 107.357 212.005 107.254C211.532 107.16 211.032 107.313 210.894 107.594C210.404 108.596 208.607 109.742 207.783 109.577C207.321 109.485 206.648 109.757 206.287 110.181C205.926 110.605 204.45 111.215 203.007 111.537C201.564 111.858 200.279 112.191 200.15 112.277C200.021 112.361 199.758 112.437 199.566 112.443C199.374 112.449 198.191 112.967 196.938 113.594C195.684 114.221 194.449 114.649 194.194 114.546C193.938 114.443 193.771 114.6 193.822 114.896C193.873 115.191 193.559 115.495 193.125 115.57C192.691 115.644 192.515 115.91 192.736 116.159C193.182 116.665 191.957 117.02 191.32 116.569C191.097 116.411 189.603 116.479 187.999 116.721C186.397 116.962 184.845 117.127 184.551 117.087C183.097 116.892 181.657 117.626 181.574 118.606C181.471 119.829 180.736 120.128 180.171 119.177C179.749 118.467 175.642 118.42 174.482 119.112C174.086 119.349 173.817 119.866 173.886 120.263C173.992 120.881 173.795 120.917 172.495 120.518C170.863 120.017 166.787 120.043 166.425 120.557C166.304 120.729 165.385 121.064 164.383 121.3C163.381 121.536 162.454 121.995 162.323 122.318C161.863 123.458 159.376 123.83 159.196 122.785C159.129 122.396 158.401 122.097 157.571 122.118C156.482 122.145 156.169 122.327 156.436 122.777C156.659 123.152 156.432 123.467 155.867 123.569C155.159 123.697 155.112 123.816 155.678 124.052C156.248 124.29 156.186 124.475 155.42 124.824C154.262 125.35 154.188 125.229 154.706 123.664C154.986 122.817 154.95 122.642 154.566 122.983C154.281 123.235 153.701 123.241 153.275 122.996C152.733 122.683 152.124 122.774 151.231 123.303C149.517 124.318 149.036 124.355 148.885 123.481C148.734 122.602 145.213 122.411 144.622 123.25C144.145 123.929 141.166 124.082 141.054 123.435C141.011 123.184 140.08 123.285 138.986 123.66C137.371 124.212 136.831 124.183 136.128 123.505C135.314 122.722 135.248 122.728 135.069 123.617C134.849 124.718 134.027 125.024 133.862 124.068C133.8 123.709 133.346 123.46 132.854 123.514C131.63 123.65 128.116 124.188 126.884 124.43C126.329 124.538 124.108 124.563 121.949 124.484C118.196 124.347 116.331 124.757 115.879 125.82C115.684 126.28 112.513 125.514 110.348 124.484C109.582 124.12 109.038 124.213 107.86 124.906C106.595 125.652 106.238 125.685 105.644 125.108C104.546 124.043 102.212 125.773 102.87 127.164C103.253 127.975 103.215 128.04 102.676 127.502C102.307 127.134 102.024 126.125 102.045 125.258C102.082 123.748 102.058 123.731 101.466 124.835C100.926 125.841 100.827 125.878 100.683 125.123C100.541 124.385 100.025 124.359 97.1605 124.946C94.8458 125.42 93.7042 125.448 93.4819 125.035C93.3048 124.707 92.8534 124.49 92.4791 124.555C92.1048 124.619 91.6621 124.32 91.4952 123.89C91.2358 123.221 91.0182 123.302 89.9888 124.449C89.3274 125.187 88.7416 125.533 88.6876 125.22C88.6226 124.843 87.8326 124.875 86.3565 125.312C84.598 125.833 84.0961 125.814 83.9942 125.223C83.9229 124.809 84.0855 124.433 84.3554 124.386C84.6249 124.34 84.6554 123.982 84.4232 123.591C83.9164 122.738 81.9802 122.976 81.276 123.976C80.8851 124.531 80.7495 124.553 80.6665 124.071C80.5964 123.665 80.1446 123.636 79.3485 123.989C78.6528 124.298 78.0995 124.307 78.0484 124.011C77.9996 123.728 77.5635 123.676 77.0795 123.896C76.5954 124.117 75.8408 123.989 75.4026 123.614C74.9638 123.238 74.0911 123.019 73.4631 123.127C72.8351 123.235 71.9679 123.022 71.5358 122.651C71.1044 122.281 70.4581 122.154 70.1001 122.367C69.7426 122.58 68.4926 122.599 67.3227 122.408C66.1528 122.217 65.2302 122.262 65.2728 122.509C65.4258 123.397 63.8289 123.191 61.9581 122.083C58.7242 120.169 55.2827 119.743 54.9649 121.218C54.8778 121.624 54.7412 121.542 54.6259 121.015C54.5198 120.53 54.0908 120.193 53.673 120.265C53.2551 120.337 52.8783 120.193 52.8357 119.946C52.7229 119.291 49.2427 118.414 47.7684 118.669C47.074 118.788 46.316 118.566 46.0832 118.175C45.8509 117.783 45.4013 117.508 45.0848 117.563C44.7677 117.617 43.7205 117.2 42.7564 116.635C40.8147 115.497 39.7686 115.71 40.2489 117.144C40.4255 117.672 40.3493 117.89 40.0741 117.642C39.8051 117.401 39.0849 117.023 38.4733 116.803C37.8616 116.583 37.3648 116.018 37.3689 115.549C37.3729 115.079 37.0007 114.62 36.5411 114.529C36.0815 114.437 35.6374 113.987 35.5542 113.529C35.4353 112.876 35.3349 112.859 35.0892 113.452C34.6143 114.597 32.606 113.596 31.948 111.887C31.5145 110.762 31.1506 110.554 29.9726 110.757C29.0857 110.91 27.9834 110.593 27.1145 109.937C26.046 109.13 25.6186 109.043 25.3666 109.584C25.1647 110.019 25.049 109.63 25.073 108.595C25.1043 107.249 24.944 106.918 24.3124 107.027C23.7882 107.117 23.4341 106.709 23.2844 105.841C23.0816 104.664 22.9062 104.575 21.713 105.045C20.9746 105.336 20.6332 105.401 20.9555 105.189C21.6487 104.732 21.3459 102.31 20.6115 102.437C20.3329 102.485 20.052 102.217 19.9873 101.841C19.9225 101.465 19.3957 100.857 18.8165 100.489C18.0375 99.9938 17.6697 99.149 17.4026 97.2397C17.2038 95.8204 16.8562 94.5848 16.6309 94.4939C16.405 94.4027 16.2402 93.3196 16.265 92.0871C16.3334 88.6445 16.0959 87.8238 14.7329 86.7846C13.529 85.867 13.5047 85.7745 14.1916 84.6883C14.5866 84.0634 14.7519 83.579 14.5584 83.6123C14.3649 83.6457 14.598 83.0764 15.0756 82.3468C15.6036 81.54 15.7827 80.5889 15.5326 79.9184C15.3061 79.3122 15.3765 78.5169 15.6889 78.1504C16.0013 77.7844 16.3794 76.6589 16.5287 75.6497C16.6786 74.6404 17.0114 73.7784 17.2687 73.734C17.5255 73.6897 17.6527 73.1722 17.5512 72.5837C17.4327 71.8962 17.6265 71.5653 18.0932 71.6584C18.4923 71.7381 19.06 71.2858 19.3541 70.6531C19.6483 70.021 20.4808 68.5458 21.2047 67.3754C21.9287 66.2049 22.4949 65.0663 22.4634 64.8443C22.432 64.6228 23.1632 63.3884 24.0887 62.1016C25.0142 60.8148 25.7304 59.5238 25.6805 59.2339C25.6304 58.9435 26.0103 58.6333 26.5244 58.5446C27.741 58.3349 30.2919 56.4506 30.638 55.5057C30.7866 55.1005 31.3439 54.6061 31.8762 54.4082C32.4084 54.2098 33.0151 53.4757 33.2243 52.7772C33.433 52.0788 33.7534 51.5049 33.936 51.5022C34.7542 51.4897 38.1539 49.5045 38.5554 48.8048C38.8004 48.3777 39.2795 47.9804 39.6199 47.9217C40.4297 47.7821 41.4857 46.0478 41.5766 44.7088C41.6435 43.7201 41.6646 43.7217 41.8967 44.7409C42.2432 46.2612 43.2166 46.2591 45.085 44.7329C45.965 44.014 47.4645 43.1829 48.4174 42.8864C49.3701 42.5894 50.7813 41.9262 51.5532 41.412C53.8146 39.9059 55.9918 38.979 59.5838 37.9938C60.2759 37.8034 61.2328 37.331 61.71 36.9439C62.3093 36.4573 63.0645 36.3209 64.1529 36.5024C65.3702 36.7056 65.7986 36.5888 66.0402 35.9872C66.2477 35.4694 67.3857 35.0191 69.4437 34.6408C71.5218 34.2585 72.6388 33.8134 72.8516 33.2837C73.1143 32.6293 73.2478 32.6293 73.6372 33.2847C74.0118 33.915 74.3479 33.9313 75.3038 33.365C75.9625 32.9749 77.6785 32.61 79.1173 32.5549C81.4155 32.4661 81.6771 32.3588 81.268 31.6712C81.0123 31.2406 81.0045 30.8535 81.2512 30.8109C81.4978 30.7684 81.8119 30.9323 81.9496 31.1747C82.0988 31.4381 83.1467 31.2182 84.5501 30.6281C86.2426 29.9175 87.1742 29.7522 87.8751 30.0392C88.4104 30.2585 89.4628 30.2068 90.2136 29.9241C91.0829 29.597 91.7867 29.6378 92.1522 30.0365C92.5929 30.5173 92.7943 30.503 93.0194 29.9753C93.3782 29.1339 97.9382 28.3672 99.2905 28.9209C99.9802 29.2035 100.556 29.0938 101.324 28.5348C103.02 27.2992 104.556 26.6793 104.645 27.1952C104.69 27.4557 105.766 27.3989 107.035 27.0692C108.305 26.74 109.635 26.6325 109.993 26.8312C111.173 27.4863 113.961 27.3393 115.674 26.5316C117.05 25.8823 117.332 25.8755 117.21 26.4942C117.04 27.3548 118.003 27.3656 118.347 26.5072C118.695 25.6417 121.689 25.2666 121.523 26.1093C121.373 26.8703 121.362 26.8701 126.903 26.2212C129.012 25.9743 131.409 25.9642 132.23 26.1986C133.437 26.5436 133.849 26.4763 134.385 25.8468C134.838 25.3155 135.08 25.2497 135.147 25.6386C135.201 25.9519 135.902 26.0952 136.703 25.957C137.505 25.8189 138.51 26.0057 138.938 26.3727C139.394 26.7631 140.468 26.8901 141.532 26.6789C143.623 26.2646 147.402 26.4936 149.67 27.1724C150.528 27.4296 151.416 27.4753 151.643 27.274C151.87 27.0729 152.097 27.1508 152.148 27.4463C152.348 28.606 154.159 27.6288 154.258 26.3078C154.313 25.5679 154.607 25.0628 154.912 25.1855C155.215 25.3088 155.372 25.6394 155.259 25.9203C154.875 26.8779 156.44 28.2195 158.027 28.2926C158.896 28.3331 159.635 28.52 159.667 28.7089C159.742 29.1445 163.223 29.7539 165.489 29.728C166.442 29.717 167.396 30.0027 167.611 30.3631C167.824 30.7236 168.47 30.9374 169.045 30.8383C169.621 30.7391 170.537 30.9414 171.082 31.2876C171.627 31.6345 172.915 31.8401 173.943 31.7454C174.972 31.6507 176.157 31.873 176.577 32.2393C177.994 33.4767 180.905 34.5451 182.235 34.3158C183.442 34.1077 185.309 32.9377 185.803 32.0798C185.914 31.8882 186.323 31.542 186.714 31.3106C187.104 31.0791 186.652 31.0039 185.709 31.144C184.279 31.3559 184.073 31.2597 184.47 30.567C184.854 29.898 184.678 29.6183 183.57 29.1359C182.813 28.8063 181.635 28.5258 180.952 28.5117C180.27 28.4981 179.595 28.2694 179.452 28.0037C179.31 27.7376 178.868 27.5765 178.469 27.6452C177.469 27.8176 175.438 27.0446 174.451 26.1157C174 25.6906 173.28 25.4028 172.851 25.4766C172.422 25.5506 171.39 25.2826 170.557 24.8804C168.79 24.0294 164.721 23.5519 164.08 24.1205C163.837 24.336 163.576 24.1561 163.501 23.7209C163.426 23.2858 163.047 22.9841 162.659 23.051C162.271 23.1179 161.754 22.8364 161.509 22.4252C161.234 21.9614 160.543 21.8044 159.687 22.0105C156.986 22.6623 156.011 22.6254 155.88 21.8669C155.697 20.8047 154.321 21.1506 154.225 22.2829C154.168 22.9583 154.091 23.0071 153.943 22.4621C153.668 21.4456 149.914 20.5024 148.573 21.1126C147.79 21.4687 147.452 21.3837 147.352 20.8049C147.173 19.7624 144.183 20.4148 143.429 21.6605C142.983 22.3977 142.954 22.3458 143.244 21.3322C143.654 19.8991 142.927 19.4241 141.478 20.1764C140.941 20.4551 140.114 20.4596 139.641 20.1867C138.957 19.7921 138.553 19.8676 137.678 20.5513C137.04 21.0497 136.16 21.3149 135.587 21.1804C135.044 21.0528 134.028 21.0356 133.329 21.1425C132.631 21.2498 131.668 20.9515 131.19 20.4802C130.508 19.8078 129.944 19.7533 128.571 20.2263C127.61 20.5579 126.501 20.6444 126.108 20.4178C125.716 20.1916 124.002 20.2256 122.3 20.4945C119.944 20.8661 118.984 21.257 118.279 22.1313C117.437 23.1763 117.369 23.1938 117.525 22.3293C117.669 21.527 117.498 21.4661 116.425 21.9412C115.599 22.3079 115.237 22.3003 115.39 21.92C115.519 21.5981 115.277 21.266 114.852 21.1813C114.428 21.0966 114.016 21.3198 113.937 21.6763C113.835 22.1398 113.603 22.1343 113.126 21.6562C112.522 21.0523 112.285 21.4106 112.628 22.4065C112.7 22.6159 112.163 22.7414 111.434 22.6861C110.462 22.6126 110.144 22.7882 110.24 23.3447C110.319 23.8047 109.771 24.3003 108.848 24.6032C107.585 25.0169 107.208 24.9053 106.646 23.9523C106.272 23.3203 106.06 22.5711 106.173 22.2879C106.287 22.0049 105.816 21.8707 105.126 21.9896C104.437 22.1084 103.83 22.4822 103.779 22.8193C103.71 23.2778 103.39 23.3345 102.516 23.0434C101.074 22.5626 96.4019 23.6091 95.7303 24.563C95.13 25.4157 92.9419 25.8619 92.8203 25.1567C92.7722 24.8774 92.9607 24.6096 93.2392 24.5616C93.5178 24.5136 93.7088 24.26 93.6637 23.9985C93.5419 23.2917 89.9336 24.651 89.599 25.53C89.1878 26.6116 88.5371 26.5826 88.0276 25.4601C87.548 24.4029 86.4124 24.2892 86.5894 25.3159C86.6518 25.6779 86.0667 26.0595 85.2275 26.2042C84.4186 26.3436 83.8271 26.2825 83.9132 26.0679C84.2335 25.2697 78.6763 26.6748 77.2125 27.7621C75.8718 28.7581 75.6207 28.8113 75.0817 28.2136C74.7462 27.8406 74.5076 27.7667 74.5517 28.0493C74.5963 28.3323 74.2064 28.9448 73.6855 29.4111C72.8794 30.1325 72.5726 30.153 71.6232 29.5496C71.01 29.1602 70.5449 29.0548 70.59 29.3163C70.6351 29.5778 68.9216 30.0849 66.782 30.4433C64.3166 30.8568 62.6999 31.3687 62.3664 31.8418C61.7255 32.7528 59.2726 33.2483 59.1425 32.4938C59.0909 32.1942 58.7605 32.3589 58.4081 32.8593C58.0558 33.3598 57.4073 33.6974 56.9671 33.6097C56.4217 33.5014 56.2985 33.6732 56.5813 34.1488C57.1359 35.0817 53.318 36.3264 51.7378 35.7278C50.8735 35.4005 50.5985 35.4568 50.5052 35.9806C50.4393 36.3516 50.0595 36.7109 49.6609 36.7796C49.2623 36.8484 48.5756 37.1759 48.1347 37.5076C47.162 38.2394 44.5243 39.974 42.7515 41.0477C42.0356 41.4811 41.5087 42.0064 41.5801 42.2148C41.9181 43.1985 41.6549 43.3929 40.8024 42.7891C40.1289 42.3128 39.6401 42.3092 39.043 42.7755C38.5884 43.1305 38.0474 43.3016 37.8407 43.1558C37.6346 43.01 37.5223 43.2175 37.5911 43.6166C37.7343 44.4473 35.0945 46.2942 32.3038 47.3164C31.0219 47.7857 30.3819 48.3415 30.3227 49.0361C30.275 49.6006 29.945 50.1124 29.5894 50.1737C29.2339 50.235 28.8713 50.6488 28.7837 51.0937C28.696 51.5381 27.6419 52.6024 26.4418 53.4581C25.1654 54.3677 24.2716 55.4117 24.2889 55.9718C24.3051 56.4987 24.1772 57.1089 24.0043 57.328C23.8313 57.5471 23.764 57.3014 23.8545 56.7829C23.9454 56.2637 23.834 55.8714 23.6076 55.9104C23.0348 56.0092 18.408 62.4273 18.5048 62.9889C18.5482 63.2407 17.9772 63.8306 17.2361 64.2998C16.4945 64.7691 15.6786 65.8205 15.4229 66.6363C15.1672 67.4521 14.7043 68.3517 14.3943 68.6352C14.0839 68.9187 13.8741 69.4051 13.9277 69.7163C14.0877 70.6445 13.0153 74.4673 12.5736 74.5434C12.3482 74.5823 12.2235 74.9567 12.2957 75.3756C12.3679 75.7945 12.2061 76.1753 11.9362 76.2218C11.6667 76.2683 11.6362 76.6264 11.8684 77.0177C12.1027 77.4113 12.0144 77.7768 11.6715 77.8359C11.2972 77.9005 11.2296 78.3341 11.5005 78.9315C11.7906 79.5706 11.5917 80.4707 10.9382 81.4779C10.3828 82.3344 10.0947 83.3163 10.2988 83.6591C10.5024 84.002 10.3344 84.3405 9.92563 84.411C9.46119 84.491 9.26748 85.0373 9.40989 85.8634C9.61034 87.0262 9.78743 87.1216 10.8616 86.6458C12.0642 86.1127 12.0717 86.1229 11.2891 87.2345C10.8513 87.8564 10.2224 88.5106 9.89218 88.6883C9.43683 88.9331 9.51098 89.1665 10.1971 89.6521C10.8582 90.1201 11.0088 90.561 10.7534 91.2853C10.5618 91.8312 10.4602 92.8907 10.528 93.6408C10.5961 94.3903 10.5698 95.5472 10.4699 96.2117C10.3576 96.9604 10.4942 97.3839 10.8295 97.3261C11.1268 97.2748 11.4345 97.6076 11.5134 98.0656C11.5924 98.5236 12.0746 99.1061 12.5851 99.36C13.3467 99.739 13.44 100.041 13.1074 101.047C12.8732 101.754 12.9448 102.717 13.2776 103.329C13.5937 103.91 13.8406 104.54 13.8262 104.729C13.8118 104.918 14.2862 104.878 14.8809 104.639C15.9366 104.217 15.942 104.229 15.1167 105.175C14.3898 106.008 14.3889 106.124 15.1117 105.999C15.6511 105.906 15.8952 106.145 15.7925 106.666C15.7041 107.112 15.9086 107.43 16.2464 107.372C17.1662 107.213 19.4969 109.512 19.5003 110.582C19.5022 111.14 19.8148 111.462 20.2772 111.382C20.7026 111.309 21.3735 111.664 21.7681 112.171C22.5861 113.223 24.9797 113.042 25.8142 111.866C26.238 111.269 26.3083 111.299 26.1688 112.014C26.0732 112.506 25.5751 113.099 25.0616 113.333C23.971 113.829 23.9723 114.928 25.0632 114.74C25.4892 114.667 25.7436 114.932 25.6588 115.363C25.5662 115.83 26.1193 116.268 27.1225 116.521C28.0096 116.744 28.6766 117.222 28.6054 117.583C28.5342 117.945 29.0337 118.316 29.7162 118.409C30.3981 118.501 31.8428 118.98 32.9262 119.471C34.0097 119.963 35.1855 120.315 35.5385 120.254C36.3691 120.111 36.0549 118.243 35.1679 118.05C34.7632 117.962 34.8449 117.825 35.3701 117.71C35.8968 117.595 36.3127 117.884 36.4072 118.432C36.7111 120.195 38.2491 121.877 39.1386 121.418C39.6865 121.136 40.0233 121.256 40.1109 121.765C40.2676 122.674 42.4124 123.543 43.4753 123.129C43.8784 122.971 44.0763 123.033 43.9152 123.267C43.286 124.176 45.344 124.802 47.9553 124.497C49.7212 124.291 50.9607 124.426 51.4385 124.877C51.9462 125.356 52.684 125.413 53.7695 125.057C55.0876 124.626 55.3283 124.688 55.1833 125.423C55.023 126.236 55.805 126.464 57.1528 125.996C57.3635 125.923 57.7269 126.186 57.9611 126.579C58.5128 127.508 60.344 127.196 60.1727 126.203C60.1005 125.784 60.3832 125.382 60.8011 125.31C61.2189 125.238 61.6002 125.408 61.6483 125.687C61.6965 125.966 62.3269 126.093 63.0497 125.968C63.9462 125.814 64.3924 125.398 64.4548 124.659C64.5666 123.338 65.6419 123.385 65.9452 124.724C66.4673 127.027 66.6818 127.433 67.3184 127.324C67.6892 127.26 68.3899 127.718 68.8756 128.342L69.7581 129.477L70.9925 128.23C72.2241 126.986 72.2277 126.985 72.7275 127.951C73.0028 128.484 73.6176 128.852 74.0942 128.77C74.5703 128.688 75.5218 128.885 76.2077 129.21C77.3331 129.742 77.5944 129.693 78.8798 128.718C80.5254 127.47 80.2654 126.391 78.4019 126.736C77.398 126.921 77.081 126.719 76.9214 125.792C76.8096 125.144 76.8751 124.674 77.067 124.747C77.2591 124.82 78.2047 125.068 79.1692 125.299C81.1673 125.778 81.9283 126.704 81.2691 127.854C80.9226 128.458 81.0147 128.684 81.6607 128.813C82.1256 128.905 82.7506 128.764 83.0501 128.498C83.3821 128.204 83.4986 128.253 83.349 128.626C82.947 129.628 84.0125 129.701 85.6623 128.785C87.044 128.017 87.321 128.03 88.2473 128.902C89.0597 129.666 89.8891 129.803 92.0665 129.534C95.2009 129.146 96.6899 128.62 96.2051 128.071C96.0255 127.868 96.0851 127.517 96.338 127.293C96.6035 127.057 96.8921 127.434 97.0216 128.185C97.1447 128.899 97.3317 129.469 97.437 129.451C97.5424 129.433 98.5636 129.633 99.7062 129.896C101.611 130.334 101.717 130.315 100.972 129.678C100.254 129.062 100.371 128.945 101.995 128.665C103.004 128.491 103.863 128.541 103.904 128.777C103.944 129.012 105.101 129.559 106.475 129.992C108.384 130.594 109.088 130.615 109.463 130.082C110.032 129.274 111.829 128.863 112.635 129.357C113.487 129.879 117.675 130.231 118.139 129.819C118.366 129.619 118.753 129.683 119.001 129.963C119.301 130.304 119.528 130.281 119.682 129.896C120.007 129.087 122.548 128.02 122.656 128.647C122.733 129.091 126.326 129.336 128.461 129.043C128.882 128.985 129.56 129.081 129.968 129.255C131.09 129.734 134.683 129.35 134.934 128.724C135.076 128.37 135.546 128.305 136.253 128.541C137.915 129.095 143.054 128.267 143.183 127.425C143.264 126.892 143.477 126.84 144.101 127.2C144.724 127.56 144.888 127.521 144.805 127.037C144.718 126.532 144.871 126.506 145.564 126.906C146.042 127.181 146.492 127.749 146.564 128.168C146.671 128.788 146.817 128.787 147.346 128.167C147.704 127.747 148.026 127.574 148.062 127.782C148.098 127.99 148.385 127.859 148.699 127.49C149.12 126.996 149.588 126.969 150.473 127.387C151.25 127.754 151.756 127.751 151.906 127.378C152.034 127.061 152.383 126.9 152.684 127.022C152.984 127.143 153.506 126.919 153.843 126.523C154.319 125.966 154.744 125.941 155.743 126.412C157.614 127.297 159.319 126.851 159.63 125.396C159.812 124.542 159.944 124.426 160.068 125.01C160.254 125.888 163.023 125.989 167.187 125.271C168.301 125.078 171.068 124.606 173.335 124.221C177.323 123.544 177.461 123.478 177.558 122.186C177.663 120.781 178.565 120.18 178.772 121.379C178.952 122.425 180.487 123.207 180.624 122.321C180.711 121.759 180.911 121.73 181.671 122.166C182.424 122.598 182.951 122.524 184.321 121.792C185.261 121.29 186.385 120.951 186.818 121.037C187.378 121.148 187.543 120.83 187.39 119.94C187.143 118.508 187.48 118.35 189.051 119.164C190.593 119.963 193.049 119.488 192.866 118.426C192.756 117.792 192.904 117.706 193.505 118.053C194.416 118.579 199.503 117.364 201.466 116.152C202.178 115.712 203.229 115.394 203.802 115.443C204.376 115.492 205.054 115.168 205.31 114.722C205.566 114.277 206.373 113.803 207.104 113.671C207.835 113.539 209.339 112.814 210.446 112.06C211.553 111.306 212.623 110.705 212.823 110.723C213.482 110.784 216.763 108.809 216.691 108.394C216.653 108.172 217.24 107.751 217.996 107.459C218.843 107.132 219.514 106.38 219.744 105.499C219.95 104.713 220.092 104.027 220.06 103.974C220.029 103.921 219.838 103.612 219.638 103.287ZM205.104 24.4385C204.262 23.649 204.2 23.6649 203.254 24.9117C202.425 26.0052 202.403 26.2553 203.11 26.5495C204.304 27.0459 204.727 26.8929 204.577 26.0201C204.418 25.098 205.231 24.8664 205.739 25.689C205.94 26.0141 206.075 26.0493 206.04 25.7678C206.005 25.4863 205.584 24.8881 205.104 24.4385ZM199.244 21.3519C199.16 21.7432 199.254 22.1783 199.451 22.3178C199.649 22.4574 199.717 22.1372 199.602 21.6058C199.476 21.0185 199.335 20.9189 199.244 21.3519ZM190.303 34.8855C189.386 33.3768 188.114 33.3932 187.492 34.9215C186.858 36.479 187.607 36.6762 188.471 35.1788C189.031 34.2092 189.248 34.088 189.364 34.6814C189.448 35.1125 189.29 35.7869 189.013 36.1796C188.623 36.7348 188.815 36.8413 189.878 36.658C190.63 36.5283 191.212 36.369 191.17 36.3045C191.128 36.2401 190.738 35.6015 190.303 34.8855ZM183.148 31.8055C182.9 32.0261 182.654 31.9644 182.603 31.6689C182.552 31.3734 182.739 31.0919 183.017 31.0439C183.296 30.9958 183.541 31.0571 183.562 31.1805C183.583 31.3039 183.397 31.5848 183.148 31.8055ZM178.293 32.3811C177.505 32.5169 176.977 32.3115 176.896 31.8377C176.823 31.4189 176.523 31.1178 176.228 31.1686C175.933 31.2194 175.798 30.9959 175.928 30.6713C176.075 30.3067 176.577 30.4198 177.245 30.9672C177.839 31.4545 178.582 31.8084 178.898 31.754C179.213 31.6996 179.491 31.7693 179.516 31.9089C179.54 32.0486 178.989 32.261 178.293 32.3811ZM173.336 29.5241C172.559 28.6447 172.993 28.322 174.097 28.9589C174.77 29.3468 174.875 29.5955 174.458 29.8189C174.137 29.992 173.631 29.859 173.336 29.5241ZM152.104 124.567C151.672 124.474 151.771 124.333 152.357 124.207C152.887 124.093 153.207 124.162 153.068 124.359C152.929 124.557 152.495 124.651 152.104 124.567ZM127.916 128.902C127.637 128.95 127.35 128.647 127.278 128.228C127.206 127.809 127.375 127.427 127.653 127.379C127.932 127.331 128.219 127.635 128.291 128.053C128.363 128.472 128.194 128.854 127.916 128.902ZM106.291 25.9715C106.168 25.9927 105.887 25.8058 105.667 25.5562C105.446 25.3067 105.508 25.0608 105.803 25.01C106.097 24.9592 106.378 25.146 106.426 25.4253C106.475 25.7045 106.414 25.9503 106.291 25.9715ZM100.45 128.409C99.9437 128.496 99.6029 128.032 99.4279 127.017C99.2834 126.179 99.3775 125.457 99.6363 125.412C100.042 125.342 100.306 125.801 101.075 127.909C101.15 128.112 100.868 128.337 100.45 128.409ZM94.054 127.609C93.6638 127.842 93.3064 127.811 93.2599 127.541C93.2132 127.27 93.5169 126.99 93.9348 126.918C94.3526 126.846 94.71 126.877 94.7289 126.986C94.7478 127.096 94.4441 127.376 94.054 127.609ZM84.7733 127.286C84.3418 127.193 84.441 127.052 85.0269 126.926C85.5569 126.812 85.8764 126.881 85.7373 127.078C85.5983 127.276 85.1643 127.369 84.7733 127.286ZM74.9523 126.774C74.6026 126.539 75.1973 125.442 75.7231 125.352C75.9966 125.305 75.9813 125.637 75.689 126.089C75.3973 126.542 75.0656 126.85 74.9523 126.774ZM52.0956 37.7517C51.7229 37.6712 51.9882 37.5067 52.6846 37.3867C53.381 37.2666 53.6855 37.3328 53.3618 37.5334C53.0377 37.7347 52.4679 37.8329 52.0956 37.7517ZM64.3558 126.266C63.6746 126.383 63.4012 126.779 63.521 127.474C63.672 128.349 63.8393 128.397 64.6184 127.789C65.124 127.394 65.4996 126.85 65.4532 126.581C65.4068 126.311 64.9129 126.17 64.3558 126.266ZM48.7641 39.0256C48.5017 39.0708 48.2481 38.8793 48.2 38.6C48.1518 38.3208 48.468 38.031 48.902 37.9562C49.3361 37.8813 49.5902 38.0728 49.4662 38.3817C49.3421 38.6907 49.0264 38.9804 48.7641 39.0256ZM62.2162 125.066C61.0194 125.272 61.5656 123.888 62.8463 123.469C63.8698 123.135 63.951 123.204 63.4875 124.012C63.1952 124.522 62.6234 124.996 62.2162 125.066ZM30.9784 116.61C30.7955 116.481 30.8804 116.044 31.1674 115.64C31.582 115.056 31.6498 115.104 31.5 115.875C31.3959 116.408 31.1613 116.739 30.9784 116.61ZM15.1589 72.7467C14.5096 73.1342 14.4654 73.0649 14.8893 72.3263C15.4667 71.3196 15.7442 71.1772 15.8567 71.8301C15.8997 72.0794 15.5854 72.4918 15.1589 72.7467ZM15.2925 100.217C15.1633 100.239 14.7202 99.7861 14.3079 99.2099C13.5885 98.2041 13.5966 98.1964 14.5164 99.0124C15.5226 99.9055 15.6799 100.15 15.2925 100.217ZM14.3288 102.474C14.0664 102.519 13.8128 102.328 13.7646 102.048C13.7165 101.769 14.0327 101.479 14.4667 101.405C14.9008 101.33 15.1549 101.521 15.0308 101.83C14.9068 102.139 14.5911 102.429 14.3288 102.474Z" fill="#F23E16"/>
</svg>
